<?xml version="1.0" encoding="UTF-8"?>
<!DOCTYPE svg PUBLIC "-//W3C//DTD SVG 1.1//EN" "http://www.w3.org/Graphics/SVG/1.1/DTD/svg11.dtd">
<!-- Creator: CorelDRAW -->
<svg xmlns="http://www.w3.org/2000/svg" xml:space="preserve" width="2350px" height="2350px" style="shape-rendering:geometricPrecision; text-rendering:geometricPrecision; image-rendering:optimizeQuality; fill-rule:evenodd; clip-rule:evenodd"
viewBox="0 0 2350 2350"
 xmlns:xlink="http://www.w3.org/1999/xlink">
 <defs>
  <style type="text/css">
   <![CDATA[
    .fil2 {fill:#009FE3}
    .fil3 {fill:#1D1D1B}
    .fil1 {fill:#1D71B8}
    .fil0 {fill:#E30613}
   ]]>
  </style>
 </defs>
 <g id="Layer_x0020_1">
  <metadata id="CorelCorpID_0Corel-Layer"/>
  <g id="_469682456">
   <path id="_469681352" class="fil0" d="M1511.68 2213.19c-44.9181,11.8445 -87.2429,26.927 -137.422,36.8159 -246.828,48.6391 -499.922,13.1565 -719.543,-101.681 -42.5728,-22.2624 -96.1764,-54.4846 -133.108,-82.1969 -6.07103,-4.55593 -7.81641,-5.18181 -12.7325,-8.83553l-60.3572 -47.3366c-14.2689,-10.3341 -78.2916,-74.2883 -87.6727,-84.6236l-40.6609 -45.4447c-7.6747,-7.34759 -12.481,-15.0164 -19.1944,-23.8885 -62.6801,-82.8428 -102.647,-141.948 -145.898,-241.73 -76.0774,-175.511 -109.583,-373.683 -83.2242,-586.617 24.9277,-201.386 99.3318,-360.913 213.451,-518.438 9.47085,-13.0726 36.6175,-47.9802 48.2541,-59.4219 4.17332,-4.10364 6.06394,-6.79374 9.90307,-11.7193 9.34922,-11.9968 50.6891,-53.0545 64.0322,-65.1966l56.5736 -51.0328 61.5735 -46.0848c287.241,-208.528 689.07,-261.68 1021.61,-131.072l39.0726 16.2847c2.39369,0.982513 4.43902,1.63319 6.79374,2.56729l72.7579 34.9217c12.0641,6.42648 49.1658,28.1846 56.3173,30.2595 7.51173,-11.6177 33.3334,-50.4671 37.7724,-60.2273 -81.1789,-45.1767 -162.86,-88.8135 -253.671,-114.456 -103.596,-29.2498 -198.117,-49.9676 -312.815,-52.4759 -215.423,-4.70945 -423.922,54.4314 -585.503,145.92 -42.3165,23.9594 -77.3351,45.4695 -112.676,71.5097 -14.5393,10.7143 -67.1179,49.2295 -77.9633,60.8367 -5.41445,5.79352 -7.42789,5.91633 -13.3572,10.6943 -4.48744,3.61475 -6.30721,6.82209 -10.7321,10.5821 -17.2034,14.6137 -32.208,29.7895 -48.3273,45.0905 -8.56746,8.13171 -13.0903,15.4899 -22.2872,23.2248 -9.08588,7.64163 -14.3834,15.0258 -21.7405,23.8921 -4.36344,5.25621 -6.96616,7.24603 -11.0852,12.7231l-40.9207 49.9664c-3.20261,4.0198 -6.39696,7.81995 -9.41653,12.1279 -3.72221,5.30935 -6.56111,8.10573 -10.4605,13.421 -97.9289,133.459 -192.347,336.956 -214.764,539.075 -25.1816,227.056 3.90289,435.721 90.1609,625.117 31.9399,70.1292 78.6175,156.883 125.645,219.039l61.5747 77.3244c3.36676,4.28786 6.68982,6.75359 10.2786,11.0143l115.145 112.26c8.81427,9.75309 64.599,50.5557 78.2526,60.6182 50.7435,37.4004 85.8376,57.1829 142.386,87.2877 170.733,90.8954 401.388,144.069 598.859,128.18 79.6579,-6.40877 233.095,-29.9548 303.171,-62.2207l-28.0559 -66.0539z"/>
   <path id="_469681472" class="fil1" d="M2174.03 941.644c51.7933,-12.5766 76.6785,26.2964 77.4697,73.4983 1.65681,98.9161 0.0566834,209.895 0.0566834,310.25 0,23.5307 2.76095,51.1013 -4.74606,72.0836 -3.39864,9.49683 -8.07621,19.6739 -13.9866,25.53 -26.9223,26.6707 -69.1219,17.8895 -85.7915,-0.0200754 -13.3076,-14.2984 -17.2861,-35.9267 -17.9521,-59.9368 -1.40646,-50.649 -0.0673116,-103.34 -0.0673116,-154.216 0,-52.0035 0,-104.007 0,-156.01 0,-52.1393 -2.57083,-99.6235 45.0173,-111.179zm-136.1 430.371c5.53844,72.2288 37.5598,119.985 102.971,134.205 33.8058,7.34877 72.4461,6.85043 105.793,-1.34505 116.027,-28.5177 96.4929,-158.181 96.4929,-260.178 0,-39.4505 0,-78.9021 0,-118.353 0,-101.96 18.7646,-227.301 -102.709,-254.087 -47.4334,-10.4605 -107.507,-6.96025 -147.665,21.4972 -14.2086,10.0696 -19.4991,15.8761 -29.2581,29.9725 -34.8804,50.3904 -26.1747,142.777 -26.1747,211.584 0,50.1105 -2.38779,198.397 0.550302,236.704z"/>
   <path id="_469060344" class="fil1" d="M694.281 1203.45l119.188 0 -0.207839 296.559 89.6047 0.415678 0.44402 -623.904c-12.4326,-2.82118 -75.611,-2.21774 -90.1314,-0.414497l0.0673116 254.713 -118.74 0 -0.224372 -254.636c-4.78857,-2.38307 -78.3613,-0.891583 -89.8361,-0.891583l0.0153518 625.159 89.8208 0.673116 0 -297.674z"/>
   <polygon id="_469060368" class="fil1" points="1385.67,947.474 1504.06,947.474 1504.63,1500.45 1593.56,1501.68 1594.47,875.295 1296.04,875.295 1296.05,1501.68 1385.64,1500.24 "/>
   <polygon id="_469060392" class="fil1" points="1761.16,947.917 1879.88,947.494 1880.12,1500.45 1969.49,1500.43 1969.94,876.412 1671.53,876.412 1671.53,1500.24 1761.12,1500.45 "/>
   <path id="_45489280" class="fil2" d="M1839.95 1933.26c-22.4384,20.8028 -56.5358,44.8543 -80.7928,62.4946 -26.5503,19.3066 -56.4201,36.229 -87.2783,53.9307 -199.767,114.59 -473.094,151.097 -701.399,96.226 -77.2028,-18.5556 -143.792,-41.9009 -210.493,-74.1951 -61.9325,-29.9867 -141.301,-79.1702 -194.593,-123.635l-55.7233 -49.572c-42.0272,-37.9129 -53.0049,-56.6421 -85.3204,-91.6961l-45.4778 -59.8081c-18.2934,-25.0919 -37.2327,-57.5289 -54.2472,-86.9842 -71.3077,-123.449 -116.421,-280.048 -124.699,-441.791 -8.03251,-156.958 31.3873,-345.87 95.299,-469.316 21.6188,-41.758 25.3115,-51.204 50.1943,-93.3824 26.3483,-44.663 56.5429,-84.3036 88.5832,-124.476 18.1989,-22.8163 68.0024,-72.85 87.048,-90.057l56.2642 -48.9438c69.1148,-60.4257 238.738,-153.133 322.506,-171.008 -2.21892,-6.61543 -15.9788,-51.4343 -19.7282,-56.4862l-108.944 40.8215c-55.6112,23.1115 -145.965,74.319 -191.623,109.882 -45.8876,35.7436 -57.7675,43.4785 -102.645,84.0497l-74.0096 76.5946c-3.91706,4.38588 -4.40714,6.90711 -8.33364,10.9942 -14.7885,15.3955 -28.0134,32.0438 -40.8038,50.0916 -21.8302,30.8051 -40.929,56.9657 -60.6997,89.9956 -227.822,380.624 -194.302,858.159 73.2869,1197.18l51.0033 61.5358c27.6391,30.8063 99.5231,97.4175 136.105,124.669 202.931,151.183 420.896,225.865 680.736,218.417 202.026,-5.78997 424.449,-81.3856 582.995,-203.739l30.6055 -24.3408c9.44724,-7.22832 24.0279,-16.5988 30.7413,-26.1559l-34.1518 -37.3685c-10.8643,-10.3235 7.22595,6.4808 -2.24726,-2.01935l-2.15751 -1.9048z"/>
   <path id="_45492232" class="fil3" d="M1562.37 2001.35c-18.2863,5.75455 -37.0202,15.0046 -55.2781,22.2624 -17.6108,6.99922 -39.1257,13.16 -57.5537,18.9334 -39.3371,12.3239 -81.1801,20.4084 -123.631,27.4371 -231.971,38.4066 -474.948,-35.348 -661.73,-172.822 -31.8395,-23.4351 -88.5112,-73.3247 -109.862,-98.3871 -10.268,-12.0535 -27.2777,-27.4277 -36.2774,-40.2381 -4.60198,-6.55166 -2.90975,-4.79802 -8.71744,-10.4156 -15.5502,-15.0424 -69.4455,-95.2659 -83.9765,-121.807 -59.8105,-109.238 -98.5004,-205.395 -114.361,-338.211 -25.9941,-217.677 20.2679,-423.094 136.317,-604.851 10.3317,-16.1831 19.7695,-30.328 31.131,-45.4341l32.0238 -42.2126c20.9386,-21.7157 70.9688,-80.4834 93.8878,-97.5474l30.6858 -26.7062c70.3288,-54.1138 126.697,-93.5194 222.579,-133.963 252.087,-106.331 494.557,-89.4405 740.669,24.4778 32.3863,14.9904 66.8463,38.0051 94.6436,56.0115 8.73987,5.66244 14.4684,9.68578 22.5801,15.7214l64.1267 49.1315c6.00018,-3.81196 21.8089,-22.4018 24.0349,-27.7158l-44.9936 -35.8676c-83.1841,-59.9344 -159.095,-104.28 -258.945,-138.215 -221.832,-75.3925 -467.044,-68.3968 -674.57,19.1637 -39.48,16.6578 -72.073,34.0148 -107.466,52.875 -24.838,13.2344 -72.5985,44.1753 -96.0382,61.9219l-45.3373 36.0436c-20.4722,17.4172 -85.6109,79.1678 -99.8561,98.7638 -6.07339,8.35608 -11.4512,11.7311 -17.9096,20.3482l-18.0525 22.5954c-37.3863,46.2336 -79.9,117.898 -106.355,171.31 -119.549,241.375 -120.683,547.072 -14.9526,784.274 27.2777,61.1968 74.4348,147.154 117.912,200.338 3.18962,3.90171 6.5552,7.76799 9.57714,11.9425l26.8349 33.0925c21.0591,25.8618 91.6677,93.6989 120.903,115.896l94.4511 65.9039c184.778,115.67 426.499,166.978 642.906,130.917 112.841,-18.8047 143.781,-31.5561 245.706,-72.1096l-15.1049 -32.8587z"/>
   <path id="_45492280" class="fil1" d="M1160.28 1332.11c0,23.3465 2.85897,79.4997 -19.8097,95.3935 -25.1556,17.638 -64.8175,13.3796 -78.4085,-10.9682 -15.3931,-27.5753 -9.54171,-177.198 -9.54171,-220.259 0,-38.2554 0,-76.5108 0,-114.765 0,-42.6141 -9.57477,-122.672 32.9047,-139.409 13.0998,-5.16055 34.9477,-5.08734 47.2539,2.02525 28.9168,16.7133 27.8233,54.3405 27.8233,85.6085l89.842 0.235 -11.4205 -88.0612c-10.3683,-24.2345 -24.7895,-40.8581 -43.9981,-52.9033 -41.0872,-25.765 -114.321,-29.0408 -160.981,-7.41136 -44.1257,20.4544 -66.6066,61.5771 -71.6301,123.612 -2.90621,35.8818 -2.21302,356.398 1.56588,387.598 12.0027,99.1051 89.2965,128.534 172.964,116.752 13.1848,-1.85638 26.1535,-5.50302 37.7724,-10.1995 33.7573,-13.6465 54.8294,-40.2464 66.7117,-78.4758 8.75641,-28.1705 8.78829,-57.5833 8.78829,-88.7721l-89.8361 0z"/>
   <path id="_45493696" class="fil2" d="M428.41 1486.65c-3.56869,-6.59653 -1.04864,-1.89063 -3.39156,-4.94917 2.98415,18.5567 28.8471,66.4011 37.7122,85.6097 19.7105,42.7039 43.1491,76.6065 68.9306,112.952 4.77085,6.72525 7.86955,10.5844 13.245,17.8694l39.6855 48.9142c6.02852,6.62133 9.52636,8.68201 15.2537,15.7462 12.866,15.8678 30.1402,32.4418 45.7471,45.3952 6.92364,5.74628 8.67729,9.41063 16.0957,14.8995l24.662 20.7745c7.53063,7.20352 50.4695,37.8775 59.044,43.8824 262.774,184.044 600.836,196.739 877.417,33.8624 9.76372,-5.74864 27.7383,-14.6798 36.262,-21.9105l-20.954 -26.6199c-26.1122,15.7273 -46.6516,28.7633 -73.9825,42.4358 -25.5217,12.7691 -53.0521,25.1202 -81.2321,36.0908 -188.04,73.2078 -408.118,64.6474 -588.069,-5.1452 -59.1527,-22.9414 -141.446,-66.2511 -190.011,-104.344 -15.5478,-12.1964 -50.3136,-39.1293 -62.7934,-51.9846 -9.75781,-10.0507 -19.8923,-17.4857 -30.3622,-27.1856 -19.5144,-18.0808 -65.8874,-73.4251 -81.8036,-95.2092 -3.83204,-5.24558 -8.16359,-11.574 -11.6815,-17.0511 -3.93359,-6.12535 -7.69477,-10.836 -11.7346,-16.9979 -15.7237,-23.9794 -29.5935,-46.4237 -43.7183,-73.4534 -6.96734,-13.3336 -13.0573,-24.8321 -19.1188,-38.3971l-15.2018 -35.1851z"/>
   <path id="_45492976" class="fil2" d="M432.352 845.861c4.94681,-5.78997 3.49075,-4.81809 6.89058,-12.814 2.06304,-4.85234 4.38116,-9.54289 6.84098,-14.6456 4.8051,-9.97156 9.38347,-18.5886 14.4803,-28.5803 9.18153,-17.9993 20.7379,-39.8177 31.1712,-54.9593 6.02261,-8.74342 9.77671,-16.2445 15.7769,-24.9478 2.9558,-4.28786 6.06158,-7.99118 9.14611,-12.3145l46.3564 -61.374 39.8638 -43.9403c19.4554,-21.1854 56.1248,-51.9692 79.8681,-70.8495 4.97161,-3.95249 6.79374,-5.73683 11.7795,-9.70704 4.5701,-3.64073 6.82327,-4.5394 12.5377,-9.05163 72.1934,-57.0011 177.599,-103.921 272.813,-131.534 118.89,-34.4801 188.921,-24.8143 310.812,-22.3451l5.52545 -33.9286c-60.4328,-5.14166 -104.096,-8.52849 -165.043,-1.24467 -97.5356,11.6555 -184.941,37.3402 -271.456,78.4203 -72.902,34.6159 -126.92,71.7848 -186.251,120.143 -4.77794,3.89344 -6.20802,6.79847 -10.8856,10.5644 -21.4499,17.266 -63.3343,56.4283 -78.3932,77.2264 -4.58073,6.32611 -4.84879,5.23377 -10.2857,11.2068l-29.8922 37.1324c-5.75337,7.73374 -12.2165,16.1111 -18.2379,24.8214 -12.1645,17.5931 -22.8446,34.9583 -34.5604,54.0276 -11.5327,18.774 -21.2397,36.0589 -31.6152,56.8558 -8.47771,16.992 -22.7466,44.0147 -27.2411,61.8381z"/>
  </g>
 </g>
</svg>
