<svg width="96" height="103" viewBox="0 0 96 103" fill="none" xmlns="http://www.w3.org/2000/svg">
<path d="M0.849976 64.1722L15.1477 0.0792236L81.7037 39.0344L67.1589 102.386L0.849976 64.1722Z" fill="#BFE8E8"/>
<path d="M5.96085 61.963L18.2278 7.4751L75.3228 40.3929L62.85 94.7436L5.96085 61.963Z" fill="#1B6D8D"/>
<path d="M18.2905 25.9236L19.9165 18.7061L27.477 23.0696L25.8235 30.2665L18.2905 25.9236Z" fill="#D4FBFC"/>
<path d="M15.8276 36.2766L17.4468 29.0659L25.0073 33.4225L23.3538 40.6194L15.8276 36.2766Z" fill="#D4FBFC"/>
<path d="M12.8641 46.6297L14.4901 39.419L22.0506 43.7756L20.3972 50.9725L12.8641 46.6297Z" fill="#D4FBFC"/>
<path d="M10.4002 56.9828L12.0262 49.7722L19.5867 54.1287L17.9333 61.3256L10.4002 56.9828Z" fill="#D4FBFC"/>
<path d="M29.1365 31.8372L30.7556 24.6265L38.3162 28.9831L36.6696 36.18L29.1365 31.8372Z" fill="#D4FBFC"/>
<path opacity="0.59" d="M26.6665 42.1971L28.2925 34.9796L35.853 39.3362L34.1996 46.5331L26.6665 42.1971Z" fill="#D4FBFC"/>
<path d="M23.7091 52.5492L25.3351 45.3317L32.8956 49.6883L31.2422 56.8852L23.7091 52.5492Z" fill="#D4FBFC"/>
<path d="M21.2468 62.9018L22.8728 55.6843L30.4333 60.0409L28.7798 67.2378L21.2468 62.9018Z" fill="#D4FBFC"/>
<path d="M39.9831 37.7589L41.6022 30.5414L49.1628 34.898L47.5162 42.0949L39.9831 37.7589Z" fill="#D4FBFC"/>
<path d="M37.5131 48.1116L39.1391 40.8941L46.6995 45.2575L45.0461 52.4544L37.5131 48.1116Z" fill="#D4FBFC"/>
<path d="M34.5567 58.4651L36.1827 51.2477L43.7432 55.6111L42.0898 62.808L34.5567 58.4651Z" fill="#D4FBFC"/>
<path d="M32.0939 68.8178L33.7199 61.6003L41.2804 65.9637L39.6269 73.1607L32.0939 68.8178Z" fill="#D4FBFC"/>
<path d="M50.8302 43.6718L52.4493 36.4543L60.0098 40.8178L58.3632 48.0147L50.8302 43.6718Z" fill="#D4FBFC"/>
<path d="M48.3607 54.0248L49.9866 46.8141L57.5471 51.1707L55.8937 58.3676L48.3607 54.0248Z" fill="#D4FBFC"/>
<path d="M45.4028 64.3768L47.0288 57.1662L54.5893 61.5227L52.9358 68.7196L45.4028 64.3768Z" fill="#D4FBFC"/>
<path opacity="0.59" d="M42.9404 74.73L44.5664 67.5193L52.127 71.8759L50.4735 79.0728L42.9404 74.73Z" fill="#D4FBFC"/>
<path d="M61.6767 49.5863L63.2958 42.3757L70.8563 46.7323L69.2097 53.9292L61.6767 49.5863Z" fill="#D4FBFC"/>
<path d="M59.2072 59.9458L60.8331 52.7283L68.3937 57.0849L66.7402 64.2818L59.2072 59.9458Z" fill="#D4FBFC"/>
<path d="M56.2503 70.2994L57.8763 63.082L65.4368 67.4385L63.7833 74.6354L56.2503 70.2994Z" fill="#D4FBFC"/>
<path d="M53.7869 80.6521L55.4129 73.4346L62.9735 77.7912L61.32 84.9881L53.7869 80.6521Z" fill="#D4FBFC"/>
<path d="M25.2542 16.6004C25.527 16.6004 25.7481 15.9369 25.7481 15.1185C25.7481 14.3001 25.527 13.6366 25.2542 13.6366C24.9814 13.6366 24.7602 14.3001 24.7602 15.1185C24.7602 15.9369 24.9814 16.6004 25.2542 16.6004Z" fill="#B52828"/>
<path d="M39.5517 24.9834C39.8245 24.9834 40.0457 24.32 40.0457 23.5015C40.0457 22.6831 39.8245 22.0196 39.5517 22.0196C39.2789 22.0196 39.0577 22.6831 39.0577 23.5015C39.0577 24.32 39.2789 24.9834 39.5517 24.9834Z" fill="#B52828"/>
<path d="M54.3437 33.3677C54.6165 33.3677 54.8377 32.7042 54.8377 31.8858C54.8377 31.0673 54.6165 30.4039 54.3437 30.4039C54.0709 30.4039 53.8497 31.0673 53.8497 31.8858C53.8497 32.7042 54.0709 33.3677 54.3437 33.3677Z" fill="#B52828"/>
<path d="M69.6292 42.2388C69.902 42.2388 70.1231 41.5753 70.1231 40.7569C70.1231 39.9384 69.902 39.275 69.6292 39.275C69.3564 39.275 69.1352 39.9384 69.1352 40.7569C69.1352 41.5753 69.3564 42.2388 69.6292 42.2388Z" fill="#B52828"/>
<path d="M81.9498 38.7874L95.7536 86.1127L67.1581 102.386L81.9498 38.7874Z" fill="#1B6D8D"/>
<path d="M94.9242 83.7457L81.9574 39.2813L73.3472 76.3018C80.7225 78.9638 87.1304 80.9397 94.9242 83.7457Z" fill="#134C62"/>
<path d="M81.6838 46.9036L92.8325 85.1316L69.7392 98.2699L81.6838 46.9036ZM81.4574 38.7874L66.6656 102.386L95.2612 86.1195L81.4574 38.7874Z" fill="#D4FBFC"/>
<path d="M25.4461 14.981C22.4685 13.1149 22.2971 8.75836 24.1838 6.04837C26.9967 1.99368 31.1611 4.93005 31.5384 8.89555C31.6276 9.83547 33.1095 9.84233 33.0203 8.89555C32.6087 4.52526 28.4511 0.415719 24.2523 3.8255C20.4721 6.89225 20.4995 13.6294 24.7051 16.264C25.5147 16.7648 26.2557 15.4818 25.4461 14.981Z" fill="#DC3333"/>
<path d="M39.7431 23.3648C36.7655 21.4987 36.594 17.1421 38.4807 14.4321C41.2936 10.3774 45.4581 13.3138 45.8354 17.2793C45.9246 18.2193 47.4065 18.2261 47.3173 17.2793C46.9057 12.9091 42.7481 8.79947 38.5493 12.2093C34.769 15.276 34.7965 22.0132 39.0021 24.6478C39.8117 25.1486 40.5526 23.8656 39.7431 23.3648Z" fill="#DC3333"/>
<path d="M54.5345 31.7419C51.557 29.8758 51.3855 25.5192 53.2722 22.8092C56.0851 18.7545 60.2495 21.6909 60.6269 25.6564C60.7161 26.5963 62.198 26.6032 62.1088 25.6564C61.6971 21.2861 57.5396 17.1766 53.3408 20.5864C49.5605 23.6531 49.5879 30.3903 53.7936 33.0249C54.5963 33.5257 55.3441 32.2496 54.5345 31.7419Z" fill="#DC3333"/>
<path d="M69.8211 40.6201C66.8435 38.754 66.672 34.3975 68.5587 31.6875C71.3716 27.6328 75.536 30.5692 75.9134 34.5347C76.0026 35.4746 77.4845 35.4815 77.3953 34.5347C76.9837 30.1644 72.8261 26.0548 68.6273 29.4646C64.847 32.5314 64.8745 39.2686 69.0801 41.9031C69.8828 42.404 70.6238 41.121 69.8211 40.6201Z" fill="#DC3333"/>
<path d="M27.2227 40.5368C27.5315 41.3258 27.8402 42.1148 28.142 42.9038C28.3822 43.5144 29.0271 43.878 29.6514 43.5213C32.4643 41.909 35.2841 40.3036 38.097 38.6913C39.2496 38.0327 38.2136 36.2558 37.061 36.9144C34.2481 38.5267 31.4283 40.1321 28.6154 41.7443C29.1163 41.9502 29.624 42.156 30.1248 42.3618C29.8161 41.5728 29.5073 40.7838 29.2054 39.9949C28.7321 38.7668 26.7356 39.3019 27.2227 40.5368Z" fill="#DC3333"/>
<path d="M43.4894 73.5707C43.7981 74.3597 44.1069 75.1487 44.4087 75.9376C44.6489 76.5483 45.2938 76.9118 45.9181 76.5551C48.731 74.9428 51.5508 73.3374 54.3637 71.7251C55.5163 71.0665 54.4803 69.2896 53.3277 69.9482C50.5148 71.5605 47.695 73.1659 44.8821 74.7782C45.383 74.984 45.8907 75.1898 46.3915 75.3956C46.0828 74.6066 45.774 73.8177 45.4721 73.0287C44.9987 71.8006 43.0091 72.3358 43.4894 73.5707Z" fill="#DC3333"/>
</svg>
