<svg width="112" height="75" viewBox="0 0 112 75" fill="none" xmlns="http://www.w3.org/2000/svg">
<mask id="mask0_1_384" style="mask-type:luminance" maskUnits="userSpaceOnUse" x="0" y="27" width="5" height="16">
<path d="M0.717069 36.8481L0.746338 27.2867C0.739022 29.4302 2.15091 31.5736 4.98204 33.205L4.9528 42.7665C2.12898 41.1351 0.709754 38.9916 0.717069 36.8481Z" fill="white"/>
</mask>
<g mask="url(#mask0_1_384)">
<path d="M4.98204 33.205L4.9528 42.7665C2.12167 41.1351 0.709754 38.9916 0.717069 36.8481L0.746338 27.2867C0.739022 29.4229 2.15091 31.5736 4.98204 33.205Z" fill="#12495F"/>
</g>
<path d="M111.672 37.8722C111.665 37.9453 111.665 38.0185 111.658 38.0917C111.65 38.1575 111.643 38.216 111.636 38.2819C111.628 38.355 111.614 38.4282 111.599 38.494C111.584 38.5598 111.577 38.6184 111.562 38.6842C111.548 38.7574 111.533 38.8232 111.511 38.8964C111.497 38.9622 111.475 39.0207 111.453 39.0866C111.431 39.1524 111.409 39.2256 111.387 39.2914C111.365 39.3499 111.343 39.4158 111.314 39.4743C111.284 39.5475 111.255 39.6206 111.219 39.6938C111.189 39.7523 111.16 39.8181 111.131 39.8767C111.094 39.9498 111.058 40.023 111.021 40.0888C110.992 40.1474 110.955 40.2059 110.926 40.2644C110.875 40.3522 110.824 40.4326 110.772 40.5204C110.736 40.5716 110.707 40.6229 110.67 40.6741C110.604 40.7692 110.538 40.857 110.465 40.9521C110.436 40.996 110.407 41.0325 110.377 41.0764C110.26 41.2227 110.136 41.3691 110.004 41.5081C109.968 41.5446 109.931 41.5812 109.902 41.6178C109.799 41.7275 109.69 41.8372 109.573 41.9397C109.521 41.9909 109.47 42.0348 109.419 42.086C109.353 42.1445 109.28 42.2103 109.214 42.2689C109.148 42.3274 109.082 42.3786 109.017 42.4298C108.943 42.4883 108.87 42.5469 108.79 42.6054C108.717 42.6566 108.651 42.7151 108.578 42.7663C108.497 42.8248 108.417 42.8834 108.336 42.9346C108.263 42.9858 108.183 43.037 108.11 43.0882C108.022 43.1467 107.934 43.1979 107.846 43.2564C107.736 43.3223 107.627 43.3955 107.517 43.4613L107.488 53.0228C107.546 52.9862 107.605 52.9569 107.663 52.9203C107.714 52.8911 107.766 52.8545 107.824 52.8179C107.912 52.7667 108 52.7082 108.08 52.657C108.161 52.6058 108.234 52.5546 108.307 52.5033C108.387 52.4448 108.468 52.3936 108.548 52.3351C108.622 52.2839 108.695 52.2253 108.761 52.1741C108.834 52.1156 108.914 52.0571 108.987 51.9986C109.053 51.9474 109.119 51.8889 109.185 51.8303C109.258 51.7718 109.324 51.7133 109.39 51.6474C109.419 51.6255 109.448 51.5962 109.478 51.5743C109.499 51.5523 109.521 51.5231 109.551 51.5011C109.66 51.3914 109.77 51.289 109.873 51.1792C109.909 51.1427 109.946 51.1061 109.975 51.0695C110.107 50.9232 110.231 50.7842 110.348 50.6379C110.355 50.6306 110.363 50.6232 110.363 50.6159C110.392 50.5793 110.414 50.5501 110.436 50.5135C110.509 50.4184 110.575 50.3306 110.641 50.2355C110.677 50.1843 110.707 50.1331 110.743 50.0819C110.794 49.9941 110.853 49.9137 110.897 49.8259C110.911 49.8039 110.926 49.7819 110.941 49.7527C110.963 49.7161 110.977 49.6795 110.992 49.6503C111.028 49.5771 111.065 49.504 111.102 49.4381C111.131 49.3796 111.16 49.3211 111.189 49.2552C111.219 49.1821 111.255 49.1089 111.284 49.0358C111.299 49.0065 111.314 48.9699 111.328 48.9407C111.343 48.9114 111.35 48.8821 111.358 48.8529C111.38 48.787 111.402 48.7139 111.423 48.648C111.445 48.5822 111.46 48.5237 111.482 48.4579C111.504 48.392 111.519 48.3188 111.533 48.2457C111.541 48.2091 111.555 48.1725 111.562 48.1286C111.57 48.1067 111.57 48.0774 111.577 48.0555C111.592 47.9823 111.599 47.9092 111.614 47.8433C111.621 47.7775 111.628 47.719 111.636 47.6531C111.643 47.58 111.65 47.5068 111.65 47.4337C111.65 47.3898 111.658 47.3459 111.658 47.3093C111.658 47.2654 111.658 47.2288 111.658 47.1849L111.687 37.6234C111.687 37.7039 111.68 37.7844 111.672 37.8722Z" fill="url(#paint0_linear_1_384)"/>
<path d="M107.517 43.4537L107.488 53.0152L75.3502 71.6918L75.3722 62.1304L107.517 43.4537Z" fill="#1B6D8D"/>
<path d="M55.0863 62.1303L55.0571 71.6918L4.95268 42.766L4.98193 33.2045L55.0863 62.1303Z" fill="#134C62"/>
<path d="M74.1142 72.3285C74.202 72.2846 74.2897 72.248 74.3775 72.2041C74.7067 72.0432 75.0359 71.8749 75.3432 71.6993L75.3725 62.1379C75.0579 62.3208 74.736 62.489 74.4068 62.6427C74.319 62.6865 74.2312 62.7232 74.1435 62.7671C73.8435 62.906 73.5363 63.0377 73.2217 63.1621C73.1778 63.1767 73.1412 63.1987 73.0973 63.2133C72.7608 63.345 72.417 63.4547 72.0658 63.5644C71.8244 63.6376 71.5757 63.7107 71.3269 63.7766C71.1367 63.8278 70.9538 63.879 70.7636 63.9302C70.5003 63.996 70.2369 64.0472 69.9736 64.0984C69.7834 64.135 69.5931 64.1789 69.3956 64.2155C69.3151 64.2302 69.2347 64.2375 69.1542 64.2521C68.825 64.3033 68.4958 64.3545 68.1593 64.3911C68.0642 64.4057 67.9691 64.413 67.8667 64.4277C67.479 64.4716 67.0912 64.5008 66.7035 64.5228C66.6303 64.5301 66.5572 64.5301 66.4913 64.5301C66.228 64.5447 65.9646 64.5447 65.7013 64.5521C65.4379 64.5594 65.1745 64.5593 64.9185 64.5593C64.699 64.5593 64.4796 64.552 64.2601 64.5447C64.0187 64.5374 63.7773 64.5227 63.5358 64.5081C63.3164 64.4935 63.0969 64.4716 62.8701 64.4496C62.6287 64.4277 62.3946 64.3984 62.1532 64.3692C61.9411 64.3399 61.7216 64.3106 61.5094 64.2813C61.2534 64.2448 61.0047 64.1936 60.7486 64.1497C60.4853 64.0985 60.2219 64.0473 59.9585 63.9887C59.9 63.9741 59.8342 63.9595 59.7757 63.9448C59.4099 63.8571 59.0514 63.7619 58.6929 63.6522C58.5905 63.6229 58.4881 63.5864 58.393 63.5571C58.1004 63.462 57.8078 63.3669 57.5224 63.2572C57.442 63.2279 57.3542 63.1987 57.2737 63.1694C57.0104 63.067 56.7616 62.9572 56.5129 62.8475C56.3885 62.7963 56.2642 62.7451 56.1398 62.6865C55.7813 62.5183 55.4229 62.3354 55.0864 62.1379L55.0571 71.6993C55.3936 71.8969 55.7448 72.0798 56.1105 72.248C56.2276 72.3065 56.3593 72.3578 56.4836 72.409C56.6958 72.5041 56.9079 72.6065 57.1274 72.687C57.164 72.7016 57.2079 72.7162 57.2444 72.7309C57.3249 72.7601 57.4127 72.7894 57.4932 72.8186C57.7785 72.9211 58.0711 73.0235 58.3637 73.1186C58.4661 73.1478 58.5613 73.1844 58.6637 73.2137C58.7295 73.2356 58.7954 73.2576 58.8685 73.2795C59.1538 73.36 59.4538 73.4332 59.7464 73.5063C59.8049 73.5209 59.8708 73.5356 59.9293 73.5502C60.0756 73.5795 60.2146 73.616 60.3609 73.6453C60.4779 73.6673 60.6023 73.6819 60.7193 73.7111C60.9681 73.7623 61.2241 73.8062 61.4802 73.8428C61.5826 73.8574 61.685 73.8794 61.7874 73.894C61.8972 73.9086 62.0142 73.916 62.1239 73.9306C62.3654 73.9598 62.5995 73.9891 62.8409 74.0111C62.9579 74.0257 63.0676 74.0403 63.1847 74.0477C63.2944 74.055 63.3968 74.055 63.5066 74.0623C63.748 74.0769 63.9894 74.0916 64.2308 74.0989C64.3552 74.1062 64.4722 74.1135 64.5966 74.1208C64.6917 74.1208 64.7941 74.1208 64.8892 74.1208C65.1526 74.1208 65.416 74.1208 65.6793 74.1208C65.811 74.1208 65.9427 74.1208 66.067 74.1208C66.1987 74.1135 66.3304 74.1062 66.4621 74.0989C66.5353 74.0916 66.6084 74.0916 66.6816 74.0916C67.0108 74.0696 67.3326 74.0476 67.6618 74.0184C67.7277 74.0111 67.7862 74.0038 67.852 73.9964C67.9471 73.9891 68.0423 73.9745 68.1447 73.9599C68.4812 73.9233 68.8104 73.8721 69.1396 73.8209C69.2201 73.8062 69.3005 73.7989 69.381 73.7843C69.4176 73.777 69.4615 73.7697 69.498 73.7623C69.6517 73.7331 69.8053 73.6965 69.9589 73.6599C70.2223 73.6087 70.493 73.5502 70.749 73.4917C70.9392 73.4478 71.1221 73.3892 71.3123 73.338C71.561 73.2722 71.8098 73.2064 72.0512 73.1259C72.1024 73.1113 72.1609 73.0966 72.2121 73.082C72.5048 72.9869 72.7974 72.8845 73.0827 72.7748C73.1266 72.7601 73.1632 72.7382 73.207 72.7235C73.5143 72.5919 73.8142 72.4602 74.1142 72.3285Z" fill="url(#paint1_linear_1_384)"/>
<path d="M107.451 31.6973C113.07 34.9455 113.099 40.2054 107.517 43.4462L75.3798 62.1228C69.7907 65.371 60.712 65.371 55.0937 62.1228L4.98928 33.197C-0.629078 29.9489 -0.665654 24.689 4.92345 21.4409L37.0608 2.76424C42.6499 -0.483874 51.7358 -0.483874 57.3542 2.76424L107.451 31.6973Z" fill="#D4FBFC"/>
<path d="M107.064 31.6978L105.813 30.9735C100.721 32.1367 95.5636 32.9853 90.3842 33.6949C71.5246 36.2919 52.6651 36.687 33.7031 34.8727C22.8541 33.8339 12.0783 32.1733 1.33902 30.3224C2.04132 31.3685 3.12402 32.3488 4.58714 33.1901L54.6915 62.1159C60.3099 65.364 69.3958 65.364 74.9776 62.1159L107.115 43.4392C112.711 40.2058 112.682 34.9459 107.064 31.6978Z" fill="#C5EFEF"/>
<path d="M57.954 12.2018C60.529 13.6869 60.5437 16.101 57.9832 17.5934C56.6518 18.3689 54.8961 18.7346 53.1476 18.7054C55.2326 21.3975 54.384 24.6603 50.5872 26.8622L32.664 16.5107C36.4608 14.3087 42.0865 13.8039 46.7392 15.0037C46.6807 13.9941 47.3171 12.9699 48.6412 12.2018C51.2017 10.7094 55.3716 10.7094 57.954 12.2018Z" fill="#DC3333"/>
<path d="M99.9967 36.4745L97.8386 37.7328L71.2538 22.3847L73.4192 21.1264L99.9967 36.4745Z" fill="#B7D8D9"/>
<path d="M93.2741 40.382L91.116 41.6403L64.5312 26.2922L66.6966 25.0339L93.2741 40.382Z" fill="#B7D8D9"/>
<path d="M86.5582 44.2875L84.3928 45.5458L57.8153 30.1977L59.9734 28.9394L86.5582 44.2875Z" fill="#B7D8D9"/>
<path d="M79.8346 48.1941L77.6692 49.4524L22.5756 17.6443L24.7337 16.386L79.8346 48.1941Z" fill="#B7D8D9"/>
<path d="M73.1125 52.1001L70.9471 53.3584L15.8535 21.5502L18.0116 20.292L73.1125 52.1001Z" fill="#B7D8D9"/>
<path d="M66.389 56.0076L64.2309 57.2659L9.12994 25.4578L11.288 24.1995L66.389 56.0076Z" fill="#B7D8D9"/>
<defs>
<linearGradient id="paint0_linear_1_384" x1="107.488" y1="45.3159" x2="111.685" y2="45.3159" gradientUnits="userSpaceOnUse">
<stop stop-color="#1B6D8D"/>
<stop offset="0.2876" stop-color="#1A6988"/>
<stop offset="0.645" stop-color="#175D78"/>
<stop offset="1" stop-color="#134C62"/>
</linearGradient>
<linearGradient id="paint1_linear_1_384" x1="55.0594" y1="68.1252" x2="75.3758" y2="68.1252" gradientUnits="userSpaceOnUse">
<stop stop-color="#134C62"/>
<stop offset="0.1492" stop-color="#175E79"/>
<stop offset="0.2497" stop-color="#175D77"/>
<stop offset="0.5578" stop-color="#134C62"/>
<stop offset="1" stop-color="#1B6D8D"/>
</linearGradient>
</defs>
</svg>
