<svg width="108" height="117" viewBox="0 0 108 117" fill="none" xmlns="http://www.w3.org/2000/svg">
<path d="M48.0894 51.7856V0.217148L107.786 34.6821V86.0673L48.0894 51.7856Z" stroke="#FF3830" stroke-width="0.1711" stroke-miterlimit="10"/>
<path d="M45.5313 53.1223V1.55379L105.227 36.0187V87.404L45.5313 53.1223Z" fill="#D4FBFC"/>
<path d="M49.2565 50.9642V7.99837L101.51 38.1688L101.035 80.9718L49.2565 50.9642Z" fill="#134C62"/>
<path d="M105.228 87.4042L107.786 86.0676V34.6823L105.228 36.0189V87.4042Z" fill="#1A7591"/>
<path d="M105.227 36.0186L107.785 34.6821L48.089 0.217148L45.5313 1.55366L105.227 36.0186Z" fill="#1A7591"/>
<path d="M45.5318 53.1228L0.883446 78.9036L60.4169 113.274L105.228 87.4046L45.5318 53.1228Z" fill="#BAE5E5"/>
<path d="M0.883446 78.9027V81.5622L60.4169 116.102V113.273L0.883446 78.9027Z" fill="#238DB7"/>
<path d="M60.4175 116.102L107.786 89.059V86.067L60.4175 113.273V116.102Z" fill="#1A7591"/>
<path d="M25.4506 69.018L78.2335 98.7135L76.5238 99.6972C75.6283 100.199 74.1764 100.199 73.308 99.6972L24.4329 71.474C23.5374 70.972 23.5374 70.1374 24.4329 69.615L25.4506 69.018Z" fill="#1A7591"/>
<path d="M82.3172 96.3324L80.4787 97.3975L27.7297 67.702L29.5547 66.6437L82.3172 96.3324Z" fill="#1A7591"/>
<path d="M86.0215 94.1958L84.1829 95.2541L31.434 65.5586L33.2522 64.5003L86.0215 94.1958Z" fill="#1A7591"/>
<path d="M89.7255 92.0574L87.9005 93.1158L35.1515 63.4203L36.9562 62.362L89.7255 92.0574Z" fill="#1A7591"/>
<path d="M93.4432 89.914L91.6047 90.9792L38.8353 61.2837L40.6807 60.2186L93.4432 89.914Z" fill="#1A7591"/>
<path d="M96.1644 88.3335L95.3096 88.8153L42.5606 59.1401L43.9378 58.3395C44.813 57.8375 46.2649 57.8375 47.1604 58.3395L96.1712 86.4882C97.0532 86.997 97.0532 87.8315 96.1644 88.3335Z" fill="#1A7591"/>
<path opacity="0.23" d="M54.0261 10.923L66.5434 61.0124L101.015 81.169L101.51 38.1693L54.0261 10.923Z" fill="#E7E7E7"/>
<path d="M53.6466 91.5828C55.6209 92.7226 55.6277 94.5748 53.667 95.7146L48.0698 98.9711C46.1091 100.111 42.9069 100.111 40.9394 98.9711L26.2172 90.4702C24.2429 89.3304 24.2361 87.4783 26.1968 86.3385L31.794 83.082C33.7547 81.9422 36.9569 81.9422 38.9244 83.082L53.6466 91.5828ZM47.7374 98.7743L53.3345 95.5178C55.1121 94.4866 55.0985 92.804 53.3142 91.7728L38.592 83.2719C36.8077 82.2407 33.9039 82.2407 32.1264 83.2719L26.5293 86.5284C24.7517 87.5596 24.7653 89.2422 26.5496 90.2734L41.2718 98.7743C43.0561 99.8056 45.9599 99.8056 47.7374 98.7743Z" stroke="#1A7591" stroke-miterlimit="10"/>
</svg>
