<svg width="86" height="111" viewBox="0 0 86 111" fill="none" xmlns="http://www.w3.org/2000/svg">
<path d="M19.7516 52.7764L19.9001 87.4492L59.3444 110.367L59.1959 75.7008L19.7516 52.7764Z" fill="#A9D8D8"/>
<path d="M59.1963 75.701L59.3447 110.367L85.7328 95.1333L85.5844 60.4676L59.1963 75.701Z" fill="#88BAB9"/>
<path d="M19.7516 52.7766L59.1959 75.7009L85.584 60.4675L46.1397 37.5432L19.7516 52.7766Z" fill="#D4FBFC"/>
<path d="M19.7516 15.7921L19.9001 50.4578L59.3444 73.3822L59.1959 38.7164L19.7516 15.7921Z" fill="#A9D8D8"/>
<path d="M55.117 39.7838L55.2372 53.5752L23.9928 35.4153L23.8726 21.6239L55.117 39.7838Z" fill="#95C1BF"/>
<path d="M59.1963 38.7171L59.3447 73.3829L85.7328 58.1495L85.5844 23.4837L59.1963 38.7171Z" fill="#88BAB9"/>
<path d="M19.7516 15.7922L59.1959 38.7166L85.584 23.4832L46.1397 0.558809L19.7516 15.7922Z" fill="#D4FBFC"/>
<path d="M23.8726 36.8362L23.9928 50.6205L55.2372 68.7804L55.117 54.9891L23.8726 36.8362Z" fill="#D4FBFC"/>
<path d="M43.3268 52.0335C40.4427 50.3582 37.5656 48.6829 34.6815 47.0076C33.501 46.3219 32.4336 48.1527 33.6141 48.8384C36.4982 50.5137 39.3753 52.1891 42.2594 53.8644C43.4399 54.5571 44.5073 52.7192 43.3268 52.0335Z" fill="#88BAB9"/>
<path d="M22.643 57.7958L22.7561 71.5801L54.0005 89.7401L53.8874 75.9487L22.643 57.7958Z" fill="#D4FBFC"/>
<path d="M43.3266 72.9944C40.4425 71.3191 37.5655 69.6437 34.6814 67.9684C33.5009 67.2827 32.4335 69.1136 33.614 69.7993C36.4981 71.4746 39.3751 73.1499 42.2592 74.8252C43.4397 75.518 44.5071 73.6801 43.3266 72.9944Z" fill="#88BAB9"/>
<path d="M22.643 73.001L22.7561 86.7852L54.0005 104.945L53.8874 91.1609L22.643 73.001Z" fill="#D4FBFC"/>
<path d="M42.0965 88.2062C39.2124 86.5309 36.3353 84.8556 33.4513 83.1802C32.2707 82.4945 31.2034 84.3254 32.3839 85.0111C35.268 86.6864 38.145 88.3617 41.0291 90.037C42.2025 90.7227 43.277 88.8919 42.0965 88.2062Z" fill="#88BAB9"/>
<path d="M23.8874 21.7017L24.0005 35.4931L0.447052 49.2632V35.6981L23.8874 21.7017Z" fill="#9ACCCA"/>
<path d="M55.562 53.7596L31.5844 67.6004L0.44603 49.2638L23.8723 35.2887L55.562 53.7596Z" fill="#A9D8D8"/>
<path d="M46.6136 38.1795L46.6914 47.6588L25.195 35.1681L25.1172 25.6888L46.6136 38.1795Z" fill="#95C1BF"/>
<path d="M46.6272 38.1794L39.6785 42.1521L18.3306 29.4281L24.8339 25.4766L46.6272 38.1794Z" fill="#E84242"/>
<path d="M46.6134 38.1797L46.6912 47.9418L39.6788 52.0488V42.1524L46.6134 38.1797Z" fill="#A03535"/>
<path d="M39.9614 42.1525L39.9048 51.9004L18.4155 39.127L18.3307 29.3649L39.9614 42.1525Z" fill="#DC3333"/>
<path d="M42.0881 45.9833L42.1659 55.4697L20.6766 42.979L20.5917 33.4926L42.0881 45.9833Z" fill="#95C1BF"/>
<path d="M42.1105 45.9836L35.1618 49.9634L13.8139 37.2395L20.3172 33.2809L42.1105 45.9836Z" fill="#E84242"/>
<path d="M42.0896 45.9835L42.1673 55.7527L35.1621 59.8527V49.9633L42.0896 45.9835Z" fill="#A03535"/>
<path d="M35.4446 49.9629L35.3881 59.7108L13.8916 46.9374L13.8139 37.1682L35.4446 49.9629Z" fill="#DC3333"/>
<path d="M55.1179 39.7844L55.238 53.5757L31.6846 67.3459V53.7807L55.1179 39.7844Z" fill="#9ACCCA"/>
<path d="M0.44603 35.5999L0.566199 49.3913L31.8106 67.5441L31.6904 53.7598L0.44603 35.5999Z" fill="#D4FBFC"/>
<path d="M21.131 50.805C18.2469 49.1296 15.3699 47.4543 12.4858 45.779C11.3053 45.0933 10.2379 46.9242 11.4184 47.6098C14.3025 49.2852 17.1795 50.9605 20.0636 52.6358C21.2441 53.3215 22.3115 51.4906 21.131 50.805Z" fill="#88BAB9"/>
</svg>
