<svg width="60" height="103" viewBox="0 0 60 103" fill="none" xmlns="http://www.w3.org/2000/svg">
<path d="M34.4906 94.6622C31.9694 93.156 27.811 93.1069 25.2161 94.5722C23.8 95.3662 23.1369 96.4467 23.2351 97.5109C23.9227 102.553 29.9393 103.626 33.5083 101.653C35.2028 100.63 36.0786 99.3609 36.3324 97.5436C36.4388 96.5122 35.8249 95.4644 34.4906 94.6622Z" fill="#302E2E"/>
<path d="M38.7805 95.8651C33.6807 98.7302 25.5277 98.6483 20.5671 95.685C18.1277 94.228 16.9162 92.3452 16.9244 90.4707C16.9735 91.9032 17.1372 96.2744 22.2861 99.426C23.4485 100.138 29.6124 103.486 37.0205 99.6142C42.3904 96.5118 42.6114 92.0178 42.6769 90.5444C42.6769 92.4762 41.3754 94.4162 38.7805 95.8651Z" fill="#1A7591"/>
<path d="M39.672 83.1689C34.3758 80.0092 25.6743 79.9191 20.2308 82.9725C14.7872 86.0258 14.6644 91.0682 19.9525 94.2361C25.2487 97.3958 33.9502 97.4859 39.3937 94.4326C44.8373 91.3793 44.9601 86.3368 39.672 83.1689ZM38.788 94.0724C33.6882 96.9374 25.5351 96.8556 20.5745 93.8923C15.6139 90.929 15.7286 86.2058 20.8365 83.3408C25.9362 80.4758 34.0893 80.5576 39.0499 83.5209C44.0105 86.4841 43.8877 91.2074 38.788 94.0724Z" fill="url(#paint0_linear_1_261)"/>
<path d="M39.811 83.1694C32.5748 78.6672 18.0287 80.5008 15.8594 87.7452C13.2563 96.4631 28.5147 101.948 39.5246 96.2421C39.5491 96.2257 39.5818 96.2094 39.5573 96.2257C46.1714 92.1738 44.8371 86.2964 39.811 83.1694ZM39.3936 94.433C33.95 97.4864 25.2485 97.3963 19.9523 94.2366C14.6561 91.0769 14.7871 86.0344 20.2306 82.9729C25.6742 79.9196 34.3757 80.0097 39.6719 83.1694C44.9599 86.3373 44.8372 91.3797 39.3936 94.433Z" fill="#134C62"/>
<path d="M38.7968 92.3702C33.6888 95.2353 25.5358 95.1534 20.567 92.182C18.1359 90.7331 16.9243 88.8585 16.9243 86.984L16.9325 88.6866C16.9407 90.553 18.1522 92.4275 20.5752 93.8846C25.5358 96.8479 33.6888 96.9297 38.7886 94.0647C41.3671 92.6158 42.6769 90.6922 42.6932 88.7603L42.7096 87.0577C42.6851 88.9895 41.3835 90.9213 38.7968 92.3702Z" fill="#1A7591"/>
<path d="M39.6802 79.6658C34.384 76.5061 25.6825 76.4161 20.239 79.4694C14.7954 82.5227 14.6726 87.5651 19.9606 90.733C25.2568 93.8927 33.9583 93.9828 39.4019 90.9295C44.8455 87.8762 44.9683 82.8337 39.6802 79.6658ZM38.8125 90.5775C33.7046 93.4425 25.5351 93.3607 20.5746 90.3892C15.6058 87.4178 15.7286 82.6946 20.8365 79.8214C25.9444 76.9563 34.1139 77.0382 39.0745 80.0096C44.0351 82.9811 43.9205 87.7125 38.8125 90.5775Z" fill="url(#paint1_linear_1_261)"/>
<path d="M39.8198 79.6653C32.5835 75.1631 18.0374 76.9967 15.8681 84.2411C13.265 92.959 28.5234 98.4435 39.5333 92.738C39.5497 92.7298 39.5824 92.7134 39.566 92.7216C46.1802 88.6697 44.8541 82.7922 39.8198 79.6653ZM39.4023 90.9289C33.9587 93.9822 25.2572 93.8922 19.961 90.7325C14.6648 87.5727 14.7958 82.5303 20.2394 79.4688C25.6829 76.4155 34.3844 76.5055 39.6806 79.6653C44.9687 82.8332 44.8459 87.8756 39.4023 90.9289Z" fill="#134C62"/>
<path d="M20.6159 81.1474C17.8245 79.633 16.4411 77.6684 16.4411 75.7202V78.2823C16.4411 80.2387 17.8327 82.1951 20.6159 83.7095C26.2968 86.8037 35.6368 86.8856 41.4815 83.8978L41.4979 81.3438C35.6532 84.3316 26.2968 84.2416 20.6159 81.1474Z" fill="#1A7591"/>
<path d="M38.8127 88.8666C33.7048 91.7317 25.5353 91.6498 20.5747 88.6784C18.1354 87.2213 16.9239 85.3304 16.9239 83.4558L16.9157 85.1585C16.9075 87.0412 18.1272 88.9239 20.5666 90.381C25.5354 93.3524 33.6966 93.4343 38.8045 90.5693C41.3994 89.1122 42.7092 87.1722 42.7092 85.2321L42.7174 83.5295C42.7174 85.4777 41.4158 87.4177 38.8127 88.8666Z" fill="#1A7591"/>
<path d="M39.6884 76.1704C34.3922 73.0107 25.6907 72.9206 20.2472 75.974C14.8036 79.0273 14.6808 84.0697 19.9688 87.2376C25.265 90.3973 33.9665 90.4874 39.4101 87.4341C44.8618 84.3726 44.9847 79.3301 39.6884 76.1704ZM38.8289 87.0739C33.721 89.939 25.5433 89.8571 20.5746 86.8856C15.6058 83.9142 15.7204 79.1828 20.8365 76.3096C25.9445 73.4445 34.1221 73.5264 39.0909 76.4979C44.0597 79.4775 43.9369 84.2089 38.8289 87.0739Z" fill="url(#paint2_linear_1_261)"/>
<path d="M39.828 76.1622C32.5917 71.66 18.0456 73.4936 15.8763 80.738C13.2732 89.4559 28.5316 94.9404 39.5415 89.2349C39.5661 89.2185 39.5906 89.2104 39.5742 89.2185C46.1966 85.1666 44.8623 79.2892 39.828 76.1622ZM39.4105 87.4259C33.967 90.4792 25.2654 90.3891 19.9692 87.2294C14.673 84.0697 14.804 79.0272 20.2476 75.9657C25.6911 72.9124 34.3926 73.0025 39.6889 76.1622C44.9851 79.3301 44.8623 84.3725 39.4105 87.4259Z" fill="#134C62"/>
<path d="M38.8378 85.3794C33.7216 88.2526 25.544 88.1708 20.5752 85.1911C18.144 83.7341 16.9243 81.8595 16.9243 79.985L16.9325 81.6876C16.9407 83.5622 18.1522 85.4367 20.5834 86.8938C25.5522 89.8652 33.7216 89.9471 38.8378 87.0821C41.4245 85.6332 42.7342 83.7013 42.7505 81.7613L42.7669 80.0587C42.7342 81.9905 41.4327 83.9224 38.8378 85.3794Z" fill="#1A7591"/>
<path d="M39.8362 72.6586C32.5999 68.1564 18.0537 69.99 15.8845 77.2344C13.2814 85.9523 28.5398 91.4368 39.5497 85.7313C39.5742 85.7149 39.607 85.674 39.6397 85.6331C39.6234 85.6658 39.607 85.6986 39.5824 85.7068C46.2047 81.663 44.8704 75.7856 39.8362 72.6586ZM39.4269 83.9223C33.9833 86.9756 25.2818 86.8855 19.9856 83.7258C14.6894 80.5661 14.8204 75.5236 20.2639 72.4621C25.7075 69.4088 34.409 69.4989 39.7052 72.6586C44.9932 75.8265 44.8704 80.869 39.4269 83.9223Z" fill="#134C62"/>
<path d="M39.6971 72.6663C34.4009 69.5066 25.6994 69.4165 20.2559 72.4698C14.8123 75.5232 14.6895 80.5656 19.9775 83.7335C25.2737 86.8932 33.9752 86.9833 39.4188 83.93C44.8705 80.8685 44.9934 75.826 39.6971 72.6663ZM38.8458 83.578C33.7297 86.4512 25.552 86.3694 20.5833 83.3897C15.6145 80.4183 15.7291 75.6787 20.8452 72.8137C25.9613 69.9404 34.139 70.0223 39.1077 73.0019C44.0765 75.9734 43.9619 80.7048 38.8458 83.578Z" fill="url(#paint3_linear_1_261)"/>
<path d="M47.6238 68.1615C47.6399 62.4787 39.7037 57.8494 29.8979 57.8216C20.0921 57.7938 12.1299 62.3781 12.1138 68.0609C12.0977 73.7436 20.0338 78.3729 29.8396 78.4007C39.6454 78.4285 47.6077 73.8442 47.6238 68.1615Z" fill="white"/>
<path d="M44.7917 68.1537C44.8052 63.3796 38.135 59.4905 29.8934 59.4672C21.6519 59.4438 14.9598 63.295 14.9462 68.0691C14.9327 72.8431 21.6029 76.7322 29.8444 76.7556C38.086 76.7789 44.7781 72.9277 44.7917 68.1537Z" fill="#262628"/>
<path d="M42.2509 75.5078C35.2193 79.4534 23.972 79.3388 17.1369 75.2541C13.7725 73.2404 12.1026 70.6454 12.1108 68.0587L12.0944 74.0507C12.0862 76.6375 13.7561 79.2323 17.1205 81.246C23.9556 85.3308 35.2029 85.4454 42.2345 81.4998C45.8117 79.4943 47.6044 76.8257 47.6126 74.149L47.629 68.157C47.6208 70.8337 45.8199 73.5023 42.2509 75.5078Z" fill="#134C62"/>
<path opacity="0.94" d="M37.2248 1.31085C11.7178 -4.95948 -8.76304 21.8163 4.36699 44.491C5.83224 46.9303 7.11744 48.9686 8.23071 50.8513C7.11744 48.9686 5.83225 46.9303 4.37518 44.491C11.6114 56.4668 12.2008 57.4409 12.5365 67.5176C12.7247 76.2519 31.0118 80.8032 41.9726 74.6475C43.9617 73.526 45.3943 72.1999 46.2538 70.7838C46.8759 69.7605 47.2033 68.6882 47.2279 67.534C47.6454 57.2035 48.3493 56.4586 55.5446 44.581C65.9979 26.695 55.5774 5.82122 37.2248 1.31085Z" fill="#DDF6FF"/>
<path d="M23.7592 45.277C23.7019 45.277 23.6528 45.236 23.6282 45.1624C23.5955 45.0805 23.5628 44.9905 23.5382 44.9086C23.5055 44.8022 23.4727 44.6958 23.4318 44.6139C23.4236 44.5893 23.4072 44.5812 23.3908 44.5812C23.3663 44.5812 23.3172 44.6221 23.2926 44.7122C23.2844 44.7285 23.268 44.7367 23.2517 44.7367C23.2353 44.7285 23.2271 44.7121 23.2271 44.6958C23.2599 44.5894 23.3254 44.5239 23.3827 44.5239C23.4072 44.5239 23.4564 44.532 23.4891 44.5894C23.5382 44.6794 23.5709 44.7858 23.6037 44.9004C23.6282 44.9823 23.661 45.0723 23.6937 45.146C23.7101 45.1951 23.7428 45.2197 23.7674 45.2197C23.7919 45.2197 23.8165 45.1951 23.8329 45.1542C23.8902 45.015 23.9311 44.8431 23.972 44.663C23.9884 44.573 24.013 44.4911 24.0375 44.4011C24.0785 44.2292 24.1685 44.0327 24.234 44.0082C24.2504 44 24.2667 44 24.2831 44.0164C24.3486 44.0655 24.4059 44.221 24.4632 44.4093C24.5123 44.5484 24.5778 44.7531 24.6269 44.7694C24.6269 44.7694 24.6351 44.7695 24.6433 44.7613C24.7251 44.6712 24.7824 44.3847 24.8397 44.1309C24.9216 43.7462 24.9707 43.5252 25.0853 43.517C25.0853 43.517 25.0853 43.517 25.0935 43.517C25.1672 43.517 25.2326 43.6152 25.3063 43.8526C25.3227 43.9017 25.3309 43.9427 25.3472 43.9918C25.3882 44.1228 25.4209 44.2537 25.4782 44.2783C25.511 44.2537 25.5846 44.1146 25.6419 43.8772C25.6583 43.7953 25.6828 43.7217 25.6992 43.648C25.7401 43.4597 25.7811 43.2796 25.8466 43.1323C25.8711 43.0832 25.912 43.0504 25.953 43.0504C26.0103 43.0504 26.0676 43.1077 26.1085 43.1978C26.1331 43.2715 26.1576 43.3451 26.1822 43.427C26.2231 43.5498 26.2558 43.6644 26.305 43.738C26.3131 43.7544 26.3214 43.7544 26.3295 43.7544C26.3541 43.7544 26.4114 43.6971 26.4442 43.5825C26.4851 43.4515 26.5178 43.3124 26.5506 43.1814C26.5833 43.0586 26.6079 42.9194 26.6488 42.7967C26.6897 42.6575 26.7634 42.5593 26.8289 42.5511C26.8616 42.5429 26.8862 42.5593 26.9108 42.592C26.9844 42.7066 27.0499 42.854 27.1072 42.9849C27.1563 43.0914 27.2136 43.2305 27.2463 43.2469C27.2463 43.2469 27.2464 43.2387 27.2545 43.2387C27.361 43.0341 27.4183 42.7475 27.4674 42.5183C27.5329 42.2155 27.5738 42.019 27.6884 42.0354C27.8439 42.0599 27.8767 42.281 27.9176 42.502C27.9421 42.633 27.9667 42.7885 28.0158 42.813C28.024 42.813 28.0322 42.8212 28.0649 42.8049C28.1795 42.7394 28.2123 42.5102 28.2532 42.2728C28.2859 42.0354 28.3269 41.7652 28.4578 41.5933C28.4824 41.5606 28.5152 41.536 28.5479 41.5442C28.6134 41.5606 28.6461 41.6589 28.7034 41.8471C28.7526 42.0108 28.8099 42.2073 28.8999 42.2973C28.9408 42.2482 29.0063 42.0272 29.0636 41.8307C29.1209 41.6343 29.1864 41.4133 29.2601 41.2168C29.2928 41.1349 29.3419 41.094 29.3992 41.0858C29.4483 41.0858 29.4893 41.1186 29.522 41.1841C29.563 41.2659 29.5875 41.3642 29.6203 41.4542C29.653 41.5524 29.6857 41.6507 29.7185 41.7325C29.7267 41.7489 29.743 41.7734 29.7676 41.7734C29.7921 41.7734 29.8331 41.7407 29.8576 41.667C29.9067 41.5279 29.9395 41.3723 29.9804 41.2086C30.005 41.1104 30.0295 41.004 30.0541 40.8976C30.095 40.7502 30.1687 40.5865 30.2505 40.5701C30.2751 40.5619 30.2915 40.5701 30.3078 40.5865C30.3815 40.6602 30.4224 40.7993 30.4634 40.9385C30.4797 40.9958 30.4961 41.0531 30.5125 41.1022C30.5616 41.2332 30.6107 41.2987 30.6435 41.2987C30.6435 41.2987 30.6516 41.2987 30.6598 41.2905C30.7335 41.1841 30.7908 40.9303 30.8399 40.6847C30.9218 40.3164 30.9791 40.0954 31.0773 40.0544C31.1019 40.0462 31.1264 40.0462 31.151 40.0544C31.2329 40.0954 31.2737 40.2591 31.3229 40.4473C31.3638 40.5947 31.4293 40.8157 31.4866 40.8157C31.5439 40.8157 31.6339 40.4228 31.683 40.2181C31.7403 39.9807 31.7977 39.7516 31.855 39.6369C31.8795 39.5878 31.9204 39.5797 31.945 39.5878C32.0105 39.596 32.076 39.6697 32.1169 39.7843C32.1415 39.8498 32.1579 39.9153 32.1824 39.9807C32.2233 40.1117 32.2561 40.2345 32.3134 40.3082C32.3461 40.3082 32.4116 40.2345 32.4525 40.079C32.4853 39.9644 32.5098 39.8416 32.5426 39.727C32.5753 39.5796 32.608 39.4323 32.6572 39.2931C32.6899 39.1785 32.7554 39.1049 32.8209 39.1049C32.8454 39.1049 32.8864 39.1049 32.9191 39.1622C32.9682 39.2522 33.001 39.3586 33.0419 39.4814C33.0665 39.5633 33.091 39.6451 33.1237 39.7188C33.1483 39.7843 33.1811 39.8007 33.2056 39.8007C33.2302 39.8007 33.2465 39.7843 33.2629 39.7434C33.3529 39.5305 33.4184 39.2686 33.4757 39.0558C33.5576 38.7529 33.5985 38.6055 33.6558 38.581C33.6722 38.5728 33.6886 38.5728 33.705 38.581C33.8359 38.6546 33.8851 38.8757 33.926 39.0721C33.9505 39.1867 33.9833 39.3341 34.0242 39.3504C34.0324 39.3504 34.0488 39.3423 34.0651 39.3259C34.1961 39.1949 34.2288 38.9575 34.2534 38.7283C34.2861 38.4827 34.3189 38.2372 34.4662 38.098C34.5072 38.0653 34.5399 38.0489 34.5727 38.0653C34.6463 38.0898 34.6791 38.229 34.7118 38.4009C34.7527 38.5728 34.7936 38.7938 34.9001 38.8429C34.9328 38.8266 34.9901 38.5974 35.0392 38.4173C35.0965 38.1963 35.162 37.9261 35.2602 37.7133C35.2848 37.656 35.3257 37.6232 35.3748 37.6232C35.4321 37.6232 35.4894 37.6724 35.5222 37.7542C35.5549 37.8279 35.5795 37.9097 35.6041 37.9916C35.6368 38.1062 35.6777 38.2208 35.7186 38.3027C35.735 38.3272 35.7432 38.3272 35.7432 38.3272C35.776 38.3272 35.8251 38.2699 35.8578 38.1717C35.8988 38.0407 35.9315 37.9016 35.9642 37.7542C35.9888 37.6314 36.0215 37.5086 36.0543 37.394C36.0625 37.3777 36.0788 37.3695 36.0952 37.3695C36.1116 37.3777 36.1198 37.394 36.1198 37.4104C36.087 37.525 36.0543 37.6478 36.0297 37.7706C35.997 37.9097 35.9642 38.0571 35.9233 38.1962C35.8823 38.3108 35.8251 38.3927 35.7596 38.4009C35.735 38.4009 35.6941 38.4009 35.6695 38.3436C35.6204 38.2535 35.5877 38.1389 35.5468 38.0243C35.5222 37.9425 35.4976 37.8688 35.4649 37.7951C35.4403 37.7297 35.3994 37.7051 35.3748 37.7051C35.3585 37.7051 35.3339 37.7215 35.3257 37.7542C35.2357 37.9671 35.162 38.2372 35.1129 38.45C35.0392 38.7447 34.9983 38.892 34.9328 38.9248C34.9165 38.933 34.9001 38.933 34.8837 38.9248C34.7527 38.8593 34.7036 38.6301 34.6627 38.4336C34.6381 38.3108 34.6054 38.1635 34.5645 38.1553C34.5563 38.1553 34.5399 38.1635 34.5235 38.1799C34.3926 38.2945 34.3598 38.5401 34.3353 38.7693C34.3025 39.0148 34.2698 39.2604 34.1224 39.4077C34.0897 39.4405 34.0488 39.4569 34.016 39.4487C33.9424 39.4241 33.9096 39.3013 33.8687 39.1212C33.8278 38.9493 33.7786 38.7283 33.6804 38.671C33.6476 38.6874 33.5903 38.9166 33.5412 39.1049C33.4839 39.3177 33.4184 39.5878 33.3284 39.8007C33.3038 39.858 33.2629 39.8989 33.2138 39.8989C33.1565 39.8989 33.1074 39.8498 33.0664 39.7761C33.0337 39.7024 33.0092 39.6124 32.9846 39.5305C32.9519 39.4159 32.9191 39.3095 32.87 39.2277C32.8536 39.2031 32.8455 39.2031 32.8373 39.2031C32.8045 39.2031 32.7636 39.2604 32.7308 39.3504C32.6899 39.4814 32.6572 39.6288 32.6244 39.7761C32.5999 39.8907 32.5671 40.0135 32.5344 40.1363C32.5017 40.2672 32.4279 40.3982 32.3461 40.4146C32.3215 40.4228 32.2888 40.4064 32.2724 40.3819C32.207 40.3 32.1742 40.169 32.1333 40.0299C32.1169 39.9644 32.0924 39.8989 32.076 39.8416C32.0432 39.7434 31.9941 39.6943 31.9614 39.6943C31.9532 39.6943 31.945 39.6942 31.9368 39.7106C31.8795 39.817 31.8222 40.0544 31.7731 40.2754C31.6749 40.6847 31.6176 40.9221 31.5112 40.9221C31.3966 40.9221 31.3474 40.7257 31.2819 40.5046C31.241 40.3573 31.1919 40.1854 31.1428 40.1527C31.1346 40.1527 31.1346 40.1527 31.1264 40.1527C31.0609 40.1772 30.9873 40.4883 30.93 40.7338C30.8727 40.9876 30.8154 41.2414 30.7417 41.356C30.7171 41.3969 30.6844 41.3969 30.668 41.3969C30.5943 41.3887 30.5207 41.2659 30.4879 41.1595C30.4716 41.1022 30.4552 41.0449 30.4306 40.9876C30.3897 40.8484 30.3488 40.7257 30.2915 40.6602C30.2669 40.6684 30.1932 40.7666 30.1441 40.9467C30.1195 41.0531 30.095 41.1513 30.0705 41.2577C30.0295 41.4215 29.9968 41.5852 29.9477 41.7243C29.9149 41.8144 29.8576 41.8717 29.8003 41.8717C29.8003 41.8717 29.8003 41.8717 29.7921 41.8717C29.7512 41.8717 29.7103 41.8389 29.6857 41.7898C29.6448 41.6998 29.612 41.6015 29.5793 41.5033C29.5465 41.4133 29.522 41.315 29.4811 41.2332C29.4647 41.2004 29.4402 41.1759 29.4238 41.1759C29.3992 41.1759 29.3665 41.2086 29.3501 41.2577C29.2764 41.4542 29.211 41.6752 29.1537 41.8635C29.0472 42.2319 28.9981 42.3628 28.9408 42.3792C28.9244 42.3874 28.9081 42.3792 28.8917 42.371C28.7771 42.2728 28.7198 42.0681 28.6625 41.8799C28.6297 41.7816 28.5888 41.6261 28.5561 41.6261C28.5561 41.6261 28.5479 41.6261 28.5315 41.6507C28.4087 41.8144 28.3678 42.0763 28.3351 42.3055C28.2941 42.5675 28.2614 42.7967 28.114 42.8867C28.0731 42.9113 28.0322 42.9113 27.9994 42.8949C27.9176 42.854 27.893 42.7066 27.8603 42.5347C27.8275 42.3546 27.7948 42.1418 27.6884 42.1254C27.6392 42.1254 27.582 42.3792 27.541 42.5593C27.4919 42.7885 27.4265 43.075 27.32 43.2878C27.2955 43.3287 27.2709 43.3369 27.2545 43.3369C27.1891 43.3369 27.1481 43.2387 27.0581 43.0341C27.0008 42.9031 26.9353 42.7639 26.8616 42.6493C26.8535 42.6411 26.8534 42.6411 26.8453 42.6411C26.8207 42.6493 26.7552 42.7148 26.7143 42.8458C26.6815 42.9686 26.6488 43.0995 26.616 43.2223C26.5833 43.3615 26.5505 43.5007 26.5096 43.6316C26.4687 43.7544 26.4032 43.8444 26.3377 43.8526C26.3132 43.8526 26.2804 43.8526 26.2477 43.8035C26.1986 43.7135 26.1576 43.5989 26.1167 43.4761C26.0921 43.4024 26.0676 43.3287 26.0431 43.2551C26.0185 43.1814 25.9775 43.1487 25.953 43.1487C25.9284 43.1487 25.9121 43.1732 25.9121 43.1896C25.8466 43.3287 25.8056 43.5088 25.7647 43.6889C25.7483 43.7626 25.732 43.8445 25.7074 43.9181C25.6747 44.0655 25.5928 44.3192 25.511 44.3601C25.4946 44.3683 25.4782 44.3683 25.4619 44.3683C25.3718 44.3356 25.3309 44.1964 25.2817 44.0327C25.2654 43.9918 25.2572 43.9427 25.2408 43.9017C25.1508 43.6234 25.1017 43.6152 25.0935 43.6152C25.028 43.6152 24.9625 43.9509 24.9134 44.1719C24.8561 44.4502 24.7906 44.7285 24.7006 44.8349C24.6678 44.8677 24.6433 44.8677 24.6269 44.8677C24.545 44.8513 24.4959 44.704 24.414 44.4666C24.3649 44.3274 24.3076 44.1555 24.2585 44.1146C24.2258 44.1391 24.1521 44.2619 24.103 44.4584C24.0785 44.5484 24.0621 44.6385 24.0375 44.7203C23.9966 44.9004 23.9557 45.0723 23.8984 45.2197C23.8575 45.236 23.8083 45.277 23.7592 45.277Z" fill="#DC3333"/>
<path opacity="0.25" d="M39.4153 67.6009C39.4242 64.4544 35.0262 61.8911 29.5921 61.8757C24.158 61.8603 19.7455 64.3986 19.7366 67.5452C19.7277 70.6917 24.1257 73.2549 29.5598 73.2703C34.9939 73.2857 39.4064 70.7475 39.4153 67.6009Z" fill="#262628"/>
<path opacity="0.75" d="M32.322 54.6011C32.322 54.6175 32.322 54.6339 32.322 54.6421C32.3301 54.5357 32.3138 54.4211 32.281 54.3146L31.1432 50.9421C31.2332 51.1959 31.0941 51.4742 30.7503 51.6624C30.2018 51.9653 29.3341 51.9571 28.8021 51.6461C28.4746 51.4496 28.3519 51.1795 28.4419 50.9339L27.2877 54.2983C27.2549 54.4047 27.2386 54.5111 27.2386 54.6175C27.2386 54.6011 27.2386 54.593 27.2386 54.5766L27.2467 68.738C27.2467 69.1064 27.4841 69.4829 27.9671 69.7694C28.9494 70.3506 30.5538 70.367 31.5607 69.8022C32.0764 69.5157 32.3302 69.1309 32.3302 68.7462L32.322 54.6011Z" fill="#DC3333"/>
<path opacity="0.6" d="M30.7746 50.5412C30.2425 50.222 29.3748 50.2138 28.8264 50.5248C28.2779 50.8277 28.2698 51.3352 28.8018 51.6545C29.3339 51.9737 30.2016 51.9819 30.7501 51.6708C31.2985 51.3598 31.3067 50.8604 30.7746 50.5412Z" fill="#C4C4CC"/>
<path d="M29.2028 51.5645C29.0964 51.5645 29.0063 51.4744 29.0063 51.368V48.4703L23.751 48.2329C23.661 48.2247 23.5873 48.1592 23.5709 48.0692L22.9079 44.4592C22.8915 44.3528 22.957 44.2464 23.0634 44.23C23.1698 44.2136 23.268 44.2791 23.2926 44.3855L23.9229 47.8481L29.211 48.0937C29.3174 48.1019 29.3992 48.1838 29.3992 48.2902V51.3762C29.3992 51.4745 29.3174 51.5645 29.2028 51.5645Z" fill="#333333"/>
<path d="M30.2831 50.9421C30.1767 50.9421 30.0867 50.8521 30.0867 50.7457V47.6596C30.0867 47.6105 30.103 47.5696 30.1358 47.5368L35.5384 41.0455L36.1932 36.7234C36.2096 36.617 36.3079 36.5433 36.4143 36.5597C36.5207 36.576 36.5944 36.6743 36.578 36.7807L35.915 41.1601C35.9068 41.1928 35.8985 41.2256 35.874 41.2583L30.4796 47.7333V50.7538C30.4796 50.8521 30.3895 50.9421 30.2831 50.9421Z" fill="#333333"/>
<defs>
<linearGradient id="paint0_linear_1_261" x1="24.9344" y1="80.2559" x2="34.6877" y2="97.1491" gradientUnits="userSpaceOnUse">
<stop stop-color="#7E7E82"/>
<stop offset="0.1812" stop-color="#87878B"/>
<stop offset="0.4765" stop-color="#9F9FA3"/>
<stop offset="0.8471" stop-color="#C5C5CB"/>
<stop offset="1" stop-color="#D7D7DD"/>
</linearGradient>
<linearGradient id="paint1_linear_1_261" x1="24.9443" y1="76.7541" x2="34.6976" y2="93.6473" gradientUnits="userSpaceOnUse">
<stop stop-color="#7E7E82"/>
<stop offset="0.1812" stop-color="#87878B"/>
<stop offset="0.4765" stop-color="#9F9FA3"/>
<stop offset="0.8471" stop-color="#C5C5CB"/>
<stop offset="1" stop-color="#D7D7DD"/>
</linearGradient>
<linearGradient id="paint2_linear_1_261" x1="24.9543" y1="73.2518" x2="34.7075" y2="90.145" gradientUnits="userSpaceOnUse">
<stop stop-color="#7E7E82"/>
<stop offset="0.1812" stop-color="#87878B"/>
<stop offset="0.4765" stop-color="#9F9FA3"/>
<stop offset="0.8471" stop-color="#C5C5CB"/>
<stop offset="1" stop-color="#D7D7DD"/>
</linearGradient>
<linearGradient id="paint3_linear_1_261" x1="24.9648" y1="69.7491" x2="34.718" y2="86.6422" gradientUnits="userSpaceOnUse">
<stop stop-color="#7E7E82"/>
<stop offset="0.1812" stop-color="#87878B"/>
<stop offset="0.4765" stop-color="#9F9FA3"/>
<stop offset="0.8471" stop-color="#C5C5CB"/>
<stop offset="1" stop-color="#D7D7DD"/>
</linearGradient>
</defs>
</svg>
