<svg width="111" height="73" viewBox="0 0 111 73" fill="none" xmlns="http://www.w3.org/2000/svg">
<path d="M0.438599 31.9637L0.459818 23.4064C0.452752 24.8762 1.42789 26.346 3.36405 27.4624L3.34283 36.0197C1.40667 34.9032 0.438599 33.4335 0.438599 31.9637Z" fill="#238DB7"/>
<mask id="mask0_1_123" style="mask-type:luminance" maskUnits="userSpaceOnUse" x="0" y="23" width="4" height="14">
<path d="M0.438019 31.9627L0.459238 23.4055C0.452172 24.8753 1.42731 26.3451 3.36347 27.4615L3.34225 36.0188C1.40609 34.9023 0.438019 33.4325 0.438019 31.9627Z" fill="white"/>
</mask>
<g mask="url(#mask0_1_123)">
<path d="M3.36995 27.4689L3.34873 36.0262C1.4055 34.9026 0.43743 33.4328 0.444496 31.9701L0.465716 23.4128C0.45865 24.8756 1.42672 26.3453 3.36995 27.4689Z" fill="#238DB7"/>
</g>
<path d="M48.2558 53.3818L48.2276 61.9391L3.34251 36.0199L3.37081 27.4697L48.2558 53.3818Z" fill="#238DB7"/>
<path d="M61.9013 61.2596L61.8801 69.8168L31.9614 71.3926L31.9826 62.8353L61.9013 61.2596Z" fill="#1E88A8"/>
<path d="M110.151 41.5174C110.151 41.5739 110.144 41.6304 110.144 41.694C110.144 41.7435 110.136 41.793 110.136 41.8424C110.129 41.8848 110.129 41.9272 110.122 41.9696C110.115 42.0191 110.108 42.0686 110.101 42.118C110.094 42.1604 110.087 42.2028 110.073 42.2452C110.059 42.2947 110.052 42.3441 110.038 42.3865C110.023 42.4289 110.016 42.4713 110.002 42.5137C109.988 42.5632 109.974 42.6056 109.953 42.6551C109.939 42.6974 109.925 42.7399 109.903 42.7823C109.882 42.8317 109.861 42.8812 109.84 42.9306C109.819 42.973 109.804 43.0154 109.783 43.0578C109.762 43.1073 109.734 43.1568 109.705 43.2062C109.684 43.2486 109.663 43.2839 109.642 43.3263C109.607 43.3829 109.571 43.4465 109.536 43.503C109.515 43.5383 109.493 43.5737 109.465 43.609C109.423 43.6726 109.373 43.7362 109.324 43.7998C109.303 43.8281 109.281 43.8563 109.26 43.8846C109.183 43.9835 109.098 44.0824 109.006 44.1814C108.985 44.2096 108.956 44.2308 108.935 44.2591C108.865 44.3368 108.787 44.4075 108.709 44.4782C108.674 44.5135 108.638 44.5418 108.603 44.5771C108.554 44.6195 108.511 44.6619 108.462 44.7043C108.419 44.7396 108.37 44.782 108.328 44.8173C108.278 44.8597 108.229 44.8951 108.172 44.9375C108.123 44.9728 108.073 45.0081 108.024 45.0505C107.967 45.0929 107.911 45.1283 107.854 45.1706C107.805 45.206 107.748 45.2413 107.699 45.2766C107.642 45.312 107.579 45.3544 107.522 45.3897C107.444 45.4392 107.374 45.4816 107.296 45.531L78.0273 62.5396C77.8153 62.6668 77.5892 62.7798 77.3631 62.8858C77.3065 62.9141 77.243 62.9424 77.1794 62.9706C76.9744 63.0625 76.7624 63.1543 76.5505 63.2391C76.5222 63.2533 76.4939 63.2603 76.4657 63.2745C76.2325 63.3593 75.9993 63.4441 75.759 63.5147C75.5894 63.5642 75.4198 63.6137 75.2502 63.6561C75.1231 63.6914 74.9959 63.7267 74.8616 63.762C74.6849 63.8044 74.5012 63.8398 74.3175 63.8751C74.1832 63.9034 74.056 63.9316 73.9218 63.9528C73.8652 63.9599 73.8087 63.967 73.7522 63.9811C73.5261 64.0164 73.3 64.0518 73.0668 64.08C73.0032 64.0871 72.9325 64.0942 72.8689 64.1012C72.7347 64.1154 72.6075 64.1224 72.4732 64.1366C72.2541 64.1578 72.028 64.1719 71.809 64.179C71.6676 64.186 71.5263 64.186 71.385 64.1931C71.2084 64.1931 71.0246 64.2002 70.848 64.1931C70.6996 64.1931 70.5441 64.186 70.3957 64.179C70.2261 64.1719 70.0636 64.1648 69.894 64.1507C69.7386 64.1436 69.5902 64.1295 69.4418 64.1154C69.2793 64.1012 69.1167 64.08 68.9542 64.0588C68.8058 64.0376 68.6574 64.0164 68.5161 63.9952C68.3394 63.967 68.1699 63.9387 67.9932 63.9034C67.8589 63.8751 67.7176 63.8468 67.5833 63.8186C67.3784 63.7762 67.1735 63.7197 66.9757 63.6702C66.8414 63.6349 66.7142 63.6066 66.587 63.5642C66.5163 63.543 66.4457 63.5218 66.3821 63.5006C66.1771 63.437 65.9793 63.3663 65.7814 63.2957C65.7249 63.2745 65.6684 63.2533 65.6119 63.2321C65.4352 63.1614 65.2585 63.0837 65.0889 63.013C65.0041 62.9777 64.9193 62.9424 64.8345 62.9C64.5872 62.7798 64.347 62.6597 64.1138 62.5254L61.9162 61.2535L61.8808 69.8179L64.0784 71.0898C64.3116 71.224 64.5519 71.3512 64.7992 71.4643C64.884 71.5067 64.9688 71.535 65.0536 71.5774C65.202 71.641 65.3433 71.7116 65.4988 71.7681C65.527 71.7752 65.5553 71.7893 65.5765 71.7964C65.633 71.8176 65.6896 71.8388 65.7461 71.86C65.9439 71.9307 66.1418 72.0013 66.3467 72.0649C66.4174 72.0861 66.4881 72.1073 66.5516 72.1285C66.6011 72.1427 66.6435 72.1568 66.693 72.1709C66.7778 72.1921 66.8626 72.2133 66.9474 72.2345C67.1523 72.2911 67.3502 72.3405 67.5551 72.3829C67.6116 72.3971 67.6611 72.4112 67.7176 72.4253C67.7953 72.4394 67.8801 72.4536 67.9649 72.4677C68.1345 72.503 68.3111 72.5313 68.4878 72.5596C68.5585 72.5737 68.6292 72.5878 68.6998 72.5949C68.7776 72.609 68.8553 72.609 68.933 72.6232C69.0955 72.6444 69.258 72.6656 69.4206 72.6797C69.4983 72.6868 69.576 72.7009 69.6538 72.708C69.7244 72.715 69.8021 72.715 69.8728 72.7221C70.0424 72.7362 70.2049 72.7433 70.3745 72.7504C70.4593 72.7504 70.5441 72.7645 70.6218 72.7645C70.6854 72.7645 70.7561 72.7645 70.8197 72.7645C71.0034 72.7645 71.1801 72.7645 71.3567 72.7645C71.4486 72.7645 71.5334 72.7645 71.6252 72.7645C71.6818 72.7645 71.7313 72.7574 71.7807 72.7574C72.0068 72.7504 72.2259 72.7292 72.445 72.715C72.5368 72.708 72.6216 72.708 72.7135 72.6938C72.7559 72.6868 72.7983 72.6797 72.8407 72.6797C72.9043 72.6726 72.9749 72.6656 73.0385 72.6585C73.2646 72.6302 73.4978 72.602 73.7169 72.5596C73.7734 72.5525 73.8299 72.5454 73.8865 72.5313C73.9147 72.5242 73.943 72.5242 73.9642 72.5172C74.0702 72.496 74.1762 72.4677 74.2822 72.4465C74.4659 72.4112 74.6496 72.3758 74.8263 72.3334C74.9535 72.3052 75.0807 72.2628 75.2149 72.2275C75.3845 72.178 75.5541 72.1356 75.7237 72.0791C75.759 72.0649 75.7944 72.0579 75.8297 72.0508C76.0346 71.9872 76.2325 71.9165 76.4303 71.8388C76.4586 71.8247 76.4869 71.8176 76.5151 71.8035C76.7271 71.7187 76.9391 71.6268 77.144 71.535C77.2076 71.5067 77.2641 71.4784 77.3277 71.4502C77.5539 71.3371 77.78 71.224 77.992 71.1039L107.261 54.0954C107.303 54.0742 107.338 54.0459 107.381 54.0247C107.416 54.0035 107.451 53.9823 107.487 53.954C107.55 53.9187 107.607 53.8763 107.663 53.841C107.72 53.8057 107.769 53.7703 107.819 53.735C107.875 53.6997 107.932 53.6573 107.988 53.6149C108.038 53.5795 108.087 53.5442 108.137 53.5018C108.186 53.4594 108.243 53.4241 108.292 53.3817C108.342 53.3463 108.384 53.3039 108.426 53.2686C108.476 53.2262 108.525 53.1838 108.568 53.1414C108.589 53.1273 108.61 53.1061 108.624 53.092C108.638 53.0778 108.66 53.0566 108.674 53.0425C108.751 52.9718 108.822 52.8941 108.9 52.8234C108.921 52.7952 108.949 52.774 108.971 52.7457C109.062 52.6468 109.147 52.5479 109.225 52.4489C109.225 52.4419 109.232 52.4419 109.239 52.4348C109.26 52.4136 109.274 52.3853 109.289 52.3641C109.338 52.3005 109.38 52.2369 109.43 52.1733C109.451 52.138 109.479 52.1027 109.501 52.0673C109.536 52.0108 109.571 51.9543 109.607 51.8907C109.614 51.8766 109.628 51.8624 109.635 51.8412C109.649 51.82 109.656 51.7918 109.67 51.7706C109.698 51.7211 109.72 51.6716 109.748 51.6222C109.769 51.5798 109.79 51.5374 109.804 51.495C109.826 51.4455 109.847 51.396 109.868 51.3466C109.875 51.3254 109.889 51.3042 109.896 51.283C109.903 51.2618 109.91 51.2406 109.917 51.2265C109.932 51.177 109.953 51.1346 109.967 51.0851C109.981 51.0427 109.995 51.0003 110.002 50.9579C110.016 50.9085 110.023 50.8661 110.038 50.8166C110.045 50.7883 110.052 50.7671 110.059 50.7389C110.059 50.7248 110.066 50.7035 110.066 50.6894C110.073 50.64 110.08 50.5905 110.087 50.541C110.094 50.4986 110.101 50.4562 110.101 50.4138C110.108 50.3644 110.108 50.3149 110.108 50.2654C110.108 50.2372 110.115 50.2089 110.115 50.1807C110.115 50.1524 110.115 50.1241 110.115 50.0958L110.151 41.5174Z" fill="#238DB7"/>
<path d="M107.245 37.4536C111.103 39.6795 111.124 43.2904 107.294 45.5162L78.0255 62.5248C74.1955 64.7507 67.9631 64.7507 64.1049 62.5248L61.9073 61.2529L31.9886 62.8287L48.2623 53.374L3.37726 27.4619C-0.480934 25.236 -0.495065 21.6251 3.33486 19.3993L32.6034 2.39071C36.4333 0.164828 42.6658 0.164828 46.524 2.39071L107.245 37.4536Z" fill="#D4FBFC"/>
<path d="M90.8584 43.629L88.894 44.7737L33.1905 12.6151L35.1549 11.4704L90.8584 43.629Z" fill="#BE2C2C"/>
<path d="M83.134 48.1161L81.1625 49.2609L25.466 17.1022L27.4305 15.9575L83.134 48.1161Z" fill="#BE2C2C"/>
<path d="M75.2691 52.6873L73.2975 53.832L17.6011 21.6734L19.5655 20.5286L75.2691 52.6873Z" fill="#BE2C2C"/>
</svg>
