<svg width="77" height="137" viewBox="0 0 77 137" fill="none" xmlns="http://www.w3.org/2000/svg">
<path d="M20.6573 50.9163L33.3441 43.5422L33.2185 86.6713L20.5391 94.038L20.6573 50.9163Z" fill="#1A7591"/>
<path d="M41.5594 43.0613L54.2388 35.6946L54.0615 98.4708L41.3821 105.845L41.5594 43.0613Z" fill="#1A7591"/>
<path d="M63.926 15.1614L76.6128 7.79462L76.3246 110.183L63.6379 117.55L63.926 15.1614Z" fill="#1A7591"/>
<path d="M8.14755 43.69L20.8269 36.3159L33.3437 43.5422L20.657 50.9163L8.14755 43.69Z" fill="#327F87"/>
<path d="M29.0507 35.8422L41.73 28.4681L54.2395 35.6945L41.5601 43.0612L29.0507 35.8422Z" fill="#327F87"/>
<path d="M51.4173 7.94246L64.1041 0.568314L76.6135 7.79467L63.9267 15.1614L51.4173 7.94246Z" fill="#327F87"/>
<path d="M20.6545 50.9151L20.5363 94.0368L8.0195 86.8105L8.1451 43.6888L20.6545 50.9151Z" fill="#134C62"/>
<path d="M41.5579 43.0615L41.3805 105.845L28.8711 98.6187L29.0485 35.8425L41.5579 43.0615Z" fill="#134C62"/>
<path d="M63.9265 15.1606L63.6383 117.549L51.1289 110.322L51.4171 7.94157L63.9265 15.1606Z" fill="#134C62"/>
<path d="M30.9382 104.947C36.534 101.695 36.5171 91.2243 30.9005 81.5604C25.284 71.8966 16.1945 66.6989 10.5987 69.9511C5.00294 73.2034 5.01978 83.674 10.6364 93.3378C16.2529 103.002 25.3424 108.199 30.9382 104.947Z" fill="#D4FBFC"/>
<path d="M52.4726 134.366L58.6793 130.76L55.8789 132.903L49.6722 136.509L52.4726 134.366Z" fill="#721818"/>
<path d="M33.824 98.8697C33.7206 98.9141 33.6171 98.9584 33.5063 98.9953C33.4176 99.0249 33.329 99.0544 33.2403 99.084C33.1886 99.0988 33.1295 99.1209 33.0778 99.1357C32.9669 99.1653 32.8635 99.1948 32.7527 99.217C32.7083 99.2244 32.6714 99.2392 32.627 99.2466C32.6049 99.2539 32.5827 99.254 32.5605 99.254C32.3758 99.2909 32.1911 99.3131 32.0064 99.3352C31.9399 99.3426 31.8734 99.35 31.8142 99.35C31.6886 99.3574 31.563 99.3648 31.4374 99.3648C31.3635 99.3648 31.297 99.3722 31.2231 99.3648C31.1197 99.3648 31.0162 99.3574 30.9202 99.3574C30.8389 99.35 30.7576 99.35 30.6764 99.3426C30.5877 99.3352 30.5064 99.3278 30.4178 99.313C30.3217 99.3056 30.2256 99.2909 30.137 99.2761C30.0557 99.2613 29.9744 99.2466 29.8931 99.2392C29.7897 99.2244 29.6862 99.2022 29.5828 99.18C29.5163 99.1653 29.4424 99.1505 29.3759 99.1357C29.2651 99.1135 29.1542 99.084 29.0434 99.0544C28.9769 99.0323 28.903 99.0175 28.8291 98.9953C28.7109 98.9584 28.5853 98.9215 28.4671 98.8845C28.408 98.8623 28.3489 98.8476 28.2897 98.8254C28.1198 98.7663 27.9425 98.6998 27.7725 98.6333C27.7651 98.6333 27.7577 98.6259 27.7503 98.6259C27.5656 98.552 27.3883 98.4707 27.2036 98.3894C27.1445 98.3673 27.0927 98.3377 27.0336 98.3082C26.9006 98.249 26.775 98.1825 26.642 98.116C26.5755 98.0865 26.5164 98.0496 26.4499 98.0126C26.2726 97.924 26.1026 97.8279 25.9253 97.7244C25.7258 97.6136 25.5337 97.488 25.3342 97.3624C25.3268 97.355 25.3194 97.355 25.3046 97.3476C25.1199 97.2294 24.9278 97.1038 24.7431 96.9708C24.6766 96.9264 24.6175 96.8821 24.551 96.8304C24.4253 96.7417 24.3071 96.653 24.1815 96.5644C24.1076 96.5053 24.0337 96.4536 23.9525 96.3944C23.8416 96.3058 23.7308 96.2245 23.6199 96.1358C23.5387 96.0693 23.4574 96.0028 23.3761 95.9363C23.2727 95.8477 23.1618 95.759 23.0584 95.6703C22.9771 95.5964 22.8958 95.5299 22.8146 95.456C22.7111 95.3674 22.6077 95.2713 22.5116 95.1827C22.4303 95.1088 22.3491 95.0349 22.2678 94.9536C22.1643 94.8575 22.0609 94.7541 21.9648 94.658C21.8909 94.5841 21.8171 94.5103 21.7432 94.4364C21.6397 94.3329 21.5289 94.2221 21.4254 94.1113C21.3589 94.0374 21.2924 93.9709 21.2259 93.897C21.1003 93.764 20.9821 93.631 20.8639 93.498C20.8196 93.4462 20.7752 93.3946 20.7309 93.3502C20.5683 93.1655 20.3984 92.9734 20.2432 92.7739C20.2063 92.7295 20.1767 92.6926 20.1398 92.6483C20.0142 92.4931 19.8885 92.3379 19.7629 92.1754C19.6152 91.9833 19.4674 91.7911 19.3196 91.599C19.2974 91.5695 19.2753 91.5399 19.2531 91.5103C19.024 91.1926 18.795 90.8749 18.5733 90.5498C18.5364 90.4907 18.492 90.4316 18.4551 90.3725C18.1817 89.9587 17.9083 89.5302 17.6571 89.1016C17.6276 89.0499 17.5906 88.9907 17.5611 88.939C17.3837 88.6361 17.2064 88.3257 17.0438 88.0154C16.9847 87.9046 16.9256 87.7937 16.8665 87.6755C16.8 87.5573 16.7409 87.4317 16.6818 87.3134C16.6005 87.1435 16.5192 86.981 16.4379 86.811C16.4084 86.7519 16.3788 86.7002 16.3567 86.6411C16.2532 86.4194 16.1498 86.1977 16.0537 85.9761C16.0315 85.9169 16.002 85.8578 15.9798 85.7987C15.9059 85.6362 15.8394 85.4662 15.7729 85.2963C15.7434 85.2224 15.7138 85.1411 15.6769 85.0672C15.6104 84.9047 15.5513 84.7495 15.4921 84.5869C15.4626 84.5204 15.4404 84.4466 15.4109 84.3801C15.337 84.1806 15.2631 83.9737 15.1966 83.7742C15.1892 83.7446 15.1744 83.7225 15.167 83.6929C15.0931 83.4638 15.0193 83.2348 14.9454 83.0057C14.9232 82.9319 14.901 82.8579 14.8789 82.784C14.8345 82.6215 14.7828 82.4663 14.7459 82.3038C14.7237 82.2151 14.7015 82.1264 14.6794 82.0378C14.6424 81.89 14.6055 81.7422 14.5685 81.5944C14.5464 81.5058 14.5242 81.4171 14.5094 81.3284C14.4725 81.1807 14.4429 81.0255 14.4134 80.8777C14.3986 80.7965 14.3764 80.7152 14.3616 80.6339C14.3247 80.4418 14.2878 80.2496 14.2582 80.0575C14.2508 80.0206 14.2434 79.9911 14.2434 79.9541C14.2065 79.7251 14.1769 79.5034 14.1474 79.2743C14.14 79.2152 14.1326 79.1487 14.1252 79.0896C14.103 78.927 14.0883 78.7645 14.0735 78.6019C14.0661 78.528 14.0587 78.4468 14.0587 78.3729C14.0439 78.2177 14.0365 78.0699 14.0292 77.9148C14.0292 77.8409 14.0218 77.767 14.0218 77.6931C14.0144 77.4788 14.007 77.2645 14.007 77.0502C14.007 76.8286 14.0144 76.6069 14.0218 76.3927C14.0218 76.3335 14.0291 76.2744 14.0365 76.2153C14.0439 76.0676 14.0513 75.9198 14.0661 75.7794C14.0735 75.6981 14.0809 75.6168 14.0883 75.5355C14.103 75.4099 14.1178 75.2917 14.1326 75.1735C14.1474 75.0848 14.1548 75.0035 14.1695 74.9149C14.1843 74.804 14.2065 74.6932 14.2286 74.5898C14.2434 74.4937 14.2656 74.3976 14.2877 74.3016C14.3099 74.2055 14.3321 74.1095 14.3543 74.0134C14.3838 73.9026 14.406 73.7917 14.4429 73.6883C14.4651 73.607 14.4873 73.5184 14.5168 73.4371C14.5538 73.3115 14.5981 73.1859 14.6424 73.0602C14.6646 72.9937 14.6868 72.9198 14.7163 72.8533C14.7976 72.6464 14.8789 72.4396 14.9749 72.2474C15.0488 72.0923 15.1227 71.9445 15.204 71.8041C15.2114 71.7893 15.2188 71.7746 15.2335 71.7598C15.3074 71.6342 15.3739 71.5086 15.4552 71.3903C15.5808 71.1982 15.7064 71.0209 15.8468 70.851C15.8764 70.8066 15.9133 70.7697 15.9429 70.7327C16.0759 70.5776 16.2089 70.4224 16.3567 70.282C16.3714 70.2672 16.3788 70.2599 16.3936 70.2451C16.5488 70.0973 16.7113 69.9569 16.8739 69.8313C16.9108 69.8017 16.9551 69.7722 16.9921 69.7352C17.162 69.6096 17.3394 69.4914 17.5167 69.3806L11.31 72.9863C11.1253 73.0898 10.9554 73.2154 10.7854 73.341C10.7411 73.3706 10.7041 73.4001 10.6672 73.4371C10.4972 73.5701 10.3421 73.7031 10.1869 73.8509C10.1721 73.8656 10.1648 73.873 10.15 73.8878C10.0096 74.0282 9.8692 74.1833 9.7362 74.3385C9.69925 74.3755 9.66969 74.4198 9.64014 74.4568C9.50714 74.6267 9.37414 74.8114 9.24853 74.9961C9.24114 75.0035 9.24112 75.0109 9.23373 75.0109C9.15984 75.1292 9.09336 75.2474 9.01947 75.3656C9.01208 75.3804 9.00469 75.3877 8.9973 75.4025C8.92342 75.5429 8.84951 75.6833 8.77562 75.8311C8.77562 75.8385 8.76825 75.8459 8.76825 75.8459C8.67958 76.038 8.59091 76.2448 8.50963 76.4517C8.50224 76.4739 8.49486 76.4887 8.48747 76.5035C8.47269 76.5478 8.45791 76.6069 8.43574 76.6512C8.39141 76.7769 8.34706 76.9025 8.31012 77.0281C8.30273 77.065 8.28796 77.0946 8.27318 77.1315C8.25841 77.1759 8.25103 77.2276 8.23625 77.2793C8.20669 77.3828 8.17712 77.4936 8.15496 77.6044C8.14018 77.6487 8.1328 77.6931 8.11802 77.7448C8.10324 77.7965 8.09585 77.8482 8.08846 77.8926C8.06629 77.9886 8.05153 78.0847 8.02936 78.1808C8.02197 78.2325 8.00719 78.2768 7.9998 78.3285C7.99241 78.3877 7.98501 78.4468 7.97024 78.5059C7.95546 78.5945 7.94069 78.6758 7.9333 78.7645C7.92591 78.8088 7.91852 78.8531 7.91113 78.8975C7.90374 78.9714 7.89636 79.0527 7.88897 79.1266C7.88158 79.2078 7.87419 79.2891 7.8668 79.3704C7.8668 79.4073 7.85941 79.4369 7.85941 79.4738C7.85202 79.5847 7.84463 79.6955 7.83724 79.8137C7.83724 79.8728 7.82984 79.9319 7.82245 79.9911C7.82245 80.0058 7.82245 80.0206 7.82245 80.0354C7.81506 80.2275 7.80768 80.4196 7.80768 80.6117C7.80768 80.6265 7.80768 80.6339 7.80768 80.6487C7.80768 80.826 7.80769 81.0033 7.81507 81.1881C7.81507 81.225 7.81506 81.2546 7.82245 81.2915C7.82245 81.3654 7.82984 81.4393 7.82984 81.5132C7.83723 81.5944 7.83725 81.6831 7.84464 81.7644C7.85203 81.8309 7.85202 81.8974 7.85941 81.9639C7.86679 82.0378 7.87418 82.119 7.87418 82.1929C7.88156 82.2447 7.88158 82.289 7.88897 82.3407C7.89636 82.4516 7.91113 82.5624 7.9259 82.6806C7.93329 82.7397 7.94068 82.8062 7.94807 82.8654C7.94807 82.8875 7.95547 82.9023 7.95547 82.9244C7.97763 83.1239 8.00718 83.3234 8.04413 83.5229C8.04413 83.5303 8.04413 83.5377 8.04413 83.5377C8.05152 83.5747 8.0589 83.6042 8.0589 83.6412C8.08845 83.8037 8.11063 83.9589 8.14019 84.1214C8.14758 84.151 8.15497 84.1879 8.16235 84.2175C8.17713 84.2988 8.19192 84.3801 8.21408 84.4613C8.23625 84.5574 8.25102 84.6535 8.27318 84.7495C8.28796 84.8086 8.30273 84.8603 8.31012 84.9194C8.33229 85.0081 8.34708 85.0968 8.36924 85.1854C8.38402 85.2519 8.3988 85.3184 8.41357 85.3776C8.43574 85.4588 8.45791 85.5401 8.48007 85.6288C8.50224 85.7175 8.5244 85.8061 8.54657 85.8948C8.56135 85.9391 8.56874 85.9761 8.57613 86.0204C8.60569 86.1386 8.64262 86.2569 8.67956 86.3751C8.70173 86.449 8.7239 86.5228 8.74606 86.5893C8.75345 86.6115 8.76085 86.6263 8.76085 86.6485C8.82735 86.8554 8.89385 87.0622 8.96035 87.2691C8.96035 87.2765 8.96035 87.2765 8.96774 87.2839C8.97513 87.3135 8.98992 87.3356 8.9973 87.3652C9.05642 87.5351 9.11552 87.7125 9.17463 87.8824C9.18202 87.912 9.19679 87.9415 9.21157 87.9711C9.23373 88.045 9.2633 88.1114 9.29286 88.1853C9.3298 88.2814 9.36674 88.3775 9.40369 88.4735C9.42585 88.54 9.45541 88.5991 9.47758 88.6656C9.50714 88.7395 9.53669 88.8208 9.56624 88.8947C9.58841 88.9464 9.61057 89.0055 9.63274 89.0572C9.67707 89.1681 9.72881 89.2863 9.78053 89.3971C9.80269 89.4562 9.83223 89.5153 9.8544 89.5671C9.86179 89.5892 9.86918 89.604 9.88396 89.6262C9.97263 89.8183 10.0613 90.0104 10.15 90.2025C10.1574 90.2099 10.1574 90.2173 10.1647 90.2247C10.1943 90.2838 10.2165 90.3355 10.246 90.3947C10.3125 90.5424 10.3864 90.6902 10.4603 90.8306C10.4751 90.8527 10.4825 90.8749 10.4973 90.9044C10.5564 91.0227 10.6229 91.1409 10.682 91.2665C10.7337 91.3626 10.778 91.4586 10.8297 91.5547C10.8371 91.5695 10.8519 91.5916 10.8593 91.6064C11.0292 91.9167 11.1992 92.2271 11.3765 92.53C11.3913 92.5596 11.4061 92.5818 11.4209 92.6113C11.4356 92.6409 11.4578 92.6704 11.4726 92.7C11.7312 93.1285 11.9972 93.5571 12.2706 93.9709C12.2854 93.993 12.3001 94.0152 12.3149 94.0374C12.3371 94.0743 12.3666 94.1112 12.3962 94.1482C12.6179 94.4733 12.8395 94.7984 13.076 95.1087C13.076 95.1087 13.076 95.1087 13.076 95.1161C13.0981 95.1457 13.1203 95.1752 13.1499 95.2048C13.2903 95.3969 13.438 95.589 13.5858 95.7738C13.5932 95.7811 13.6006 95.7959 13.608 95.8107C13.7262 95.9585 13.8444 96.1063 13.97 96.2541C13.9996 96.291 14.0291 96.3353 14.0661 96.3723L14.0735 96.3797C14.2287 96.5644 14.3764 96.7417 14.539 96.919C14.5464 96.9264 14.5538 96.9338 14.5612 96.9412C14.6055 96.9929 14.6498 97.0373 14.6941 97.089C14.7976 97.2072 14.901 97.318 15.0045 97.4363C15.0192 97.4584 15.0414 97.4732 15.0562 97.4954C15.1227 97.5693 15.1892 97.6358 15.2557 97.7097C15.337 97.7909 15.4109 97.8722 15.4921 97.9535C15.5217 97.9831 15.5439 98.0052 15.5734 98.0348C15.6473 98.1087 15.7212 98.1825 15.7951 98.2564C15.8616 98.3229 15.9281 98.3894 15.9946 98.4559C16.0315 98.4929 16.0685 98.5225 16.1054 98.5594C16.1867 98.6333 16.268 98.7072 16.3493 98.7884C16.4084 98.8402 16.4675 98.8993 16.5266 98.951C16.5709 98.9879 16.6153 99.0249 16.6596 99.0692C16.7409 99.1431 16.8221 99.2096 16.9034 99.2835C16.9551 99.3278 17.0069 99.3722 17.0586 99.4165C17.1103 99.4608 17.1694 99.5052 17.2211 99.5495C17.3024 99.616 17.3837 99.6825 17.465 99.749C17.5093 99.7859 17.5536 99.8229 17.5906 99.8525C17.6571 99.9042 17.7236 99.9559 17.7975 100.008C17.8714 100.067 17.9453 100.126 18.0192 100.178C18.0487 100.2 18.0857 100.229 18.1152 100.251C18.2039 100.318 18.2999 100.384 18.3886 100.451C18.4551 100.495 18.5142 100.54 18.5807 100.584C18.5955 100.599 18.6177 100.606 18.6324 100.621C18.8024 100.739 18.9723 100.85 19.1423 100.953C19.1423 100.953 19.1423 100.953 19.1497 100.953C19.1571 100.961 19.1644 100.961 19.1792 100.968C19.3344 101.064 19.4969 101.168 19.6521 101.256C19.689 101.278 19.7334 101.301 19.7703 101.323C19.8959 101.397 20.0216 101.463 20.1472 101.537C20.1989 101.567 20.2432 101.589 20.2949 101.611C20.3614 101.648 20.4206 101.677 20.4871 101.714C20.5388 101.737 20.5905 101.766 20.6348 101.788C20.7161 101.825 20.7974 101.862 20.8787 101.907C20.9378 101.936 20.9895 101.958 21.0486 101.988C21.0708 101.995 21.0929 102.01 21.1151 102.017C21.2777 102.091 21.4328 102.158 21.5954 102.217C21.6028 102.217 21.6102 102.224 21.6176 102.224C21.7727 102.283 21.9205 102.343 22.0757 102.394C22.0978 102.402 22.12 102.409 22.1422 102.416C22.2013 102.439 22.2604 102.453 22.3121 102.476C22.3934 102.505 22.4747 102.527 22.5486 102.557C22.5929 102.572 22.6298 102.579 22.6742 102.594C22.7481 102.616 22.8146 102.631 22.8885 102.653C22.9402 102.668 22.9919 102.682 23.0436 102.697C23.1027 102.712 23.1618 102.719 23.2136 102.734C23.2875 102.749 23.354 102.764 23.4278 102.778C23.4648 102.786 23.5017 102.793 23.5313 102.801C23.5978 102.815 23.6643 102.823 23.7308 102.83C23.8121 102.845 23.8933 102.86 23.9746 102.867C24.0042 102.874 24.0263 102.875 24.0559 102.882C24.1224 102.889 24.1889 102.897 24.2554 102.904C24.3441 102.911 24.4254 102.926 24.514 102.934C24.5362 102.934 24.5657 102.941 24.5879 102.941C24.647 102.948 24.7061 102.941 24.7652 102.948C24.8687 102.956 24.9721 102.956 25.0756 102.956C25.1051 102.956 25.1273 102.956 25.1569 102.956C25.2012 102.956 25.2455 102.948 25.2898 102.948C25.4155 102.948 25.5411 102.941 25.6667 102.934C25.7036 102.934 25.7406 102.934 25.7775 102.926C25.8071 102.926 25.8292 102.919 25.8588 102.911C26.0435 102.889 26.2282 102.867 26.413 102.83C26.4277 102.83 26.4499 102.823 26.4647 102.823C26.4721 102.823 26.4721 102.823 26.4795 102.823C26.5164 102.815 26.5607 102.801 26.5977 102.793C26.7085 102.771 26.8194 102.742 26.9302 102.712C26.9819 102.697 27.041 102.675 27.0927 102.66C27.1592 102.638 27.2331 102.616 27.2996 102.594C27.3144 102.586 27.3366 102.579 27.3514 102.572C27.4622 102.535 27.5656 102.49 27.6691 102.446C27.7208 102.424 27.7725 102.402 27.8242 102.379C27.9794 102.306 28.1272 102.232 28.275 102.143L34.4817 98.5372C34.3339 98.6185 34.1861 98.6998 34.0309 98.7737C33.9275 98.8254 33.8758 98.8476 33.824 98.8697Z" fill="#892020"/>
<path d="M41.1452 103.377L34.9385 106.983L52.4724 134.366L58.6791 130.76L41.1452 103.377Z" fill="#892020"/>
<path d="M43.7476 93.4683C43.7476 93.4166 43.7402 93.3648 43.7402 93.3131C43.7329 93.2023 43.7329 93.0988 43.7255 92.988C43.7181 92.8624 43.7181 92.7368 43.7107 92.6112C43.7033 92.5151 43.6959 92.4117 43.6885 92.3156C43.6811 92.2048 43.6737 92.0865 43.659 91.9757C43.6516 91.9018 43.6516 91.8279 43.6442 91.7541C43.6294 91.5841 43.6073 91.4216 43.5851 91.2516C43.5777 91.1556 43.5629 91.0669 43.5555 90.9708C43.5555 90.9413 43.5481 90.9117 43.5481 90.8822C43.5112 90.5866 43.4669 90.291 43.4225 89.9881C43.4225 89.9807 43.4225 89.9733 43.4151 89.9586C43.4077 89.9068 43.4003 89.8551 43.3856 89.8034C43.3486 89.5669 43.3043 89.3305 43.26 89.0867C43.2526 89.0423 43.2378 88.9906 43.2304 88.9463C43.2082 88.8281 43.1787 88.7024 43.1565 88.5842C43.127 88.4438 43.1048 88.3034 43.0679 88.1631C43.0531 88.0818 43.0309 87.9931 43.0088 87.9118C42.9792 87.7788 42.9496 87.6532 42.9201 87.5202C42.8979 87.4242 42.8757 87.3281 42.8536 87.232C42.824 87.1064 42.7871 86.9882 42.7575 86.8626C42.7206 86.7296 42.691 86.604 42.6541 86.471C42.6393 86.4119 42.6245 86.3454 42.6023 86.2862C42.5506 86.1089 42.4989 85.9316 42.4472 85.7543C42.4176 85.6434 42.3881 85.54 42.3511 85.4291C42.3437 85.3996 42.3364 85.37 42.329 85.3405C42.2329 85.0301 42.1369 84.7272 42.0334 84.4169C42.0334 84.4095 42.026 84.4021 42.026 84.4021C42.0112 84.3577 41.9965 84.3208 41.9817 84.2765C41.893 84.0179 41.8044 83.7667 41.7157 83.508C41.7009 83.4637 41.6787 83.4194 41.664 83.3751C41.627 83.2716 41.5827 83.1681 41.5457 83.0647C41.494 82.9243 41.4423 82.7765 41.3832 82.6362C41.3462 82.5401 41.3093 82.444 41.265 82.348C41.2206 82.2371 41.1763 82.1189 41.132 82.0081C41.1024 81.9268 41.0655 81.8455 41.0359 81.7642C40.9694 81.5943 40.8955 81.4317 40.8216 81.2618C40.7847 81.1731 40.7477 81.0845 40.7108 81.0032C40.696 80.9736 40.6886 80.9441 40.6739 80.9145C40.5482 80.6264 40.4152 80.3382 40.2822 80.05C40.2749 80.0353 40.2675 80.0204 40.2601 80.0131C40.2231 79.9318 40.1788 79.8505 40.1418 79.7619C40.0384 79.5476 39.935 79.3259 39.8241 79.1116C39.8094 79.0747 39.7872 79.0451 39.7724 79.0082C39.6837 78.8308 39.5877 78.6535 39.499 78.4688C39.4251 78.3284 39.3512 78.1806 39.2773 78.0402C39.2626 78.0107 39.2478 77.9885 39.233 77.9664C38.9818 77.5009 38.7306 77.0427 38.4646 76.592C38.4424 76.555 38.4202 76.5107 38.3981 76.4738C38.3316 76.363 38.2577 76.2521 38.1912 76.1339C38.0803 75.9418 37.9621 75.757 37.8513 75.5723C37.7478 75.4098 37.6444 75.2472 37.5409 75.0847C37.4227 74.8999 37.3045 74.7152 37.1863 74.5379C37.142 74.4788 37.105 74.4123 37.0681 74.3532C37.0311 74.2941 36.9868 74.2423 36.9498 74.1906C36.6247 73.7029 36.2922 73.23 35.945 72.7571C35.945 72.7571 35.9449 72.7498 35.9376 72.7498C35.9006 72.7055 35.871 72.6611 35.8341 72.6168C35.6198 72.3286 35.4056 72.0478 35.1839 71.7671C35.1691 71.7523 35.1617 71.7375 35.1469 71.7153C34.977 71.4937 34.7997 71.2794 34.6223 71.0651C34.5706 71.006 34.5189 70.9395 34.4745 70.8804C34.4672 70.873 34.4672 70.873 34.4598 70.8656C34.2307 70.5922 34.0017 70.3262 33.7726 70.0602C33.7652 70.0528 33.7504 70.038 33.743 70.0306C33.6765 69.9567 33.6101 69.8829 33.5436 69.809C33.3884 69.639 33.2406 69.4617 33.0854 69.2991C33.0559 69.2696 33.0337 69.2474 33.0042 69.2179C32.9081 69.1144 32.8047 69.011 32.7012 68.9075C32.583 68.7893 32.4722 68.6637 32.3539 68.5455C32.317 68.5012 32.2726 68.4642 32.2357 68.4273C32.1249 68.3164 32.0141 68.2056 31.9032 68.1021C31.8072 68.0061 31.7037 67.9027 31.6076 67.8066C31.5559 67.7549 31.4968 67.7105 31.4451 67.6588C31.3269 67.548 31.2013 67.4371 31.083 67.3189C30.9944 67.2376 30.9131 67.1563 30.8244 67.0751C30.7579 67.016 30.6914 66.9642 30.6249 66.9051C30.5067 66.7943 30.3811 66.6909 30.2629 66.5874C30.189 66.5209 30.1077 66.4544 30.0338 66.3879C29.9525 66.3214 29.8713 66.2549 29.7974 66.1958C29.6791 66.0998 29.5609 65.9963 29.4353 65.9003C29.3688 65.8485 29.3097 65.7968 29.2432 65.7451C29.1398 65.6638 29.0437 65.5899 28.9403 65.516C28.8294 65.4274 28.7186 65.3461 28.6077 65.2574C28.5634 65.2205 28.5117 65.1835 28.4674 65.1466C28.3344 65.0431 28.194 64.9544 28.0536 64.8584C27.9575 64.7919 27.8615 64.7254 27.7728 64.6589C27.7506 64.6441 27.7211 64.622 27.6989 64.6072C27.4477 64.4373 27.1965 64.2673 26.9452 64.1122C26.9452 64.1122 26.9453 64.1122 26.9379 64.1122C26.9231 64.1048 26.9083 64.0973 26.8935 64.0826C26.6571 63.9348 26.428 63.7944 26.1916 63.654C26.1325 63.6171 26.0734 63.5875 26.0143 63.5506C25.8221 63.4398 25.6374 63.3363 25.4527 63.2329C25.3788 63.1959 25.3123 63.159 25.2384 63.122C25.1423 63.0703 25.0463 63.0186 24.9502 62.9742C24.8764 62.9373 24.8025 62.893 24.7286 62.856C24.6103 62.7969 24.4847 62.7452 24.3665 62.6861C24.2852 62.6492 24.1966 62.6048 24.1153 62.5678C24.0784 62.5531 24.0488 62.5383 24.0118 62.5161C23.7754 62.4127 23.539 62.3093 23.3025 62.2132C23.3025 62.2132 23.3025 62.2132 23.2951 62.2132C23.2877 62.2058 23.273 62.2058 23.2656 62.1984C23.0365 62.1097 22.8075 62.0211 22.5858 61.9398C22.5562 61.925 22.5193 61.9176 22.4897 61.9102C22.4011 61.8807 22.3198 61.8511 22.2311 61.829C22.1129 61.792 21.9947 61.7477 21.8765 61.7108C21.8173 61.6886 21.7508 61.6812 21.6917 61.659C21.5883 61.6295 21.4848 61.5999 21.3814 61.5704C21.3001 61.5482 21.2262 61.526 21.145 61.5038C21.0563 61.4817 20.975 61.4669 20.8863 61.4447C20.7829 61.4226 20.6794 61.4004 20.576 61.3782C20.5243 61.3709 20.4652 61.3561 20.4134 61.3413C20.31 61.3191 20.2139 61.3117 20.1179 61.2896C19.9997 61.2674 19.8814 61.2452 19.7632 61.2305C19.7263 61.2231 19.682 61.2157 19.6376 61.2083C19.5342 61.1935 19.4381 61.1861 19.3347 61.1787C19.2091 61.164 19.0761 61.1492 18.9505 61.1418C18.9135 61.1418 18.8765 61.1344 18.8396 61.1344C18.7509 61.127 18.6697 61.127 18.581 61.127C18.4258 61.1196 18.278 61.1123 18.1229 61.1123C18.0859 61.1123 18.0416 61.1049 17.9973 61.1049C17.9308 61.1049 17.8717 61.1123 17.8052 61.1123C17.613 61.1196 17.4283 61.127 17.2436 61.1418C17.1919 61.1492 17.1328 61.1418 17.0737 61.1492C16.9924 61.1566 16.9185 61.1713 16.8372 61.1787C16.7781 61.1861 16.719 61.1935 16.6673 61.2009C16.4604 61.2305 16.2535 61.26 16.0466 61.3043C16.0392 61.3043 16.0318 61.3117 16.0244 61.3117C15.9653 61.3265 15.9062 61.3413 15.8471 61.3561C15.6845 61.393 15.5146 61.43 15.3594 61.4743C15.2782 61.4965 15.1969 61.526 15.1156 61.5482C15.0122 61.5777 14.9013 61.6073 14.8053 61.6442C14.7757 61.6516 14.7536 61.6664 14.724 61.6738C14.5614 61.7329 14.4063 61.7994 14.2511 61.8659C14.1772 61.8954 14.0959 61.925 14.022 61.962C13.793 62.0654 13.5713 62.1836 13.357 62.3093L7.15036 65.915C7.36464 65.7894 7.5863 65.6712 7.81536 65.5677C7.88925 65.5308 7.97052 65.5012 8.04441 65.4717C8.19958 65.4052 8.35473 65.3387 8.51729 65.2796C8.6429 65.2352 8.7759 65.1909 8.9089 65.1466C8.99018 65.1244 9.07147 65.0949 9.15275 65.0727C9.31531 65.0284 9.47786 64.9914 9.64042 64.9545C9.69953 64.9397 9.75864 64.9249 9.81775 64.9101C10.0246 64.8658 10.2389 64.8363 10.4606 64.8067C10.5197 64.7993 10.5788 64.7919 10.6305 64.7845C10.7635 64.7697 10.8965 64.7624 11.0295 64.7476C11.2143 64.7328 11.4064 64.7254 11.5911 64.718C11.6945 64.718 11.8054 64.7107 11.9088 64.7107C12.0566 64.7107 12.2118 64.718 12.3669 64.7254C12.4925 64.7328 12.6108 64.7328 12.7364 64.7476C12.862 64.755 12.995 64.7697 13.1206 64.7845C13.261 64.7993 13.4014 64.8141 13.5418 64.8363C13.66 64.851 13.7782 64.8732 13.9038 64.8954C14.059 64.9249 14.2068 64.9471 14.3619 64.9766C14.4654 64.9988 14.5688 65.0209 14.6723 65.0431C14.8348 65.0801 14.9974 65.1244 15.1673 65.1688C15.2708 65.1983 15.3742 65.2279 15.4777 65.2574C15.655 65.3091 15.8397 65.3682 16.0171 65.4274C16.1057 65.4569 16.187 65.4791 16.2756 65.5086C16.5343 65.5973 16.7929 65.6934 17.0589 65.7968C17.0663 65.8042 17.081 65.8042 17.0884 65.8042C17.3618 65.915 17.6278 66.0332 17.9012 66.1515C17.9825 66.1884 18.0712 66.2328 18.1524 66.2697C18.3446 66.3584 18.5441 66.4544 18.7362 66.5579C18.8322 66.6096 18.9283 66.6539 19.0243 66.7056C19.2829 66.8386 19.5416 66.979 19.8002 67.1342C20.0957 67.3041 20.3839 67.4815 20.6721 67.6662C20.6868 67.6736 20.7016 67.681 20.7164 67.6958C20.9972 67.8731 21.2706 68.0578 21.5513 68.2499C21.6474 68.3164 21.7435 68.3829 21.8321 68.4494C22.0168 68.5824 22.2016 68.7154 22.3863 68.8484C22.4971 68.9297 22.6079 69.0184 22.7188 69.107C22.8813 69.2326 23.0513 69.3656 23.2138 69.4913C23.3321 69.5873 23.4577 69.6834 23.5759 69.7868C23.7311 69.9198 23.8862 70.0454 24.0414 70.1784C24.167 70.2819 24.2852 70.3927 24.4108 70.4961C24.566 70.6291 24.7138 70.7695 24.8616 70.9099C24.9798 71.0207 25.1054 71.1316 25.2236 71.2498C25.3788 71.3976 25.5266 71.5454 25.6817 71.6931C25.7926 71.804 25.9034 71.9148 26.0143 72.0256C26.1694 72.1808 26.3246 72.3434 26.4797 72.5059C26.5832 72.6094 26.6792 72.7128 26.7827 72.8237C26.9674 73.0158 27.1447 73.2153 27.3221 73.4148C27.3886 73.4887 27.4551 73.5625 27.5216 73.6364C27.7654 73.9172 28.0093 74.198 28.2531 74.4862C28.3048 74.5453 28.3491 74.6118 28.4009 74.6709C28.593 74.8999 28.7777 75.1364 28.9624 75.3655C29.1841 75.6462 29.3984 75.927 29.6126 76.2152C29.6496 76.2669 29.6865 76.3113 29.7235 76.3556C30.0708 76.8211 30.4032 77.3013 30.7284 77.789C30.8096 77.9072 30.8835 78.0255 30.9648 78.1437C31.083 78.3284 31.2013 78.5131 31.3195 78.6979C31.4229 78.8604 31.5264 79.0156 31.6224 79.1781C31.7407 79.3628 31.8515 79.555 31.9697 79.7471C32.0584 79.8948 32.147 80.05 32.2357 80.1978C32.5017 80.6485 32.7603 81.1067 33.0042 81.5722C33.0928 81.7421 33.1815 81.912 33.2701 82.0746C33.3662 82.2519 33.4549 82.4292 33.5509 82.614C33.6765 82.8652 33.7948 83.1164 33.9204 83.3677C33.9573 83.4489 34.0017 83.5376 34.046 83.6189C34.2012 83.944 34.3489 84.2765 34.4967 84.609C34.5337 84.6977 34.5706 84.7863 34.6075 84.8676C34.711 85.1114 34.8218 85.3626 34.9179 85.6139C34.9622 85.7247 35.0066 85.8429 35.0583 85.9538C35.1543 86.1902 35.243 86.4266 35.3317 86.6631C35.3686 86.7665 35.4129 86.87 35.4499 86.9808C35.5607 87.2837 35.6642 87.5793 35.7676 87.8823C35.7824 87.9266 35.7972 87.9635 35.8119 88.0079C35.9228 88.3478 36.0336 88.6877 36.137 89.0349C36.1666 89.1458 36.2036 89.2492 36.2331 89.3601C36.2996 89.5965 36.3735 89.833 36.4326 90.0694C36.4695 90.2024 36.4991 90.328 36.5361 90.461C36.5952 90.6827 36.6469 90.9043 36.6986 91.1186C36.7282 91.2516 36.7577 91.3772 36.7873 91.5102C36.839 91.7393 36.8833 91.961 36.9351 92.1826C36.9572 92.3008 36.9868 92.4264 37.0089 92.5447C37.0607 92.8328 37.1124 93.1136 37.1641 93.4018C37.1715 93.4535 37.1863 93.5052 37.1937 93.5569C37.2454 93.8968 37.2971 94.2293 37.334 94.5618C37.3488 94.6579 37.3562 94.7466 37.3636 94.8426C37.3932 95.0864 37.4153 95.3229 37.4375 95.5668C37.4449 95.6776 37.4597 95.7958 37.4671 95.9066C37.4818 96.1357 37.4966 96.3573 37.5114 96.5864C37.5188 96.6972 37.5262 96.8007 37.5262 96.9115C37.5409 97.2292 37.5483 97.547 37.5409 97.8647C37.5409 98.3006 37.5262 98.7218 37.4966 99.1356C37.4892 99.2168 37.4892 99.2981 37.4818 99.3868C37.4523 99.7858 37.4153 100.177 37.3636 100.554C37.3562 100.628 37.3414 100.695 37.334 100.769C37.2897 101.086 37.238 101.397 37.1715 101.707C37.1493 101.803 37.1346 101.899 37.1124 101.988C37.0311 102.357 36.9425 102.719 36.8464 103.066C36.839 103.081 36.839 103.096 36.8316 103.103C36.7282 103.443 36.6173 103.768 36.4991 104.086C36.4326 104.263 36.3587 104.433 36.2848 104.603C36.2109 104.781 36.1371 104.965 36.0558 105.135C36.0262 105.187 35.9967 105.246 35.9745 105.298C35.8489 105.549 35.7159 105.793 35.5681 106.029C35.5386 106.074 35.5164 106.125 35.4868 106.17C35.3095 106.451 35.1248 106.724 34.9327 106.983L41.1394 103.377C41.3167 103.14 41.4866 102.897 41.6492 102.638C41.664 102.616 41.6787 102.586 41.6935 102.564C41.7231 102.52 41.7452 102.468 41.7748 102.424C41.9152 102.187 42.0482 101.943 42.1812 101.692C42.2107 101.64 42.2403 101.581 42.2625 101.53C42.2772 101.5 42.292 101.47 42.3142 101.434C42.3807 101.293 42.4398 101.138 42.4989 100.998C42.5728 100.828 42.6467 100.658 42.7132 100.48C42.7206 100.451 42.7354 100.429 42.7501 100.399C42.861 100.111 42.957 99.808 43.0457 99.4976C43.0531 99.4828 43.0531 99.4681 43.0605 99.4533C43.0605 99.4533 43.0605 99.4533 43.0605 99.4459C43.1417 99.1578 43.223 98.8548 43.2895 98.5519C43.3043 98.4927 43.3117 98.4336 43.3265 98.3745C43.3486 98.2785 43.3634 98.1824 43.3856 98.0938C43.4151 97.9608 43.4447 97.8278 43.4669 97.6874C43.4964 97.5174 43.5186 97.3327 43.5481 97.1553C43.5555 97.0815 43.5703 97.015 43.5777 96.9411C43.5851 96.9041 43.5925 96.8672 43.5925 96.8302C43.6294 96.5568 43.659 96.2761 43.6811 95.9879C43.6885 95.914 43.6885 95.8401 43.6959 95.7736C43.7033 95.6923 43.7033 95.611 43.7107 95.5224C43.7181 95.3968 43.7255 95.2712 43.7329 95.1456C43.7476 94.8648 43.7476 94.584 43.755 94.2958C43.755 94.2811 43.755 94.2589 43.755 94.2441C43.755 94.0003 43.755 93.7343 43.7476 93.4683Z" fill="#E84242"/>
<path d="M34.9398 106.982L52.4737 134.366L49.6733 136.508L32.265 109.325C29.0287 111.157 24.588 110.876 19.6891 108.046C9.86926 102.379 1.9114 88.5914 1.94834 77.3159C1.9779 66.0404 9.98746 61.4741 19.8073 67.1414C29.6198 72.8087 37.5851 86.5964 37.5481 97.8719C37.5407 101.744 36.5876 104.832 34.9398 106.982ZM19.7113 101.352C26.3096 105.165 31.6961 102.091 31.7183 94.5099C31.7404 86.9215 26.3909 77.6558 19.7852 73.8431C13.1869 70.0304 7.80035 73.1042 7.77818 80.6853C7.75601 88.2663 13.113 97.5393 19.7113 101.352Z" fill="#DC3333"/>
<g opacity="0.41">
<path d="M28.4129 102.031C33.0526 99.3348 33.0402 90.6561 28.3854 82.647C23.7305 74.6379 16.1959 70.3312 11.5562 73.0277C6.91657 75.7242 6.9289 84.4029 11.5837 92.412C16.2386 100.421 23.7733 104.728 28.4129 102.031Z" fill="#D4FBFC"/>
</g>
<path opacity="0.28" d="M17.0744 72.7122C15.6853 71.7812 14.7617 72.2394 13.3726 72.2394C14.2371 79.6726 18.7887 94.044 20.3108 101.366C21.2344 102.29 22.158 102.756 24.0126 102.756C23.6875 101.13 18.0202 80.7514 17.0744 72.7122Z" fill="#134C62"/>
<path opacity="0.28" d="M23.0826 75.9419C20.3117 73.6292 18.8709 72.883 17.5335 72.7056C19.8462 82.4147 25.1367 101.441 25.3953 102.756C25.3953 102.756 27.2425 102.756 29.0972 101.367C28.6612 99.6604 23.4077 76.2153 23.0826 75.9419Z" fill="#134C62"/>
</svg>
