<svg width="89" height="109" viewBox="0 0 89 109" fill="none" xmlns="http://www.w3.org/2000/svg">
<path d="M88.8915 73.9792C88.8915 73.8606 88.8824 73.7511 88.8732 73.6324C88.8641 73.3861 88.855 73.1397 88.8367 72.8933C88.8185 72.6013 88.8185 72.3185 88.8002 72.0265C88.782 71.8075 88.7637 71.5794 88.7455 71.3604C88.7272 71.1049 88.709 70.8403 88.6816 70.5848C88.6633 70.4114 88.6542 70.2471 88.6451 70.0738C88.6086 69.7088 88.563 69.3347 88.5174 68.9606C88.49 68.7416 88.4717 68.5317 88.4444 68.3127C88.4352 68.2397 88.4261 68.1667 88.417 68.1028C88.3349 67.4276 88.2345 66.7524 88.125 66.0771C88.125 66.0589 88.1159 66.0497 88.1159 66.0315C88.0976 65.9402 88.0794 65.8399 88.0703 65.7486C87.979 65.1829 87.8786 64.608 87.7783 64.0423C87.76 63.9419 87.7326 63.8416 87.7144 63.7412C87.6596 63.4675 87.6049 63.2028 87.5501 62.9291C87.4863 62.6006 87.4224 62.2721 87.3494 61.9436C87.3129 61.7611 87.2673 61.5786 87.2216 61.3961C87.1578 61.1041 87.0848 60.803 87.0118 60.511C86.957 60.2829 86.9114 60.0548 86.8566 59.8358C86.7928 59.562 86.7107 59.2974 86.6468 59.0236C86.5738 58.7316 86.4917 58.4306 86.4095 58.1386C86.373 57.9926 86.3365 57.8465 86.2909 57.7005C86.1814 57.3173 86.0628 56.925 85.9533 56.5417C85.8803 56.2954 85.8073 56.0399 85.7343 55.7935C85.7161 55.7205 85.6978 55.6475 85.6704 55.5836C85.4606 54.8901 85.2324 54.1966 85.0043 53.5032C85.0043 53.494 84.9952 53.4849 84.9952 53.4758C84.977 53.4119 84.9496 53.3572 84.9313 53.2933C84.7215 52.6819 84.5116 52.0614 84.2926 51.4501C84.2561 51.3497 84.2196 51.2584 84.1831 51.1581C84.101 50.93 84.0097 50.6927 83.9185 50.4646C83.7907 50.1361 83.6721 49.8076 83.5444 49.4791C83.4622 49.2693 83.371 49.0594 83.2889 48.8495C83.1885 48.594 83.0881 48.3385 82.9786 48.083C82.9056 47.9005 82.8326 47.7089 82.7505 47.5264C82.5954 47.1523 82.4311 46.7873 82.276 46.4132C82.1939 46.2124 82.1118 46.0208 82.0205 45.8201C81.9931 45.7471 81.9566 45.6832 81.9293 45.6102C81.6464 44.9623 81.3453 44.3145 81.0441 43.6666C81.035 43.6393 81.0168 43.6119 81.0077 43.5845C80.9255 43.402 80.8252 43.2195 80.743 43.037C80.5058 42.5352 80.2685 42.0424 80.0222 41.5497C79.9857 41.4676 79.94 41.3946 79.9035 41.3216C79.7028 40.9201 79.4838 40.5186 79.2739 40.108C79.1097 39.7795 78.9454 39.4601 78.7721 39.1316C78.7265 39.0404 78.6717 38.9491 78.6261 38.8579C78.5257 38.6662 78.4162 38.4655 78.3067 38.2739C78.0147 37.7355 77.7136 37.1971 77.4034 36.6679C77.2847 36.4489 77.157 36.2391 77.0292 36.0201C76.9471 35.8741 76.865 35.728 76.7829 35.5912C76.6278 35.3266 76.4635 35.0802 76.3084 34.8156C76.0529 34.3958 75.8065 33.9761 75.551 33.5655C75.3229 33.1914 75.0857 32.8264 74.8484 32.4614C74.5838 32.0508 74.3283 31.6401 74.0546 31.2386C73.9633 31.1018 73.8812 30.9649 73.7899 30.8371C73.5801 30.5178 73.3611 30.2075 73.1421 29.8882C72.9961 29.6692 72.8501 29.4502 72.695 29.2312C72.2205 28.5469 71.7369 27.8716 71.2441 27.2055C71.235 27.1872 71.2259 27.1781 71.2076 27.1599C70.6601 26.4116 70.0944 25.6817 69.5287 24.9517C69.5013 24.9152 69.483 24.8878 69.4557 24.8513C69.0268 24.3129 68.5979 23.7746 68.1599 23.2454C68.0778 23.145 68.0048 23.0446 67.9227 22.9534C67.9136 22.9442 67.9136 22.9442 67.9044 22.9351C67.3935 22.3237 66.8733 21.7124 66.3532 21.1193C66.3259 21.0919 66.2985 21.0645 66.2711 21.028C66.116 20.8455 65.9517 20.6722 65.7875 20.4988C65.4499 20.1247 65.1214 19.7505 64.7838 19.3855C64.7199 19.3125 64.656 19.2487 64.5922 19.1848C64.364 18.9384 64.1359 18.7012 63.9078 18.4639C63.6523 18.1993 63.4059 17.9256 63.1413 17.661C63.0501 17.5606 62.9497 17.4693 62.8493 17.3781C62.6029 17.1226 62.3475 16.8762 62.092 16.6299C61.873 16.42 61.6631 16.201 61.4441 15.9911C61.3163 15.8725 61.1886 15.7539 61.07 15.6352C60.7962 15.3798 60.5225 15.1242 60.2487 14.8687C60.0571 14.6954 59.8746 14.5129 59.683 14.3395C59.5279 14.2027 59.3819 14.0749 59.2268 13.9381C58.953 13.6917 58.6793 13.4544 58.3964 13.2172C58.223 13.0712 58.0588 12.9161 57.8945 12.7792C57.712 12.6241 57.5204 12.4781 57.3379 12.3229C57.0642 12.0948 56.7996 11.8758 56.5258 11.6569C56.389 11.5474 56.243 11.4287 56.1061 11.3101C55.878 11.1276 55.6407 10.9542 55.4035 10.7809C55.148 10.5892 54.9016 10.3885 54.6461 10.206C54.5457 10.133 54.4363 10.0509 54.3359 9.96873C54.0256 9.74061 53.7063 9.52162 53.3869 9.2935C53.177 9.13838 52.9672 8.98326 52.7482 8.83727C52.6934 8.80077 52.6387 8.75514 52.5839 8.71864C52.0182 8.32627 51.4433 7.95216 50.8776 7.58717C50.8685 7.58717 50.8685 7.57804 50.8593 7.57804C50.8228 7.55066 50.7772 7.53245 50.7407 7.50508C50.2206 7.17659 49.7005 6.85718 49.1712 6.54693C49.0435 6.47393 48.9066 6.39181 48.7789 6.31881C48.3865 6.09069 47.9941 5.87172 47.6018 5.66185C47.5653 5.6436 47.5379 5.62536 47.5014 5.60711C47.4467 5.57973 47.3828 5.55232 47.328 5.51583C46.89 5.27858 46.4521 5.05047 46.0141 4.8406C45.9593 4.81323 45.9046 4.78588 45.8498 4.75851C45.8224 4.74938 45.8042 4.74022 45.7768 4.72197C45.3023 4.48473 44.8278 4.26575 44.3534 4.05588C44.3077 4.03763 44.2621 4.01025 44.2165 3.992C44.1617 3.96463 44.0979 3.94636 44.0431 3.91899C43.5595 3.70912 43.085 3.49926 42.6105 3.30764C42.1269 3.11602 41.6433 2.93355 41.1597 2.76018C41.1049 2.74193 41.0502 2.71454 40.9863 2.6963C40.9407 2.67805 40.9042 2.66894 40.8586 2.65982C40.3932 2.49557 39.9278 2.34045 39.4625 2.20358C39.4351 2.19445 39.3986 2.1853 39.3712 2.17617C39.3165 2.15793 39.2708 2.14881 39.2161 2.13056C38.7233 1.98457 38.2215 1.84768 37.7379 1.71994C37.7288 1.71994 37.7196 1.7108 37.7105 1.7108H37.7014C37.1995 1.58305 36.7068 1.47357 36.2049 1.38232C36.1593 1.3732 36.1045 1.35497 36.0589 1.34584C36.0315 1.33672 36.0042 1.3367 35.9768 1.32758C35.4567 1.2272 34.9457 1.14505 34.4347 1.07205C34.3891 1.06293 34.3434 1.05384 34.2978 1.05384C34.2613 1.04472 34.2248 1.04471 34.1975 1.04471C33.6682 0.971711 33.1481 0.926102 32.628 0.889603C32.5915 0.889603 32.5459 0.88047 32.5094 0.88047C32.4455 0.88047 32.3816 0.871336 32.3177 0.871336C32.1444 0.862211 31.9801 0.85306 31.8068 0.843935C31.6699 0.83481 31.5239 0.834848 31.387 0.825723C31.2228 0.825723 31.0494 0.816589 30.8852 0.816589C30.7939 0.816589 30.7027 0.816589 30.6114 0.816589C30.5749 0.816589 30.5293 0.816589 30.4928 0.816589C30.2464 0.816589 30.0092 0.825732 29.7628 0.834857C29.6807 0.834857 29.5986 0.83481 29.5164 0.843935C29.1971 0.862184 28.8777 0.880441 28.5675 0.907815C28.5583 0.907815 28.5401 0.907815 28.531 0.907815C28.4853 0.907815 28.4488 0.916958 28.4032 0.926082C28.1021 0.953457 27.801 0.989952 27.509 1.03558C27.4086 1.05383 27.3082 1.06294 27.217 1.08119C26.925 1.12681 26.633 1.17248 26.341 1.23635C26.3045 1.24547 26.2589 1.24544 26.2133 1.25456C26.2041 1.25456 26.195 1.2637 26.1859 1.2637C25.757 1.35494 25.3282 1.45533 24.9084 1.56483C24.8445 1.58308 24.7807 1.60133 24.7077 1.61958C24.2971 1.72907 23.9047 1.8568 23.5032 1.99367C23.4667 2.00279 23.4302 2.01195 23.3937 2.0302C23.3389 2.04845 23.2842 2.07578 23.2203 2.09403C23.0561 2.14878 22.901 2.21266 22.7458 2.27653C22.6363 2.32216 22.5268 2.35867 22.4174 2.40429C22.2531 2.46817 22.098 2.54115 21.9429 2.61415C21.8425 2.65977 21.7421 2.70542 21.6417 2.75104C21.4684 2.83316 21.295 2.91526 21.1308 3.00651C21.0486 3.05213 20.9665 3.08864 20.8844 3.13427C20.638 3.26201 20.3825 3.3989 20.1453 3.54489L12.5261 7.9704C12.7724 7.8244 13.0188 7.6967 13.2652 7.55983C13.3473 7.5142 13.4294 7.47769 13.5115 7.43207C13.6849 7.34994 13.8492 7.25867 14.0225 7.17655C14.1229 7.13092 14.2233 7.08533 14.3236 7.03971C14.4788 6.96671 14.643 6.9028 14.8073 6.8298C14.9168 6.78417 15.0263 6.73859 15.1358 6.70209C15.2909 6.63822 15.4551 6.57434 15.6102 6.51959C15.7015 6.48309 15.7927 6.45573 15.884 6.41923C16.2764 6.28236 16.6778 6.15458 17.0885 6.04508C17.1523 6.02683 17.2162 6.00858 17.2801 5.99033C17.6998 5.88084 18.1287 5.77132 18.5576 5.6892C18.6123 5.68007 18.6579 5.67098 18.7127 5.66185C19.0047 5.6071 19.2967 5.55237 19.5887 5.50675C19.689 5.4885 19.7894 5.47933 19.8807 5.46108C20.1727 5.42458 20.4738 5.38809 20.7749 5.35159C20.8296 5.34246 20.8844 5.3425 20.9391 5.33337C21.2494 5.306 21.5687 5.27862 21.8881 5.26949C21.9702 5.26949 22.0523 5.26036 22.1345 5.26036C22.3717 5.25124 22.6181 5.24209 22.8645 5.24209C22.9922 5.24209 23.1291 5.24209 23.266 5.24209C23.4302 5.24209 23.5944 5.2421 23.7678 5.25123C23.9047 5.25123 24.0507 5.26037 24.1875 5.26949C24.3518 5.27862 24.5252 5.28771 24.6985 5.29684C24.7989 5.30596 24.9084 5.31511 25.0088 5.31511C25.5289 5.35161 26.049 5.40634 26.5783 5.47021C26.6604 5.47934 26.7334 5.4885 26.8155 5.50675C27.3265 5.57975 27.8375 5.66184 28.3576 5.76221C28.4306 5.78046 28.5127 5.78958 28.5948 5.80783C29.0876 5.9082 29.5894 6.01774 30.0913 6.13636C30.1004 6.13636 30.1187 6.14544 30.1278 6.14544C30.6205 6.26406 31.1133 6.41007 31.606 6.55607C31.6881 6.58344 31.7703 6.60171 31.8433 6.62908C32.3086 6.76595 32.774 6.92107 33.2394 7.08532C33.3397 7.12182 33.431 7.1583 33.5313 7.18568C34.015 7.35905 34.4986 7.54158 34.9822 7.7332C35.4567 7.92482 35.9403 8.12555 36.4148 8.34455C36.5152 8.39017 36.6247 8.43576 36.725 8.48138C37.1995 8.69125 37.674 8.91941 38.1485 9.14753C38.2215 9.18403 38.3036 9.22966 38.3766 9.26616C38.8146 9.48515 39.2526 9.71327 39.6906 9.94139C39.7818 9.98701 39.8731 10.0417 39.9643 10.0874C40.3567 10.2972 40.7491 10.5163 41.1414 10.7444C41.7984 11.1276 42.4554 11.52 43.1033 11.9306C43.1398 11.958 43.1854 11.9762 43.2219 12.0036C43.8606 12.4051 44.4902 12.8248 45.1107 13.2628C45.3297 13.4088 45.5396 13.5639 45.7494 13.7191C46.1692 14.0202 46.5889 14.3122 46.9995 14.6224C47.255 14.814 47.5105 15.0057 47.7569 15.2064C48.131 15.4984 48.5051 15.7812 48.8793 16.0824C49.153 16.3013 49.4267 16.5204 49.6914 16.7485C50.0472 17.0405 50.394 17.3416 50.7498 17.6427C51.0236 17.88 51.3064 18.1263 51.5802 18.3636C51.9269 18.6647 52.2646 18.9749 52.6022 19.2943C52.8759 19.5498 53.1497 19.8053 53.4234 20.0608C53.7701 20.3892 54.1078 20.7178 54.4545 21.0554C54.71 21.3018 54.9564 21.5481 55.2119 21.8036C55.5677 22.1595 55.9145 22.5245 56.2612 22.8895C56.4893 23.1267 56.7266 23.3639 56.9547 23.6103C57.3562 24.0392 57.7577 24.4863 58.15 24.9243C58.3143 25.1068 58.4694 25.2802 58.6337 25.4535C59.1903 26.0831 59.7469 26.731 60.2853 27.3789C60.3674 27.4792 60.4404 27.5796 60.5225 27.6709C60.9879 28.2366 61.4441 28.8023 61.9003 29.3772C62.4752 30.1072 63.0409 30.8463 63.5884 31.5945C63.5975 31.6036 63.6067 31.6128 63.6158 31.6219C63.6158 31.6219 63.6158 31.631 63.6249 31.631C64.1177 32.2972 64.5921 32.9724 65.0666 33.6476C65.2218 33.8666 65.3678 34.0856 65.5138 34.3046C65.824 34.7517 66.1251 35.2079 66.4262 35.6551C66.6909 36.0565 66.9555 36.4672 67.2201 36.8778C67.4573 37.2428 67.6946 37.6169 67.9227 37.9819C68.1782 38.3925 68.4337 38.8122 68.6801 39.232C68.9173 39.6334 69.1637 40.0349 69.4009 40.4364C69.5287 40.6463 69.6473 40.8653 69.7659 41.0752C70.067 41.6135 70.3681 42.1428 70.6693 42.6812C70.7788 42.8728 70.8791 43.0644 70.9886 43.2652C71.2076 43.6758 71.4266 44.0955 71.6365 44.5153C71.8464 44.9167 72.0562 45.3182 72.257 45.7197C72.5398 46.2946 72.8227 46.8694 73.0965 47.4443C73.1877 47.6268 73.279 47.8093 73.3611 48.0009C73.7078 48.74 74.0454 49.4882 74.3739 50.2365C74.456 50.4372 74.5473 50.6288 74.6294 50.8296C74.8667 51.3862 75.1039 51.9428 75.332 52.5085C75.4324 52.764 75.5419 53.0195 75.6423 53.275C75.8522 53.8134 76.062 54.3518 76.2628 54.8901C76.354 55.1183 76.4361 55.3555 76.5183 55.5836C76.7829 56.2954 77.0293 57.0071 77.2665 57.7188C77.2847 57.7827 77.3121 57.8374 77.3304 57.9013C77.5859 58.6769 77.8322 59.4434 78.0695 60.219C78.1425 60.4654 78.2155 60.7209 78.2885 60.9672C78.4436 61.4965 78.5987 62.0348 78.7447 62.5641C78.8268 62.8561 78.8998 63.1572 78.9728 63.4492C79.1006 63.9511 79.2283 64.4438 79.3469 64.9456C79.4199 65.2376 79.4838 65.5296 79.5477 65.8216C79.6663 66.3326 79.7758 66.8527 79.8762 67.3637C79.9309 67.6283 79.9857 67.9021 80.0404 68.1667C80.1682 68.8419 80.2868 69.5081 80.3963 70.1833C80.4145 70.2746 80.4328 70.3749 80.4419 70.4662C80.5605 71.2327 80.67 71.99 80.7613 72.7474C80.7887 72.9664 80.8069 73.1762 80.8343 73.3952C80.8982 73.9427 80.9529 74.4811 80.9985 75.0194C81.0168 75.2749 81.0442 75.5395 81.0624 75.795C81.0989 76.306 81.1354 76.817 81.1536 77.328C81.1628 77.5743 81.181 77.8207 81.1901 78.0671C81.2175 78.7879 81.2358 79.5088 81.2267 80.2297C81.2267 80.9779 81.2084 81.717 81.1719 82.4379C81.1628 82.6386 81.1445 82.8394 81.1354 83.0401C81.108 83.542 81.0715 84.0347 81.0259 84.5183C80.9985 84.8012 80.9712 85.075 80.9438 85.3487C80.8982 85.7593 80.8525 86.1699 80.7978 86.5714C80.7613 86.8634 80.7157 87.1554 80.67 87.4474C80.6153 87.8124 80.5514 88.1774 80.4784 88.5424C80.4145 88.8709 80.3507 89.1902 80.2868 89.5096C80.2138 89.8381 80.1408 90.1575 80.0678 90.4677C79.9766 90.8418 79.8853 91.2068 79.7849 91.5718C79.6845 91.9459 79.5751 92.3292 79.4564 92.6942C79.4291 92.7854 79.4017 92.8766 79.3743 92.9588C79.2101 93.4789 79.0276 93.9808 78.836 94.4735C78.7903 94.6013 78.7356 94.729 78.6808 94.8567C78.5075 95.2947 78.325 95.7145 78.1333 96.1342C78.0968 96.2163 78.0603 96.2984 78.0238 96.3806C77.5311 97.4208 76.9928 98.3972 76.4088 99.3096C76.354 99.4009 76.2901 99.4921 76.2263 99.5834C75.9981 99.921 75.77 100.249 75.5328 100.569C75.4415 100.697 75.3412 100.824 75.2408 100.952C75.0127 101.244 74.7845 101.527 74.5473 101.801C74.456 101.901 74.3739 102.011 74.2736 102.111C73.9451 102.476 73.6166 102.823 73.2698 103.16C73.2242 103.206 73.1695 103.252 73.1238 103.297C72.8227 103.58 72.5125 103.854 72.2022 104.118C72.0836 104.219 71.9741 104.31 71.8555 104.401C71.5817 104.62 71.308 104.83 71.0343 105.022C70.9156 105.104 70.8061 105.186 70.6875 105.268C70.2951 105.533 69.9028 105.788 69.4922 106.025L77.1114 101.6C77.522 101.363 77.9144 101.107 78.3067 100.843C78.4253 100.76 78.5348 100.678 78.6535 100.596C78.9363 100.395 79.2101 100.186 79.4747 99.9757C79.5933 99.8845 79.7119 99.7932 79.8214 99.6929C80.1408 99.4282 80.4419 99.1545 80.743 98.8625C80.7887 98.8169 80.8434 98.7713 80.889 98.7256C81.2358 98.388 81.5643 98.0413 81.8928 97.6763C81.984 97.5759 82.0753 97.4664 82.1665 97.3569C82.4037 97.0832 82.6319 96.8003 82.86 96.5083C82.9604 96.3806 83.0516 96.2528 83.152 96.1251C83.3892 95.8057 83.6173 95.4772 83.8455 95.1396C83.9093 95.0483 83.9732 94.9662 84.028 94.8659C84.0462 94.8385 84.0645 94.8111 84.0827 94.7837C84.6302 93.9169 85.1412 93.0044 85.5974 92.0281C85.6157 91.9916 85.6248 91.9641 85.6431 91.9277C85.6796 91.8455 85.716 91.7634 85.7525 91.6813C85.9442 91.2616 86.1267 90.8418 86.3 90.4038C86.3548 90.2761 86.4004 90.1483 86.4552 90.0206C86.4917 89.9294 86.5282 89.829 86.5647 89.7377C86.7107 89.3362 86.8567 88.9256 86.9935 88.5059C87.0209 88.4146 87.0483 88.3325 87.0757 88.2413C87.1395 88.0314 87.2034 87.8306 87.2673 87.6208C87.3129 87.4565 87.3494 87.2832 87.395 87.1189C87.4954 86.7539 87.5958 86.3889 87.6779 86.0148C87.7144 85.8597 87.76 85.7228 87.7965 85.5677C87.833 85.4035 87.8604 85.221 87.8969 85.0567C87.9607 84.7373 88.0337 84.418 88.0885 84.0986C88.1159 83.9344 88.1615 83.7701 88.1889 83.6058C88.2254 83.4142 88.2436 83.2044 88.2801 83.0036C88.3258 82.7116 88.3714 82.4196 88.4079 82.1276C88.4261 81.9725 88.4535 81.8356 88.4717 81.6805C88.4991 81.425 88.5265 81.1604 88.5539 80.9049C88.5812 80.6312 88.6177 80.3574 88.636 80.0746C88.6451 79.9651 88.6634 79.8556 88.6725 79.7369C88.6999 79.3628 88.7181 78.9796 88.7455 78.5963C88.7546 78.3956 88.7729 78.1949 88.782 77.985C88.782 77.9302 88.7911 77.8846 88.7911 77.839C88.8185 77.2002 88.8367 76.5524 88.8367 75.8954C88.8367 75.8589 88.8367 75.8224 88.8367 75.7768C88.9189 75.1928 88.9097 74.5814 88.8915 73.9792Z" fill="#1B6D8D"/>
<path d="M41.1853 10.7345C63.4133 23.5731 81.3801 54.6795 81.3071 80.2198C81.2341 105.76 63.1578 116.062 40.9298 103.223C18.7018 90.3939 0.74424 59.2784 0.817238 33.7381C0.881112 8.1978 18.9573 -2.10412 41.1853 10.7345Z" fill="#D4FBFC"/>
<path d="M34.2435 21.6023C38.7238 19.0747 43.4413 17.1859 48.2866 15.7259C46.8357 14.713 45.3666 13.7641 43.8793 12.8972C21.6513 0.067759 3.57508 10.3697 3.50208 35.91C3.48383 42.8083 4.78868 50.1173 7.12463 57.3533C11.9516 42.7171 20.164 29.55 34.2435 21.6023Z" fill="#B5E2E2"/>
<path d="M40.4112 55.2724C42.446 56.4495 44.0885 59.2964 44.0885 61.6415C44.0793 63.9775 42.4278 64.9264 40.3929 63.7493C38.3581 62.5722 36.7156 59.7253 36.7156 57.3894C36.7156 55.0443 38.3764 54.0953 40.4112 55.2724Z" fill="#E84242"/>
<path d="M23.1303 17.0774C26.6068 17.0774 30.8042 18.437 35.2571 21.0102C53.8535 31.741 69.5025 58.8416 69.4477 80.1936C69.4295 86.1247 68.152 90.9609 65.8434 93.8352C64.1645 95.9248 61.9837 96.9011 58.9998 96.9011C55.5233 96.9011 51.3259 95.5415 46.873 92.9683C28.2858 82.2376 12.6276 55.1369 12.6915 33.794C12.7098 27.8629 13.9872 23.0177 16.3049 20.1525C17.9656 18.0446 20.1373 17.0774 23.1303 17.0774ZM23.1303 5.21518C9.94494 5.21518 0.865762 15.663 0.811013 33.7484C0.738014 59.2887 18.6956 90.3951 40.9236 103.234C47.4114 106.984 53.5523 108.754 58.9816 108.754C72.1669 108.754 81.2461 98.3064 81.3008 80.221C81.3738 54.6807 63.4162 23.5651 41.1791 10.7357C34.7005 6.98538 28.5686 5.21518 23.1303 5.21518Z" fill="#134C62"/>
<path d="M63.398 71.8806C64.639 72.5924 64.6299 74.7914 63.3889 74.0797C62.4764 73.5505 61.5639 73.0212 60.6423 72.492C54.2367 68.7964 47.8311 65.0918 41.4255 61.3963C40.1937 60.6845 40.2028 58.4854 41.4346 59.1972C42.3471 59.7264 43.2596 60.2556 44.1812 60.7849C50.5777 64.4804 56.9833 68.1851 63.398 71.8806Z" fill="#E84242"/>
<path d="M39.2792 57.2346C39.991 58.4756 38.8777 60.3735 38.166 59.1325C37.6459 58.22 37.1166 57.2984 36.5874 56.3859C32.901 49.9712 23.2743 33.282 19.597 26.8672C18.8853 25.6354 19.9985 23.7374 20.7103 24.9693C21.2395 25.8817 21.7596 26.8034 22.2889 27.7158C25.9753 34.1397 35.6019 50.8199 39.2792 57.2346Z" fill="#E84242"/>
</svg>
