<svg width="110" height="90" viewBox="0 0 110 90" fill="none" xmlns="http://www.w3.org/2000/svg">
<path d="M0.629395 5.34902L8.43765 0.808868L13.8371 3.92135L6.0221 8.4615L0.629395 5.34902Z" fill="#247F9B"/>
<path d="M6.02249 8.4615L13.8375 3.92136L17.5454 22.8533L9.73718 27.3935L6.02249 8.4615Z" fill="#1B6D8D"/>
<path d="M17.0173 23.6451L24.8323 19.105L19.8997 33.6321L12.0847 38.179L17.0173 23.6451Z" fill="#15647C"/>
<path d="M14.5004 13.3596L22.3155 8.81943L27.5187 11.8236L19.7105 16.3638L14.5004 13.3596Z" fill="#247F9B"/>
<path d="M19.7108 16.3646L27.519 11.8244L32.1945 31.3451L24.3863 35.8852L19.7108 16.3646Z" fill="#1B6D8D"/>
<path d="M33.3303 24.2267L41.1386 19.6865L34.8662 42.279L27.0512 46.8192L33.3303 24.2267Z" fill="#15647C"/>
<path d="M28.1207 21.2227L35.9357 16.6826L41.1389 19.6868L33.3307 24.2269L28.1207 21.2227Z" fill="#247F9B"/>
<path d="M33.3307 24.2264L27.0516 46.819L21.8145 43.7944L17.0173 23.6445L12.0847 38.1784L6.75286 35.0998L0.629395 5.34859L6.0221 8.46107L9.73678 27.3931L14.5002 13.3598L19.7102 16.364L24.3857 35.8847L28.1207 21.2222L33.3307 24.2264Z" fill="#DC3333"/>
<mask id="mask0_1_203" style="mask-type:luminance" maskUnits="userSpaceOnUse" x="50" y="48" width="9" height="6">
<path d="M58.4337 48.3895L50.6187 52.9296C50.5443 52.9702 50.4698 53.0108 50.3954 53.0447L58.2104 48.5045C58.2849 48.4707 58.3661 48.4369 58.4337 48.3895Z" fill="white"/>
</mask>
<g mask="url(#mask0_1_203)">
<path d="M50.3956 53.0508L58.2106 48.5106C58.285 48.4768 58.3662 48.4362 58.4339 48.3956L50.6189 52.9358C50.5512 52.9764 50.4768 53.0102 50.3956 53.0508Z" fill="#858585"/>
</g>
<path d="M57.7977 48.6594C57.7165 48.6865 57.6353 48.7068 57.5541 48.7271C57.4526 48.7541 57.3579 48.7744 57.2564 48.788C57.2091 48.7947 57.1617 48.8015 57.1143 48.8083C56.9587 48.8286 56.8031 48.8421 56.6475 48.8421C56.6339 48.8421 56.6204 48.8421 56.6069 48.8421C56.4309 48.8421 56.255 48.8286 56.0723 48.8015C55.8829 48.7744 55.6934 48.7406 55.4972 48.6865C55.4837 48.6865 55.4769 48.6797 55.4634 48.6797C55.2807 48.6323 55.0912 48.5714 54.9018 48.5038C54.8815 48.497 54.8612 48.4902 54.8409 48.4835C54.6582 48.4158 54.4687 48.3346 54.2793 48.2466C54.259 48.2399 54.2387 48.2264 54.2184 48.2196C54.0154 48.1181 53.8056 48.0166 53.5959 47.8948C53.3861 47.773 53.1831 47.6445 52.9801 47.5091C52.9666 47.4956 52.9463 47.4888 52.9328 47.4821C52.7366 47.3467 52.5336 47.2047 52.3441 47.049C52.3306 47.0423 52.3238 47.0355 52.3103 47.022C52.1141 46.8663 51.9179 46.7039 51.7284 46.5348C51.7216 46.528 51.7149 46.5213 51.7081 46.5145C51.5119 46.3386 51.3157 46.1559 51.1262 45.9597C50.9367 45.7702 50.7541 45.5672 50.5781 45.3642C50.5646 45.3507 50.5511 45.3372 50.5375 45.3236C50.3684 45.1274 50.206 44.9312 50.0436 44.7214C50.0233 44.6944 49.9962 44.6605 49.9759 44.6335C49.8474 44.4643 49.7188 44.2884 49.5903 44.1057C49.5429 44.0448 49.5023 43.9839 49.4549 43.9163C49.2993 43.6862 49.1437 43.4494 48.9881 43.2058C48.8257 42.9419 48.6768 42.678 48.528 42.4074C48.5212 42.4006 48.5212 42.3938 48.5144 42.3871C48.3723 42.1232 48.2438 41.8525 48.122 41.5819C48.0002 41.3045 47.8919 41.0271 47.7904 40.7497C47.7904 40.7429 47.7837 40.7293 47.7837 40.7226C47.6822 40.4452 47.5942 40.1678 47.5198 39.8836C47.5198 39.8768 47.513 39.87 47.513 39.8633C47.4386 39.5859 47.3709 39.3017 47.31 39.0175C47.3033 38.9904 47.3033 38.9701 47.2965 38.9431C47.2424 38.6656 47.195 38.3882 47.1544 38.1108C47.1544 38.0905 47.1476 38.077 47.1476 38.0567C47.107 37.759 47.08 37.4545 47.0597 37.15C47.0597 37.15 47.0597 37.15 47.0597 37.1432C47.0394 36.832 47.0326 36.514 47.0326 36.196C47.0326 35.9185 47.0461 35.6614 47.0597 35.4043C47.0597 35.3637 47.0664 35.3299 47.0664 35.2893C47.0867 35.0525 47.1071 34.8224 47.1409 34.6059C47.1477 34.5721 47.1544 34.5315 47.1544 34.4976C47.1882 34.2879 47.2288 34.0849 47.2762 33.8887C47.283 33.8548 47.2897 33.821 47.3033 33.7939C47.3506 33.5977 47.4115 33.415 47.4724 33.2459C47.4792 33.2256 47.4927 33.2053 47.4995 33.185C47.5536 33.0429 47.6213 32.9076 47.6889 32.779C47.716 32.7249 47.7498 32.6707 47.7769 32.6166C47.8513 32.488 47.9258 32.373 48.0137 32.258C48.0205 32.2445 48.0273 32.2309 48.0408 32.2242C48.1355 32.1024 48.2438 31.9941 48.352 31.8926C48.3791 31.8656 48.4062 31.8453 48.4332 31.825C48.5482 31.7302 48.67 31.6355 48.7986 31.5611L40.9836 36.1012C40.855 36.1757 40.7332 36.2636 40.6182 36.3651C40.5911 36.3854 40.5641 36.4125 40.537 36.4328C40.4288 36.5343 40.3205 36.6425 40.2258 36.7643C40.219 36.7779 40.2122 36.7846 40.1987 36.7982C40.1378 36.8726 40.0837 36.9538 40.0295 37.035C40.0092 37.0688 39.9889 37.1162 39.9619 37.15C39.9281 37.2041 39.901 37.2583 39.8739 37.3124C39.8536 37.353 39.8265 37.3936 39.8063 37.4342C39.7657 37.5222 39.7251 37.6169 39.6845 37.7184C39.6777 37.7387 39.6642 37.759 39.6574 37.7793C39.6574 37.786 39.6506 37.7928 39.6506 37.7996C39.61 37.9146 39.5695 38.0364 39.5289 38.1582C39.5153 38.2123 39.5018 38.2732 39.4883 38.3273C39.4815 38.3612 39.468 38.395 39.4612 38.4221C39.4544 38.4559 39.4409 38.4829 39.4341 38.5168C39.4071 38.6386 39.38 38.7671 39.3597 38.8957C39.3529 38.9363 39.3462 38.9836 39.3394 39.0242C39.3326 39.0581 39.3259 39.0919 39.3259 39.1325C39.3191 39.1866 39.3055 39.2408 39.2988 39.2949C39.2785 39.4302 39.265 39.5723 39.2582 39.7212C39.2582 39.7482 39.2514 39.7821 39.2514 39.8159C39.2514 39.8565 39.2447 39.8903 39.2447 39.9309C39.2379 40.0189 39.2311 40.1001 39.2311 40.188C39.2244 40.3504 39.2176 40.5196 39.2176 40.6888C39.2176 40.7023 39.2176 40.709 39.2176 40.7226C39.2176 40.885 39.2176 41.0406 39.2244 41.203C39.2311 41.3586 39.2379 41.5142 39.2447 41.6699C39.2447 41.6699 39.2447 41.6699 39.2447 41.6766C39.2514 41.8255 39.265 41.9743 39.2785 42.1164C39.292 42.2585 39.3056 42.3938 39.3259 42.5359C39.3259 42.5495 39.3326 42.5698 39.3326 42.5833C39.3326 42.6036 39.3394 42.6171 39.3394 42.6374C39.3529 42.7389 39.3665 42.8336 39.38 42.9351C39.4003 43.0637 39.4206 43.1923 39.4476 43.3141C39.4544 43.3682 39.468 43.4223 39.4815 43.4697C39.4883 43.4967 39.4882 43.5171 39.495 43.5441C39.5018 43.5915 39.5153 43.6321 39.5221 43.6794C39.5491 43.8012 39.5762 43.9163 39.6033 44.0313C39.6303 44.1463 39.6642 44.2613 39.6912 44.3696C39.6912 44.3764 39.6912 44.3831 39.698 44.3831C39.698 44.3899 39.698 44.3967 39.7048 44.3967C39.7318 44.4981 39.7589 44.5929 39.7927 44.6876C39.8266 44.7891 39.8604 44.8974 39.8942 44.9989C39.9213 45.0801 39.9483 45.1545 39.9754 45.2357C39.9754 45.2424 39.9822 45.256 39.9822 45.2627C39.9889 45.2763 39.989 45.283 39.9957 45.2966C40.0296 45.3913 40.0634 45.4793 40.0972 45.574C40.131 45.662 40.1649 45.7499 40.2055 45.8446C40.2393 45.9326 40.2799 46.0206 40.3137 46.1018C40.3543 46.1897 40.3949 46.2777 40.4355 46.3656C40.4761 46.4604 40.5235 46.5483 40.5708 46.6431C40.6182 46.731 40.6656 46.8257 40.7062 46.9137C40.7129 46.9205 40.7129 46.9272 40.7197 46.9408C40.7265 46.9475 40.7265 46.9543 40.7332 46.9611C40.8144 47.1099 40.8956 47.2588 40.9768 47.4009C41.0445 47.5091 41.1054 47.6242 41.173 47.7324C41.3084 47.9489 41.4505 48.1655 41.5858 48.3685C41.5993 48.3955 41.6196 48.4158 41.6399 48.4429C41.6873 48.5105 41.7279 48.5714 41.7752 48.6323C41.8497 48.7338 41.9173 48.8421 41.9918 48.9436C42.0459 49.018 42.1 49.0924 42.1609 49.1601C42.1812 49.1872 42.2083 49.221 42.2286 49.2481C42.2489 49.2684 42.2624 49.2954 42.2827 49.3157C42.3707 49.424 42.4519 49.5322 42.5398 49.6337C42.6007 49.7082 42.6616 49.7758 42.7225 49.8435C42.7361 49.857 42.7496 49.8706 42.7631 49.8841C42.7767 49.8976 42.7834 49.9112 42.7969 49.9247C42.8781 50.0194 42.9661 50.1141 43.0541 50.2089C43.142 50.3036 43.23 50.3915 43.3179 50.4863C43.4127 50.581 43.5006 50.669 43.5954 50.7637C43.6901 50.8584 43.7848 50.9464 43.8863 51.0343C43.8931 51.0411 43.8931 51.0411 43.8998 51.0479C43.9066 51.0547 43.9134 51.0614 43.9201 51.0682C44.0081 51.1426 44.0893 51.2238 44.1773 51.2915C44.2788 51.3727 44.3735 51.4539 44.475 51.5351C44.4817 51.5418 44.4885 51.5486 44.4953 51.5486C44.5088 51.5553 44.5156 51.5621 44.5291 51.5757C44.6103 51.6433 44.6915 51.7042 44.7794 51.7651C44.8809 51.8395 44.9824 51.914 45.0839 51.9816C45.0975 51.9884 45.1042 51.9952 45.1178 52.0019C45.1313 52.0155 45.1516 52.0222 45.1651 52.029C45.2396 52.0831 45.314 52.1305 45.3952 52.1778C45.4967 52.2455 45.6049 52.3064 45.7132 52.3741C45.7403 52.3876 45.7606 52.4011 45.7876 52.4147C45.8688 52.462 45.95 52.5094 46.0312 52.55C46.1327 52.6041 46.2342 52.6582 46.3289 52.7056C46.356 52.7191 46.3831 52.7327 46.4101 52.7394C46.4304 52.7462 46.4507 52.7598 46.471 52.7665C46.5184 52.7868 46.5725 52.8139 46.6199 52.8342C46.7146 52.8748 46.8093 52.9154 46.8973 52.9492C46.9447 52.9695 46.9853 52.983 47.0326 52.9966C47.0529 53.0033 47.0732 53.0101 47.0935 53.0169C47.1206 53.0236 47.1476 53.0372 47.1747 53.0439C47.2627 53.0777 47.3574 53.1048 47.4454 53.1319C47.513 53.1522 47.5874 53.1725 47.6551 53.1928C47.6686 53.1928 47.6754 53.1995 47.6889 53.1995C47.6957 53.1995 47.7092 53.2063 47.716 53.2063C47.804 53.2266 47.8987 53.2469 47.9867 53.2672C48.0814 53.2875 48.1693 53.3011 48.2641 53.3146C48.3588 53.3281 48.4535 53.3349 48.555 53.3416C48.6362 53.3484 48.7242 53.3484 48.8054 53.3484C48.8189 53.3484 48.8324 53.3484 48.846 53.3484C48.8527 53.3484 48.8595 53.3484 48.8663 53.3484C48.9813 53.3484 49.0896 53.3416 49.2046 53.3349C49.2452 53.3349 49.279 53.3213 49.3128 53.3213C49.3602 53.3146 49.4076 53.3078 49.4549 53.301C49.5023 53.2943 49.5429 53.2875 49.5903 53.2807C49.6444 53.2672 49.6985 53.2469 49.7526 53.2401C49.8338 53.2198 49.915 53.1995 49.9962 53.1725C50.0301 53.1589 50.0639 53.159 50.091 53.1454C50.1992 53.1048 50.3007 53.0642 50.409 53.0169L58.224 48.4767C58.0751 48.5714 57.9398 48.6188 57.7977 48.6594Z" fill="#1B6D8D"/>
<path d="M65.4572 46.8942C65.4572 46.8807 65.4572 46.8672 65.4572 46.8469C65.4572 46.6168 65.4572 46.38 65.4504 46.1499C65.4504 46.1364 65.4504 46.1296 65.4504 46.1161C65.4504 46.0349 65.4436 45.947 65.4369 45.8658C65.4301 45.7237 65.4234 45.5884 65.4166 45.4463C65.4166 45.426 65.4098 45.4057 65.4098 45.3854C65.4031 45.2974 65.3963 45.2162 65.3895 45.1282C65.3827 45.0065 65.376 44.8914 65.3624 44.7696C65.3557 44.7358 65.3557 44.702 65.3489 44.6614C65.3421 44.5734 65.3286 44.4854 65.3219 44.3975C65.3083 44.3027 65.3016 44.2148 65.288 44.1201C65.2813 44.0659 65.2745 44.0118 65.2609 43.9509C65.2474 43.8629 65.2339 43.775 65.2203 43.687C65.2136 43.6194 65.2001 43.5517 65.1933 43.4908C65.1798 43.4096 65.1662 43.3216 65.1527 43.2405C65.1392 43.1593 65.1256 43.0713 65.1121 42.9901C65.1053 42.9495 65.0986 42.9089 65.0918 42.8683C65.0647 42.7398 65.0377 42.6112 65.0106 42.4826C64.9971 42.4217 64.9835 42.3609 64.9768 42.3C64.9768 42.2864 64.97 42.2729 64.97 42.2526C64.9294 42.0496 64.8821 41.8534 64.8279 41.6504C64.8279 41.6368 64.8212 41.6301 64.8212 41.6166C64.8076 41.5692 64.7941 41.5218 64.7806 41.4745C64.7467 41.3391 64.7129 41.197 64.6723 41.0617C64.6587 41.0211 64.6452 40.9805 64.6385 40.9399C64.6182 40.8655 64.5978 40.7911 64.5775 40.7234C64.5572 40.6422 64.5302 40.5678 64.5099 40.4866C64.4828 40.4054 64.4558 40.3242 64.4355 40.243C64.4152 40.1753 64.3949 40.1077 64.3678 40.04C64.3543 39.9994 64.3407 39.9656 64.334 39.925C64.2731 39.7423 64.2122 39.5664 64.1445 39.3837C64.1445 39.3769 64.1445 39.3769 64.1378 39.3702C64.0769 39.201 64.0159 39.0318 63.9483 38.8627C63.928 38.8153 63.9077 38.768 63.8942 38.7206C63.8739 38.6597 63.8468 38.6056 63.8265 38.5447C63.7994 38.477 63.7724 38.4161 63.7453 38.3484C63.6979 38.2267 63.6438 38.1116 63.5897 37.9898C63.5762 37.956 63.5559 37.9154 63.5423 37.8816C63.5356 37.8681 63.5288 37.8545 63.522 37.841C63.4476 37.6718 63.3664 37.4959 63.2852 37.3268C63.2717 37.2997 63.2581 37.2659 63.2446 37.2388C63.2175 37.1779 63.1837 37.1102 63.1499 37.0493C63.1025 36.9546 63.0619 36.8666 63.0145 36.7719C62.9875 36.711 62.9537 36.6501 62.9198 36.5892C62.8725 36.4945 62.8251 36.3998 62.7777 36.3118C62.7507 36.2509 62.7168 36.1968 62.6898 36.1359C62.6627 36.0885 62.6356 36.0412 62.6086 35.987C62.4868 35.757 62.3582 35.5337 62.2297 35.3036C62.2026 35.2495 62.1755 35.2022 62.1417 35.148C62.1146 35.0939 62.0808 35.0465 62.0537 34.9924C61.7899 34.5458 61.5192 34.1196 61.2418 33.7068C61.208 33.6527 61.1674 33.5918 61.1335 33.5377C61.1065 33.4971 61.0862 33.4632 61.0591 33.4226C60.8358 33.0978 60.6125 32.7798 60.3825 32.4686C60.3486 32.428 60.3148 32.3874 60.2878 32.34C60.2539 32.2927 60.2133 32.2453 60.1795 32.1979C60.0848 32.0761 59.99 31.9476 59.8953 31.8258C59.7532 31.6431 59.6111 31.4672 59.4623 31.2913C59.4149 31.2304 59.3608 31.1762 59.3134 31.1153C59.2864 31.0815 59.2525 31.0477 59.2255 31.0071C59.1646 30.9327 59.1037 30.8582 59.036 30.7906C58.8939 30.6282 58.7451 30.4658 58.603 30.3102C58.5015 30.2019 58.4 30.0936 58.2985 29.9921C58.2714 29.9651 58.2511 29.938 58.224 29.9109C58.197 29.8839 58.1767 29.8568 58.1496 29.8297C57.9872 29.6674 57.8316 29.5117 57.6692 29.3561C57.5136 29.2073 57.358 29.0652 57.2024 28.9231C57.1956 28.9163 57.1821 28.9095 57.1753 28.896C57.1685 28.8892 57.1618 28.8892 57.1618 28.8825C56.9858 28.7268 56.8099 28.5712 56.634 28.4224C56.4581 28.2735 56.2754 28.1247 56.0927 27.9826C56.0859 27.9758 56.0791 27.969 56.0724 27.969C56.0588 27.9623 56.0521 27.9555 56.0386 27.942C55.8762 27.8134 55.707 27.6849 55.5446 27.5631C55.3619 27.4277 55.1725 27.2924 54.983 27.1638C54.9627 27.1503 54.9424 27.1368 54.9221 27.1232C54.8951 27.1029 54.868 27.0894 54.8409 27.0691C54.6988 26.9744 54.5567 26.8797 54.4079 26.7849C54.2117 26.6631 54.0155 26.5413 53.8192 26.4263C53.7719 26.3993 53.7245 26.3722 53.6839 26.3451C53.5283 26.2572 53.3794 26.1692 53.2306 26.088C53.2035 26.0745 53.1764 26.0609 53.1494 26.0474C53.0614 26 52.9802 25.9594 52.899 25.9188C52.8246 25.8783 52.7434 25.8377 52.669 25.8038C52.6351 25.7835 52.6013 25.77 52.5675 25.7565C52.4863 25.7159 52.4118 25.682 52.3306 25.6482C52.263 25.6211 52.2021 25.5873 52.1344 25.5602C52.0871 25.5399 52.0397 25.5196 51.9991 25.4993C51.9247 25.4655 51.8502 25.4317 51.7758 25.4046C51.7284 25.3843 51.6743 25.364 51.627 25.3437C51.5661 25.3166 51.5052 25.2964 51.4443 25.2761C51.3766 25.249 51.3022 25.2219 51.2345 25.1949C51.2007 25.1813 51.1669 25.1678 51.133 25.1543C51.0518 25.1272 50.9706 25.1001 50.8894 25.0731C50.8285 25.0528 50.7609 25.0325 50.7 25.0122C50.6797 25.0054 50.6594 24.9986 50.6391 24.9919C50.5241 24.958 50.409 24.931 50.3008 24.8972C50.2602 24.8836 50.2196 24.8701 50.179 24.8633C50.1722 24.8633 50.1655 24.8566 50.1587 24.8566C49.9963 24.816 49.8339 24.7821 49.6783 24.7483C49.6715 24.7483 49.6715 24.7483 49.6647 24.7483C49.6174 24.7415 49.57 24.7348 49.5227 24.728C49.4144 24.7077 49.2994 24.6874 49.1911 24.6739C49.1776 24.6739 49.1708 24.6739 49.1573 24.6671C49.0828 24.6603 49.0084 24.6536 48.934 24.6468C48.8528 24.64 48.7716 24.6265 48.6904 24.6197C48.6769 24.6197 48.6633 24.6197 48.6498 24.6197C48.5483 24.613 48.4468 24.613 48.3386 24.6062C48.2777 24.6062 48.2168 24.5994 48.1491 24.5994C48.1423 24.5994 48.1288 24.5994 48.122 24.5994C47.9393 24.5994 47.7567 24.6062 47.5807 24.6265C47.574 24.6265 47.574 24.6265 47.5672 24.6265C47.5537 24.6265 47.5334 24.6333 47.5199 24.6333C47.3372 24.6536 47.1612 24.6806 46.9785 24.7077C46.9515 24.7145 46.9244 24.7145 46.9041 24.7212C46.85 24.7348 46.8026 24.7483 46.7485 24.7551C46.6876 24.7686 46.6267 24.7821 46.5658 24.7956C46.4778 24.8159 46.3831 24.843 46.2952 24.8701C46.241 24.8904 46.1801 24.9039 46.126 24.9242C46.1125 24.931 46.0922 24.931 46.0719 24.9378C45.9907 24.9648 45.9162 24.9986 45.835 25.0325C45.7877 25.0528 45.7403 25.0663 45.693 25.0866C45.5509 25.1475 45.4155 25.2084 45.2735 25.2828C45.1923 25.3234 45.1111 25.3708 45.0366 25.4114L37.2216 29.9515C37.3028 29.9042 37.3772 29.8636 37.4584 29.823C37.5938 29.7553 37.7359 29.6877 37.8779 29.6268C37.9253 29.6065 37.9727 29.5929 38.02 29.5726C38.1148 29.532 38.2095 29.4982 38.311 29.4644C38.3651 29.4441 38.426 29.4305 38.4801 29.4102C38.5681 29.3832 38.656 29.3561 38.7508 29.3358C38.8117 29.3223 38.8726 29.3088 38.9335 29.2952C39.0079 29.2749 39.0891 29.2614 39.1635 29.2479C39.3395 29.214 39.5154 29.1869 39.6981 29.1734C39.7184 29.1734 39.7387 29.1667 39.759 29.1667C39.9349 29.1531 40.1176 29.1464 40.3003 29.1396C40.3679 29.1396 40.4423 29.1464 40.51 29.1464C40.6115 29.1464 40.713 29.1531 40.8212 29.1599C40.916 29.1667 41.0107 29.1734 41.1054 29.187C41.1799 29.1937 41.2543 29.2005 41.3355 29.2073C41.4573 29.2208 41.5859 29.2479 41.7076 29.2682C41.755 29.2749 41.8024 29.2817 41.843 29.2884C42.0121 29.3223 42.188 29.3629 42.3572 29.4035C42.3978 29.417 42.4384 29.4238 42.479 29.4373C42.6143 29.4711 42.7429 29.5117 42.8782 29.5523C42.9391 29.5726 43.0068 29.5929 43.0676 29.6132C43.1827 29.6538 43.2977 29.6877 43.4127 29.7283C43.4804 29.7553 43.5548 29.7824 43.6225 29.8094C43.7307 29.85 43.8458 29.8974 43.954 29.9448C44.0285 29.9786 44.1029 30.0057 44.1773 30.0395C44.2856 30.0869 44.4006 30.141 44.5089 30.1884C44.5901 30.2222 44.6645 30.2628 44.7457 30.2966C44.8539 30.3507 44.969 30.4049 45.0772 30.4658C45.1584 30.5064 45.2464 30.5537 45.3276 30.5943C45.5035 30.6891 45.6862 30.7906 45.8689 30.892C46.2613 31.1221 46.647 31.3657 47.0259 31.616C47.053 31.6363 47.08 31.6499 47.1071 31.6702C47.486 31.9273 47.8581 32.1979 48.2235 32.4821C48.2371 32.4889 48.2438 32.4957 48.2574 32.5092C48.6295 32.8069 49.0017 33.1114 49.3603 33.4362C49.367 33.4429 49.3806 33.4497 49.3873 33.4632C49.7324 33.7812 50.0775 34.106 50.409 34.4511C50.4361 34.4782 50.4564 34.5052 50.4835 34.5323C50.8015 34.8638 51.1127 35.2022 51.4104 35.554C51.4375 35.5878 51.4713 35.6216 51.4984 35.6622C51.7961 36.0073 52.0803 36.3727 52.3645 36.7448C52.3983 36.7922 52.4389 36.8396 52.4727 36.887C52.7637 37.2726 53.0479 37.6718 53.3185 38.0846C53.3523 38.1387 53.3929 38.1996 53.4268 38.2537C53.7042 38.6732 53.9748 39.0995 54.2387 39.5393C54.2996 39.6408 54.3538 39.7491 54.4147 39.8506C54.5432 40.0806 54.6718 40.3039 54.7936 40.534C54.8545 40.6422 54.9086 40.7505 54.9627 40.852C55.0101 40.9467 55.0574 41.0347 55.1048 41.1294C55.1792 41.285 55.2604 41.4339 55.3281 41.5895C55.3619 41.6504 55.389 41.718 55.4228 41.7789C55.5243 41.9955 55.619 42.2052 55.7138 42.4217C55.7273 42.4556 55.7476 42.4962 55.7611 42.53C55.8423 42.7127 55.9168 42.8954 55.9912 43.0848C56.0183 43.1457 56.0386 43.1999 56.0589 43.2608C56.1468 43.4773 56.228 43.6938 56.3024 43.9036C56.3024 43.9103 56.3024 43.9103 56.3092 43.9171C56.3904 44.1336 56.4648 44.3569 56.5325 44.5734C56.5528 44.6411 56.5798 44.7087 56.6001 44.7764C56.6475 44.932 56.7016 45.0944 56.749 45.25C56.7693 45.3245 56.7896 45.3989 56.8167 45.4733C56.864 45.6492 56.9182 45.8319 56.9588 46.0078C56.9723 46.0552 56.9858 46.1026 56.9994 46.1499C57.0535 46.38 57.1076 46.6033 57.155 46.8333C57.1685 46.8942 57.182 46.9551 57.1888 47.016C57.2226 47.1852 57.2565 47.3543 57.2903 47.5235C57.3039 47.6047 57.3174 47.6927 57.3309 47.7738C57.358 47.9227 57.3783 48.0716 57.4053 48.2204C57.4189 48.3084 57.4324 48.3963 57.4459 48.4843C57.4662 48.6332 57.4865 48.782 57.5001 48.9309C57.5068 49.0188 57.5204 49.1068 57.5271 49.1947C57.5407 49.3504 57.5542 49.4992 57.5677 49.6549C57.5745 49.7428 57.5813 49.824 57.588 49.912C57.6016 50.0744 57.6083 50.23 57.6151 50.3924C57.6219 50.4736 57.6219 50.5615 57.6286 50.6427C57.6354 50.8863 57.6422 51.1299 57.6422 51.3667C57.6422 51.475 57.6354 51.5832 57.6354 51.6915C57.6354 51.8336 57.6286 51.9757 57.6286 52.111C57.6219 52.226 57.6151 52.3343 57.6083 52.4426C57.6016 52.5576 57.5948 52.6794 57.588 52.7944C57.5813 52.9094 57.5677 53.0177 57.5542 53.126C57.5407 53.2342 57.5339 53.3425 57.5204 53.444C57.5068 53.5455 57.4933 53.6469 57.473 53.7484C57.4595 53.8567 57.4459 53.9582 57.4256 54.0665C57.4121 54.1544 57.3918 54.2424 57.3783 54.3236C57.358 54.4386 57.3377 54.5536 57.3106 54.6619C57.2903 54.7363 57.2768 54.8107 57.2565 54.8852C57.2294 55.007 57.1956 55.1287 57.1618 55.2438C57.1415 55.3114 57.1212 55.3791 57.1009 55.4468C57.0603 55.5686 57.0197 55.6971 56.9791 55.8122C56.9588 55.8798 56.9317 55.9407 56.9046 56.0016C56.8505 56.1437 56.7896 56.2858 56.7287 56.4211C56.7016 56.4752 56.6814 56.5294 56.6543 56.5767C56.546 56.7932 56.431 57.003 56.3092 57.1992C56.2821 57.2398 56.2551 57.2872 56.228 57.3278C56.1401 57.4631 56.0453 57.5917 55.9438 57.7202C55.9168 57.7608 55.8829 57.7947 55.8559 57.8353C55.7341 57.9841 55.5987 58.133 55.4634 58.2683C55.4364 58.2954 55.4093 58.3224 55.3755 58.3495C55.2604 58.4578 55.1386 58.566 55.0101 58.6607C54.9695 58.6946 54.9289 58.7284 54.8815 58.7555C54.7259 58.8705 54.5635 58.9788 54.3944 59.0802L62.2094 54.5401C62.3785 54.4386 62.5409 54.3303 62.6965 54.2153C62.7371 54.1815 62.7845 54.1477 62.8251 54.1206C62.9537 54.0191 63.0754 53.9176 63.1905 53.8093C63.2175 53.7823 63.2446 53.762 63.2784 53.7349C63.4138 53.5996 63.5491 53.4575 63.6709 53.3019C63.698 53.268 63.7318 53.2274 63.7589 53.1869C63.8536 53.0583 63.9483 52.9297 64.043 52.7944C64.0633 52.7673 64.0836 52.7403 64.0972 52.7132C64.1039 52.6997 64.1174 52.6794 64.1242 52.6658C64.246 52.4696 64.361 52.2599 64.4693 52.0434C64.4761 52.0298 64.4896 52.0095 64.4964 51.996C64.5099 51.9622 64.5234 51.9216 64.5437 51.8877C64.6046 51.7524 64.6655 51.6103 64.7196 51.4682C64.7332 51.4344 64.7535 51.4006 64.767 51.36C64.7738 51.3329 64.7873 51.3058 64.7941 51.2788C64.8347 51.157 64.8753 51.0352 64.9159 50.9066C64.9294 50.8525 64.9497 50.8051 64.9632 50.7578C64.97 50.7375 64.97 50.7239 64.9768 50.7036C65.0106 50.5886 65.0377 50.4668 65.0715 50.345C65.085 50.2841 65.1053 50.2232 65.1189 50.1556C65.1189 50.142 65.1256 50.1285 65.1256 50.1217C65.1527 50.0135 65.173 49.8985 65.1933 49.7834C65.2068 49.7022 65.2271 49.6278 65.2407 49.5534C65.2407 49.5466 65.2407 49.5331 65.2474 49.5263C65.2677 49.4248 65.2813 49.3166 65.2948 49.2083C65.3083 49.1136 65.3219 49.0256 65.3354 48.9309C65.3354 48.9241 65.3354 48.9106 65.3354 48.9038C65.3489 48.8023 65.3557 48.694 65.3692 48.5858C65.3828 48.4843 65.3895 48.3896 65.403 48.2813C65.403 48.2746 65.403 48.261 65.403 48.2475C65.4098 48.1325 65.4166 48.0107 65.4233 47.8956C65.4301 47.7941 65.4369 47.6926 65.4436 47.5911C65.4436 47.5844 65.4436 47.5709 65.4436 47.5641C65.4504 47.4288 65.4504 47.2867 65.4504 47.1446C65.4504 47.0769 65.4504 46.989 65.4572 46.8942Z" fill="#15647C"/>
<path d="M54.2318 39.546C56.5188 43.4028 57.6556 47.3542 57.642 51.3869C57.6285 55.4196 56.4782 58.0381 54.1777 59.2425C51.8772 60.4402 49.0827 60.0883 45.7808 58.187C42.4789 56.2857 39.6844 53.4033 37.3906 49.5533C35.0969 45.7033 33.9534 41.7586 33.9669 37.7259C33.9804 33.6661 35.1375 31.0408 37.4448 29.8432C39.752 28.6523 42.56 29.0042 45.8552 30.9123C49.1571 32.8136 51.9448 35.6892 54.2318 39.546ZM50.3954 53.0514C51.7013 52.4492 52.3643 50.8727 52.3711 48.3151C52.3779 45.7574 51.7283 43.4163 50.4292 41.2985C49.1233 39.1806 47.5941 37.6108 45.8417 36.5959C44.0892 35.581 42.5465 35.378 41.2271 35.9869C39.9077 36.5891 39.2446 38.1724 39.2378 40.7368C39.231 43.2945 39.8806 45.6356 41.1933 47.7467C42.5059 49.8578 44.0418 51.4275 45.7943 52.4357C47.5468 53.4439 49.0827 53.6469 50.3954 53.0514Z" fill="#D4FBFC"/>
<path d="M66.3361 59.7357L74.1511 55.1955L74.1241 64.9389L66.3091 69.4791L66.3361 59.7357Z" fill="#15647C"/>
<path d="M73.1847 62.8415L80.9997 58.3013L85.594 71.5632L77.779 76.1033L73.1847 62.8415Z" fill="#1B6D8D"/>
<path d="M66.3703 48.369L74.1785 43.8288L74.165 50.1755L66.35 54.7157L66.3703 48.369Z" fill="#15647C"/>
<path d="M79.3482 52.4691C79.3279 52.4759 79.3076 52.4827 79.2873 52.4894C79.2197 52.503 79.152 52.5165 79.0776 52.5233C79.064 52.5233 79.0572 52.5233 79.0437 52.5233C78.9693 52.53 78.8881 52.53 78.8069 52.5233C78.8001 52.5233 78.7933 52.5233 78.7866 52.5233C78.7054 52.5165 78.6175 52.503 78.5227 52.4827C78.516 52.4827 78.5024 52.4759 78.4956 52.4759C78.4077 52.4556 78.313 52.4353 78.2182 52.4015C78.2047 52.3947 78.1912 52.3947 78.1844 52.3879C78.0897 52.3541 77.995 52.3203 77.8935 52.2797C77.8799 52.2729 77.8664 52.2662 77.8461 52.2594C77.7446 52.2188 77.6431 52.1714 77.5348 52.1173C77.5213 52.1105 77.5078 52.1038 77.4875 52.097C77.3792 52.0429 77.2642 51.982 77.1424 51.9143L74.1517 50.1889L66.3367 54.7291L69.3274 56.4545C69.3883 56.4883 69.456 56.5289 69.5168 56.5627C69.571 56.5898 69.6183 56.6168 69.6725 56.6439C69.686 56.6507 69.6995 56.6574 69.7198 56.6642C69.7266 56.671 69.7333 56.671 69.7401 56.6778C69.8078 56.7116 69.8755 56.7454 69.9431 56.7725C69.977 56.786 70.004 56.7995 70.0311 56.8131C70.0446 56.8198 70.0581 56.8266 70.0784 56.8334C70.0919 56.8401 70.1123 56.8469 70.1258 56.8537C70.1799 56.874 70.2408 56.8943 70.2949 56.9146C70.322 56.9213 70.3491 56.9281 70.3694 56.9416C70.3829 56.9484 70.3965 56.9484 70.4032 56.9552C70.4168 56.9619 70.4303 56.9619 70.4506 56.9687C70.498 56.9822 70.5521 56.9958 70.5994 57.0093C70.6265 57.0161 70.6536 57.0228 70.6806 57.0296C70.6874 57.0296 70.7009 57.0364 70.7077 57.0364C70.7145 57.0364 70.728 57.0431 70.7348 57.0431C70.7821 57.0499 70.8295 57.0567 70.8701 57.0634C70.9039 57.0702 70.931 57.0702 70.9648 57.0702C70.9716 57.0702 70.9783 57.0702 70.9851 57.0702C70.9919 57.0702 70.9986 57.0702 71.0054 57.0702C71.0528 57.0702 71.0934 57.077 71.1407 57.077C71.1678 57.077 71.1948 57.077 71.2219 57.0702C71.2354 57.0702 71.2422 57.0702 71.2558 57.0702C71.2625 57.0702 71.2761 57.0702 71.2828 57.0702C71.3302 57.0634 71.3843 57.0567 71.4317 57.0499C71.4452 57.0499 71.452 57.0431 71.4655 57.0431C71.4858 57.0364 71.5061 57.0296 71.5264 57.0228C71.5535 57.0161 71.5805 57.0093 71.6076 57.0025C71.6414 56.989 71.6753 56.9755 71.7091 56.9619L79.5241 52.4218C79.4768 52.4353 79.4158 52.4488 79.3482 52.4691Z" fill="#115A6B"/>
<mask id="mask1_1_203" style="mask-type:luminance" maskUnits="userSpaceOnUse" x="71" y="52" width="9" height="5">
<path d="M79.6387 52.3472L71.8237 56.8873C71.7899 56.9076 71.7561 56.9279 71.7155 56.9415L79.5305 52.4013C79.5711 52.3878 79.6049 52.3675 79.6387 52.3472Z" fill="white"/>
</mask>
<g mask="url(#mask1_1_203)">
<path d="M71.7154 56.9477L79.5304 52.4075C79.5643 52.3872 79.6048 52.3737 79.6387 52.3534L71.8237 56.8936C71.7898 56.9071 71.756 56.9274 71.7154 56.9477Z" fill="#858585"/>
</g>
<path d="M85.5056 53.1117C85.4988 52.9764 85.492 52.8411 85.4852 52.7058C85.4852 52.6855 85.4852 52.6719 85.4785 52.6516C85.4785 52.6313 85.4785 52.611 85.4717 52.5907C85.4649 52.496 85.4582 52.4013 85.4514 52.3066C85.4379 52.178 85.4244 52.0494 85.4108 51.9209C85.4041 51.8735 85.3973 51.8261 85.3905 51.7788C85.3837 51.7517 85.3838 51.7247 85.377 51.6976C85.3702 51.6502 85.3634 51.5961 85.3567 51.5487C85.3364 51.4269 85.3161 51.3052 85.2958 51.1766C85.2755 51.0751 85.2552 50.9804 85.2349 50.8789C85.2349 50.8653 85.2281 50.8518 85.2281 50.8383C85.2281 50.8248 85.2213 50.818 85.2213 50.8044C85.1943 50.6826 85.1672 50.5609 85.1402 50.4391C85.1131 50.3173 85.0792 50.2023 85.0454 50.0805C85.0387 50.0534 85.0251 50.0196 85.0184 49.9925C85.0116 49.9722 85.0049 49.9519 84.9981 49.9316C84.9778 49.8639 84.9575 49.7963 84.9372 49.7354C84.9033 49.6204 84.8628 49.5053 84.8289 49.3971C84.7951 49.3023 84.7613 49.2009 84.7274 49.1061C84.7274 49.0994 84.7207 49.0926 84.7207 49.0858C84.7207 49.0791 84.7139 49.0723 84.7139 49.0655C84.6733 48.9573 84.6327 48.849 84.5921 48.7407C84.5515 48.6325 84.5109 48.531 84.4635 48.4227C84.4365 48.3618 84.4094 48.3009 84.3823 48.24C84.3756 48.2265 84.3688 48.2062 84.3621 48.1927C84.3485 48.1656 84.3417 48.1386 84.3282 48.1115C84.2808 48.0032 84.2335 47.895 84.1794 47.7867C84.1252 47.6717 84.0711 47.5566 84.0102 47.4416C83.9967 47.4145 83.9831 47.3875 83.9696 47.3672C83.9561 47.3401 83.9425 47.3131 83.929 47.286C83.8884 47.198 83.841 47.1168 83.8005 47.0289C83.699 46.8394 83.5907 46.65 83.4824 46.4537C83.4756 46.447 83.4757 46.4402 83.4689 46.4334C83.4486 46.4064 83.4283 46.3793 83.4148 46.3455C83.2524 46.0681 83.0765 45.7907 82.9005 45.5268C82.887 45.5065 82.8735 45.4794 82.8599 45.4591C82.7381 45.2832 82.6164 45.1073 82.4878 44.9381C82.4607 44.9043 82.4337 44.8705 82.4134 44.8366C82.3931 44.8096 82.3728 44.7825 82.3525 44.7554C82.3051 44.6945 82.2578 44.6336 82.2104 44.5727C82.1292 44.4645 82.0412 44.363 81.9533 44.2547C81.9059 44.1938 81.8518 44.1329 81.7976 44.0788C81.7841 44.0585 81.7706 44.045 81.7503 44.0247C81.73 44.0044 81.7097 43.9773 81.6962 43.957C81.6082 43.8555 81.5202 43.7608 81.4323 43.6661C81.3375 43.5646 81.2428 43.4698 81.1481 43.3683C81.1413 43.3616 81.1345 43.3548 81.1278 43.348C81.121 43.3413 81.1143 43.3345 81.1007 43.3277C81.0128 43.2398 80.9316 43.1518 80.8436 43.0706C80.7353 42.9691 80.6271 42.8676 80.5188 42.7661C80.4985 42.7458 80.4782 42.7323 80.4579 42.712C80.4376 42.6917 80.4106 42.6714 80.3903 42.6511C80.3158 42.5902 80.2482 42.5226 80.1737 42.4617C80.0587 42.3602 79.9369 42.2654 79.8151 42.1707C79.7881 42.1504 79.761 42.1301 79.7339 42.1098C79.7069 42.0895 79.6798 42.0692 79.6527 42.0489C79.5851 41.9948 79.5174 41.9407 79.443 41.8865C79.3144 41.7918 79.1859 41.7038 79.0573 41.6091C79.0302 41.5888 78.9964 41.5685 78.9693 41.555C78.9423 41.5347 78.9084 41.5144 78.8814 41.4941C78.8069 41.4467 78.7325 41.3926 78.6581 41.3452C78.516 41.2573 78.3739 41.1693 78.2318 41.0881C78.198 41.0678 78.1642 41.0475 78.1303 41.0272L69.1041 35.8172L61.2891 40.3573L70.3153 45.5674C70.5724 45.7162 70.8228 45.8719 71.0664 46.0342C71.0934 46.0545 71.1273 46.0748 71.1543 46.0951C71.3844 46.2508 71.6144 46.4132 71.8377 46.5891C71.8648 46.6094 71.8919 46.6297 71.9189 46.65C72.1422 46.8259 72.3587 47.0018 72.5752 47.1913C72.5955 47.2116 72.6226 47.2319 72.6429 47.2522C72.8662 47.4484 73.0827 47.6514 73.2924 47.8679C73.2992 47.8747 73.306 47.8814 73.3195 47.8882C73.5361 48.1047 73.739 48.328 73.942 48.5648C73.9556 48.5783 73.9691 48.5987 73.9826 48.619C74.1721 48.8355 74.3548 49.0655 74.5307 49.2956C74.551 49.3226 74.5713 49.3497 74.5916 49.3768C74.7608 49.6001 74.9231 49.8301 75.0787 50.0669C75.2547 50.3308 75.4306 50.6015 75.593 50.8856C75.6133 50.9195 75.6403 50.9533 75.6606 50.9939C75.823 51.2713 75.9719 51.5487 76.114 51.8194C76.1275 51.8464 76.1411 51.8735 76.1546 51.9006C76.2899 52.178 76.4253 52.4486 76.5403 52.7261C76.547 52.7396 76.5538 52.7599 76.5606 52.7734C76.6823 53.0508 76.7906 53.335 76.8921 53.6192C76.8921 53.626 76.8989 53.6327 76.8989 53.6395C77.0004 53.9169 77.0883 54.1943 77.1695 54.4718C77.1763 54.4921 77.183 54.5124 77.1898 54.5327C77.271 54.8101 77.3387 55.0942 77.3996 55.3717C77.3996 55.3852 77.4063 55.3987 77.4063 55.4055C77.4672 55.6762 77.5146 55.9536 77.5552 56.2242C77.562 56.2513 77.562 56.2783 77.5687 56.3054C77.6026 56.5761 77.6364 56.8467 77.6567 57.1106C77.6567 57.1309 77.6567 57.1512 77.6635 57.1715C77.6838 57.4624 77.6905 57.7466 77.6905 58.0376C77.6905 58.2338 77.6838 58.43 77.6702 58.6127C77.6702 58.6533 77.6635 58.6939 77.6635 58.7345C77.6499 58.9172 77.6364 59.0863 77.6161 59.2555C77.6161 59.2758 77.6093 59.3029 77.6025 59.3232C77.5822 59.472 77.5552 59.6209 77.5281 59.763C77.5214 59.7968 77.5146 59.8239 77.5078 59.8577C77.474 60.0133 77.4334 60.1622 77.3928 60.3043C77.3793 60.3381 77.3725 60.3719 77.359 60.4058C77.3251 60.514 77.2846 60.6155 77.244 60.717C77.2237 60.7711 77.2034 60.8185 77.1763 60.8726C77.1425 60.9471 77.1086 61.0215 77.068 61.0959C77.0274 61.1704 76.9868 61.2448 76.9462 61.3192C76.9124 61.3733 76.8853 61.4207 76.8515 61.4681C76.7365 61.6372 76.6215 61.7996 76.4861 61.9417C76.2831 62.1582 76.0531 62.3341 75.8095 62.4762L83.6245 57.9361C83.8681 57.794 84.0982 57.6113 84.3011 57.4015C84.4365 57.2594 84.5583 57.0971 84.6665 56.9279C84.68 56.9076 84.7003 56.8873 84.7139 56.867C84.7342 56.84 84.7477 56.8061 84.7612 56.7791C84.8018 56.7046 84.8424 56.6302 84.883 56.5558C84.9033 56.5152 84.9237 56.4813 84.9439 56.4475C84.9575 56.4137 84.971 56.3731 84.9913 56.3393C85.0116 56.2919 85.0319 56.2378 85.059 56.1836C85.0725 56.1498 85.0928 56.116 85.1063 56.0754C85.1334 56.0077 85.1537 55.94 85.174 55.8724C85.1875 55.8385 85.1943 55.8047 85.2078 55.7709C85.2146 55.7573 85.2146 55.7438 85.2213 55.7303C85.2552 55.6152 85.2822 55.5002 85.3093 55.3852C85.3161 55.3649 85.3161 55.3446 85.3229 55.3243C85.3296 55.2905 85.3364 55.2634 85.3431 55.2296C85.3567 55.1687 85.3702 55.101 85.3837 55.0401C85.3973 54.9589 85.4108 54.871 85.4244 54.7898C85.4244 54.7695 85.4311 54.7424 85.4379 54.7221C85.4379 54.7086 85.4446 54.7018 85.4446 54.6883C85.4582 54.5665 85.4717 54.4447 85.4852 54.3229C85.4852 54.2823 85.492 54.2417 85.492 54.2011C85.492 54.1605 85.4988 54.1199 85.4988 54.0793C85.4988 54.0319 85.5056 53.9846 85.5056 53.9372C85.5123 53.8019 85.5123 53.6666 85.5123 53.5312C85.5123 53.5245 85.5123 53.5177 85.5123 53.5042C85.5123 53.3756 85.5123 53.2403 85.5056 53.1117Z" fill="#247F9B"/>
<path d="M73.1835 62.8419L77.7778 76.1037L72.1889 72.8762L68.1359 60.7782L66.3361 59.7362L66.3091 69.4796L61.2343 66.5498L61.3088 40.3779L70.3349 45.5879C72.5407 46.86 74.3203 48.6666 75.6803 51.0009C77.0335 53.3353 77.7102 55.6832 77.7034 58.0514C77.6966 59.8241 77.2974 61.1233 76.5058 61.9623C75.7006 62.7945 74.5977 63.0922 73.1835 62.8419ZM71.7153 56.9485C72.2701 56.6914 72.5543 56.0824 72.5543 55.1216C72.5543 54.1405 72.2836 53.2 71.7288 52.3136C71.174 51.4272 70.3823 50.6829 69.3539 50.0943L66.3632 48.3689L66.3429 54.7156L69.3335 56.441C70.3688 57.0364 71.1604 57.2056 71.7153 56.9485Z" fill="#D4FBFC"/>
<path d="M86.5001 74.114L94.3151 69.5739L94.2948 76.5905L86.4798 81.1306L86.5001 74.114Z" fill="#15647C"/>
<path d="M89.0782 72.3141L96.8933 67.774L94.3153 69.5738L86.5003 74.1139L89.0782 72.3141Z" fill="#808080"/>
<path d="M92.6577 69.8308L100.473 65.2906L109.33 85.2646L101.515 89.8115L92.6577 69.8308Z" fill="#1B6D8D"/>
<path d="M81.4794 52.0297L89.2944 47.4895L94.3691 50.4193L86.5541 54.9595L81.4794 52.0297Z" fill="#247F9B"/>
<path d="M86.5545 54.9584L94.3695 50.4182L94.3425 61.4134L86.5274 65.9603L86.5545 54.9584Z" fill="#15647C"/>
<path d="M101.562 63.6201L109.37 59.08L100.473 65.2914L92.6577 69.8315L101.562 63.6201Z" fill="#808080"/>
<path d="M94.8764 59.7628L102.691 55.2226L109.37 59.0794L101.561 63.6196L94.8764 59.7628Z" fill="#247F9B"/>
<path d="M101.561 63.6199L92.6568 69.8313L101.514 89.812L95.1875 86.1582L89.0775 72.3145L86.4996 74.1143L86.4793 81.1309L81.4046 78.2011L81.479 52.0293L86.5537 54.9591L86.5266 65.961L94.8762 59.7631L101.561 63.6199Z" fill="#DC3333"/>
</svg>
